<?xml version="1.0" encoding="UTF-8"?>
<!DOCTYPE svg  PUBLIC '-//W3C//DTD SVG 1.1//EN'  'http://www.w3.org/Graphics/SVG/1.1/DTD/svg11.dtd'>
<svg style="fill:#343435;" enable-background="new 0 0 792 612" version="1.1" viewBox="0 0 792 612" xml:space="preserve" xmlns="http://www.w3.org/2000/svg">
	<g clip-rule="evenodd" fill-rule="evenodd">
		<path d="m737.76 605.06h-661.14v-596.29h661.14v596.29zm-597.24-87.74c0.184 0.323 0.367 0.646 0.551 0.968-1.113 1.214-2.203 2.448-3.341 3.637-19.081 19.93-38.188 39.833-57.202 59.827-1.187 1.248-2.729 4.046-2.257 4.664 1.332 1.743 3.625 3.76 5.544 3.765 2.739 9e-3 5.611-1.411 8.196-2.699 3.998-1.995 7.802-4.395 11.687-6.621 0.222 0.366 0.443 0.73 0.665 1.097-0.478 0.747-1.09 1.441-1.403 2.254-0.549 1.425-0.915 2.922-1.357 4.39 1.555 0.245 3.312 1.085 4.625 0.623 3.741-1.315 7.448-2.897 10.887-4.879 2.854-1.645 5.375-3.31 8.75-0.663-0.894 1.643-1.934 3.149-2.549 4.817-0.475 1.287-1.036 3.291-0.433 4.046 0.726 0.905 2.856 1.453 4.007 1.052 3.357-1.169 6.732-2.558 9.723-4.469 4.094-2.619 7.841-5.8 11.714-8.721-0.151 1.836-0.288 3.499-0.52 6.306 2.16-1.57 3.338-2.219 4.263-3.131 8.446-8.337 16.78-16.79 25.276-25.072 16.614-16.195 33.241-32.378 50.015-48.404 5.32-5.082 10.829-10.063 16.765-14.355 10.465-7.568 21.314-14.589 32.023-21.807 6.83-4.603 13.696-9.148 20.546-13.72-0.052 0.499-0.104 0.999-0.157 1.498 1.35 0.535 3.284 1.937 3.957 1.468 5.786-4.036 11.475-8.248 16.917-12.754 2.691-2.228 5.161-3.362 8.822-3.304 3.328 0.055 6.695-1.735 10.028-2.771 2.636-0.819 5.304-2.607 7.854-2.43 6.834 0.477 13.95 7.901 15.047 14.874 0.447 2.841 0.66 5.721 1.116 8.56 0.185 1.146 0.42 2.563 1.166 3.295 5.859 5.749 11.848 11.362 17.798 17.017 13.21 12.551 26.395 25.129 39.676 37.602 1.175 1.103 2.983 1.505 4.497 2.233-4.492 3.463-7.856 4.664-10.304 6.901-6.931 6.335-8.702 18.929-4.318 27.354 2.11 4.056 9.595 7.013 13.896 5.297-0.374-0.798-0.757-1.572-1.104-2.363-1.502-3.419-3.538-6.717-4.341-10.299-0.851-3.798 0.994-5.164 4.868-4.639 2.366 0.321 4.829 1.271 7.073 0.886 5.718-0.982 8.654 2.878 10.355 6.809 2.903 6.705 7.755 8.798 14.236 8.587 3.035-0.099 3.958 1.495 4.784 4.196 0.971 3.173 2.114 6.864 4.404 8.933 5.719 5.164 7.076 11.299 6.069 18.489-0.231 1.65-0.503 3.304-0.574 4.965-0.035 0.793 0.354 1.605 0.552 2.409 0.896-0.283 2.102-0.285 2.643-0.895 5.944-6.708 9.206-26.15 1.894-33.096-2.708-2.572-3.926-6.766-5.823-10.219 0.44-0.597 0.881-1.192 1.321-1.789 2.918 0.807 7.166 0.688 8.466 2.62 2.439 3.623 5.037 4.53 8.913 4.409 8.727-0.274 13.017 2.731 16.569 10.964 1.569 3.638 3.328 7.192 5.001 10.783 0.484-0.155 0.969-0.313 1.454-0.468 4.527-13.196 0.771-24.494-9.176-34.549 3.834 0.479 7.159 1.221 10.409 2.212 1.021 0.311 2.346 1.106 2.672 2.004 1.8 4.952 5.412 5.931 10.047 5.442 5.282-0.556 9.169 2.701 8.909 8.037-0.179 3.659-1.618 7.247-2.385 10.891-0.244 1.157-0.138 2.391-0.192 3.59 0.969-0.496 2.229-0.748 2.855-1.526 3.668-4.553 6.396-9.549 5.966-15.717-0.227-3.24-0.589-6.471-0.827-9.028 6.479 0 12.719-0.157 18.941 0.104 1.715 0.071 3.853 0.956 4.979 2.22 3.666 4.112 6.54 5.088 11.356 3.063 6.25-2.627 11.109 0.078 12.531 6.895 0.236 1.136 0.86 2.188 1.469 3.68 6.137-8.368 1.182-21.656-8.447-23.843-7.525-1.708-15.312-2.192-22.219-6.289-1.568-0.932-3.763-1.036-5.676-1.066-11.979-0.185-19.531-6.617-24.774-17.087-1.839-3.673-4.691-7.086-7.777-9.799-7.867-6.918-16.573-12.893-24.123-20.129-10.759-10.313-20.883-21.32-31.028-32.271-1.758-1.897-2.526-4.912-3.231-7.554-0.246-0.925 1.367-3.354 1.637-3.278 4.035 1.132 5.16-2.785 7.642-4.262 3.895-2.318 7.851-4.266 12.68-2.687 1.139 0.372 3.265-0.214 4.015-1.135 4.161-5.109 8.447-10.2 11.886-15.807 2.899-4.728 3.781-9.885 9.34-13.757 9.486-6.61 17.224-15.807 25.726-23.886 0.968-0.92 2.101-2.298 3.188-2.329 3.308-0.094 5.167-1.091 7.361-4.15 3.642-5.074 9.063-8.781 13.349-13.433 15.686-17.029 29.931-35.104 39.666-56.503 2.428-5.338 5.844-10.223 8.944-15.227 0.662-1.068 2.068-2.592 2.889-2.452 2.648 0.453 2.659-1.192 3.486-2.911 1.701-3.535 3.958-6.793 5.979-10.169 0.301-0.502 0.709-0.995 0.826-1.544 2.184-10.266 8.259-18.598 14.384-26.431 3.257-4.165 4.526-8.382 5.818-12.979 0.443-1.576 0.114-3.394 0.634-4.928 1.14-3.37 2.574-6.638 3.93-9.929 0.988-2.398 2.741-4.707 2.954-7.163 1.612-18.566 0.525-36.877-5.201-54.791-2.754-8.614-4.204-17.679-7.233-26.176-3.799-10.655-0.668-20.109 4.38-28.775 4.61-7.912 10.878-14.843 16.599-22.056 1.441-1.818 3.368-3.613 5.451-4.468 10.063-4.135 20.199-8.098 30.413-11.833 13.461-4.921 27.111-9.32 40.49-14.453 6.083-2.333 6.737-6.049 2.844-11.406-1.579-2.173-3.516-4.173-5.602-5.853-7.546-6.079-16.27-9.765-25.734-10.887-15.83-1.876-31.743-3.008-47.599-4.683-11.866-1.254-23.965-2.194-34.826-7.583-10.125-5.023-20.766-6.332-31.664-6.943-24.068-1.35-45.259 6.383-64.047 21.363-1.122 0.895-1.229 2.999-2.205 4.207-2.463 3.046 0.321 7.577-3.316 10.431-2.671 2.095-6.892 3.973-4.352 8.955 0.117 0.23-0.311 0.823-0.58 1.172-2.902 3.768-6.8 6.608-7.381 12.223-0.333 3.218-6.225 4.99-3.452 9.839 0.075 0.133-0.268 0.509-0.411 0.774-2.252 4.179-4.219 8.553-6.815 12.497-5.063 7.688-10.271 15.302-15.872 22.587-1.799 2.339-4.82 4.076-7.627 5.187-22.344 8.841-42.884 20.709-60.788 37.015-8.903 8.108-17.227 16.906-26.423 24.643-12.677 10.665-25.65 20.926-36.045 34.066-0.914 1.156-2.243 1.992-3.434 2.9-31.469 23.992-62.368 48.722-90.486 76.744-11.28 11.241-21.344 23.745-31.879 35.75-0.898 1.022-2.006 3.337-1.599 3.819 2.555 3.037-0.075 4.508-1.382 6.546-5.444 8.486-10.879 16.982-16.059 25.635-0.712 1.188 0.034 3.279 0.105 4.953 1.387-0.796 3.097-1.295 4.105-2.435 4.351-4.92 8.495-10.026 12.715-15.064 0.257 3.646-0.783 6.845-0.802 10.05-0.044 7.699-3.556 13.361-8.459 18.912-4.097 4.637-7.003 10.356-10.458 15.582-0.574 0.868-1.174 1.746-1.899 2.48-27.648 27.997-55.532 55.74-86.374 80.179-3.351 2.654-4.851 4.998-0.606 8.048-10.096 9.484-19.76 18.546-29.399 27.634-2.019 1.903-4.02 3.893-2.141 7.044 1.935 3.242 4.845 2.576 7.534 1.608 2.37-0.854 4.537-2.285 6.819-3.406 0.901-0.443 1.874-0.739 2.814-1.102 0.088 0.205 0.176 0.409 0.264 0.613-3.716 4.124-7.432 8.248-11.148 12.373 0.264 0.4 0.526 0.8 0.79 1.2 2.452-0.194 4.903-0.389 8.074-0.641-2.768 3.231-5 5.837-7.232 8.442 0.417 0.568 0.836 1.136 1.254 1.703 17.191-8.03 33.931-17.1 50.311-26.94z" fill="none"/>
		<path d="m140.52 517.32c-16.374 9.838-33.114 18.911-50.343 26.968-0.418-0.567-0.837-1.135-1.254-1.703 2.232-2.605 4.465-5.211 7.232-8.442-3.171 0.252-5.622 0.446-8.074 0.641-0.263-0.4-0.526-0.8-0.79-1.2 3.716-4.125 7.433-8.249 11.148-12.373-0.088-0.204-0.175-0.408-0.264-0.613-0.94 0.362-1.913 0.658-2.814 1.102-2.282 1.121-4.449 2.553-6.819 3.406-2.689 0.968-5.6 1.634-7.534-1.608-1.879-3.151 0.122-5.141 2.141-7.044 9.639-9.088 19.303-18.149 29.399-27.634-4.245-3.05-2.745-5.394 0.606-8.048 30.841-24.438 58.725-52.182 86.374-80.179 0.725-0.734 1.325-1.612 1.899-2.48 3.455-5.226 6.361-10.945 10.458-15.582 4.903-5.551 8.415-11.213 8.459-18.912 0.019-3.205 1.059-6.403 0.802-10.05-4.22 5.038-8.364 10.145-12.715 15.064-1.008 1.14-2.718 1.639-4.105 2.435-0.071-1.674-0.817-3.765-0.105-4.953 5.179-8.652 10.615-17.148 16.059-25.635 1.308-2.038 3.937-3.509 1.382-6.546-0.407-0.482 0.701-2.797 1.599-3.819 10.535-12.005 20.599-24.509 31.879-35.75 28.119-28.022 59.018-52.752 90.486-76.744 1.191-0.909 2.52-1.745 3.434-2.9 10.395-13.14 23.368-23.401 36.045-34.066 9.196-7.737 17.52-16.535 26.423-24.643 17.904-16.305 38.444-28.173 60.788-37.015 2.807-1.111 5.828-2.847 7.627-5.187 5.601-7.285 10.809-14.899 15.872-22.587 2.597-3.944 4.563-8.318 6.815-12.497 0.144-0.266 0.486-0.642 0.411-0.774-2.772-4.849 3.119-6.621 3.452-9.839 0.581-5.615 4.479-8.455 7.381-12.223 0.27-0.349 0.697-0.941 0.58-1.172-2.54-4.981 1.681-6.859 4.352-8.955 3.638-2.854 0.854-7.385 3.316-10.431 0.977-1.208 1.083-3.313 2.205-4.207 18.77-15.002 39.96-22.735 64.03-21.386 10.898 0.611 21.539 1.92 31.664 6.943 10.861 5.389 22.96 6.329 34.826 7.583 15.855 1.675 31.769 2.807 47.599 4.683 9.465 1.122 18.188 4.808 25.734 10.887 2.086 1.68 4.022 3.68 5.602 5.853 3.894 5.357 3.239 9.073-2.844 11.406-13.379 5.133-27.029 9.532-40.49 14.453-10.214 3.734-20.351 7.698-30.413 11.833-2.083 0.855-4.01 2.65-5.451 4.468-5.721 7.212-11.988 14.144-16.599 22.056-5.048 8.667-8.179 18.12-4.38 28.775 3.029 8.497 4.479 17.562 7.233 26.176 5.727 17.914 6.813 36.225 5.201 54.791-0.213 2.456-1.966 4.765-2.954 7.163-1.355 3.292-2.79 6.56-3.93 9.929-0.52 1.534-0.19 3.352-0.634 4.928-1.292 4.597-2.562 8.814-5.818 12.979-6.125 7.833-12.2 16.165-14.384 26.431-0.117 0.55-0.525 1.042-0.826 1.544-2.021 3.376-4.277 6.634-5.979 10.169-0.827 1.719-0.838 3.364-3.486 2.911-0.82-0.141-2.227 1.384-2.889 2.452-3.101 5.004-6.517 9.889-8.944 15.227-9.735 21.399-23.98 39.474-39.666 56.503-4.285 4.651-9.707 8.358-13.349 13.433-2.194 3.06-4.054 4.057-7.361 4.15-1.088 0.031-2.221 1.409-3.188 2.329-8.502 8.079-16.239 17.275-25.726 23.886-5.559 3.872-6.44 9.029-9.34 13.757-3.438 5.606-7.725 10.697-11.886 15.807-0.75 0.921-2.876 1.507-4.015 1.135-4.829-1.579-8.785 0.368-12.68 2.687-2.481 1.477-3.606 5.394-7.642 4.262-0.27-0.075-1.883 2.354-1.637 3.278 0.705 2.642 1.474 5.656 3.231 7.554 10.146 10.951 20.27 21.958 31.028 32.271 7.55 7.236 16.256 13.211 24.123 20.129 3.086 2.713 5.938 6.126 7.777 9.799 5.243 10.47 12.795 16.902 24.774 17.087 1.913 0.03 4.107 0.135 5.676 1.066 6.907 4.097 14.693 4.581 22.219 6.289 9.629 2.187 14.584 15.475 8.447 23.843-0.608-1.492-1.232-2.544-1.469-3.68-1.422-6.816-6.281-9.521-12.531-6.895-4.816 2.024-7.69 1.049-11.356-3.063-1.127-1.264-3.265-2.148-4.979-2.22-6.223-0.261-12.463-0.104-18.941-0.104 0.238 2.558 0.601 5.788 0.827 9.028 0.431 6.168-2.298 11.164-5.966 15.717-0.627 0.778-1.887 1.03-2.855 1.526 0.055-1.199-0.052-2.433 0.192-3.59 0.767-3.644 2.206-7.231 2.385-10.891 0.26-5.336-3.627-8.593-8.909-8.037-4.635 0.488-8.247-0.49-10.047-5.442-0.326-0.897-1.651-1.693-2.672-2.004-3.25-0.991-6.575-1.732-10.409-2.212 9.946 10.055 13.703 21.353 9.176 34.549-0.485 0.155-0.97 0.313-1.454 0.468-1.673-3.591-3.432-7.146-5.001-10.783-3.553-8.232-7.843-11.238-16.569-10.964-3.876 0.121-6.474-0.786-8.913-4.409-1.3-1.932-5.548-1.813-8.466-2.62-0.44 0.597-0.881 1.192-1.321 1.789 1.897 3.453 3.115 7.646 5.823 10.219 7.313 6.945 4.051 26.388-1.894 33.096-0.541 0.609-1.746 0.611-2.643 0.895-0.198-0.804-0.587-1.616-0.552-2.409 0.071-1.661 0.343-3.314 0.574-4.965 1.007-7.19-0.351-13.325-6.069-18.489-2.29-2.068-3.434-5.76-4.404-8.933-0.826-2.701-1.749-4.295-4.784-4.196-6.481 0.211-11.333-1.882-14.236-8.587-1.701-3.931-4.638-7.791-10.355-6.809-2.244 0.386-4.707-0.564-7.073-0.886-3.874-0.525-5.719 0.841-4.868 4.639 0.803 3.582 2.839 6.88 4.341 10.299 0.348 0.791 0.73 1.565 1.104 2.363-4.301 1.716-11.785-1.241-13.896-5.297-4.384-8.426-2.612-21.02 4.318-27.354 2.447-2.237 5.812-3.438 10.304-6.901-1.514-0.729-3.322-1.131-4.497-2.233-13.281-12.473-26.466-25.051-39.676-37.602-5.95-5.654-11.938-11.268-17.798-17.017-0.746-0.732-0.981-2.148-1.166-3.295-0.456-2.839-0.668-5.719-1.116-8.56-1.097-6.973-8.213-14.397-15.047-14.874-2.55-0.178-5.218 1.61-7.854 2.43-3.333 1.035-6.7 2.825-10.028 2.771-3.661-0.059-6.131 1.076-8.822 3.304-5.442 4.506-11.131 8.718-16.917 12.754-0.672 0.469-2.607-0.933-3.957-1.468 0.053-0.499 0.105-0.999 0.157-1.498-6.85 4.571-13.717 9.117-20.546 13.72-10.709 7.218-21.558 14.238-32.023 21.807-5.936 4.293-11.445 9.273-16.765 14.355-16.773 16.026-33.401 32.209-50.015 48.404-8.496 8.282-16.831 16.735-25.276 25.072-0.925 0.912-2.104 1.561-4.263 3.131 0.231-2.807 0.368-4.47 0.52-6.306-3.873 2.921-7.62 6.102-11.714 8.721-2.991 1.911-6.366 3.3-9.723 4.469-1.15 0.401-3.281-0.146-4.007-1.052-0.603-0.755-0.042-2.759 0.433-4.046 0.615-1.668 1.655-3.175 2.549-4.817-3.375-2.646-5.896-0.981-8.75 0.663-3.439 1.981-7.146 3.563-10.887 4.879-1.313 0.462-3.07-0.378-4.625-0.623 0.443-1.468 0.808-2.965 1.357-4.39 0.313-0.813 0.926-1.507 1.403-2.254-0.222-0.366-0.443-0.73-0.665-1.097-3.885 2.227-7.689 4.626-11.687 6.621-2.584 1.288-5.457 2.708-8.196 2.699-1.919-5e-3 -4.212-2.021-5.544-3.765-0.472-0.618 1.071-3.416 2.257-4.664 19.015-19.994 38.122-39.897 57.202-59.827 1.138-1.188 2.228-2.423 3.341-3.637-0.13-0.35-0.31-0.67-0.49-0.99zm298.88 1.16c6.76-5.243 13.767-7.253 21.225-3.268 6.388 3.414 12.276 7.826 18.763 11.005 4.552 2.231 9.655 3.793 14.663 4.422 4.25 0.534 5.6-1.976 3.28-5.705-3.245-5.216-6.577-10.653-10.958-14.814-15.819-15.029-32.108-29.546-48.187-44.293-5.663-5.194-8.074-5.506-14.839-1.688-2.478 1.396-4.923 2.931-7.554 3.944-2.563 0.988-3.024 2.491-3.083 5.135-0.072 3.232-1.245 6.427-1.745 9.669-0.176 1.138-0.2 2.753 0.44 3.497 9.13 10.62 18.39 21.13 28 32.09zm14.62 5.06c-1.988 1.577-3.142 2.491-4.294 3.405 1.988 1.513 3.869 3.242 6.054 4.358 0.449 0.229 2.032-1.833 3.093-2.84-1.48-1.5-2.96-3-4.85-4.92z"/>
		<path d="m439.4 518.48c-9.606-10.968-18.863-21.477-27.994-32.096-0.641-0.744-0.616-2.359-0.44-3.497 0.5-3.242 1.673-6.437 1.745-9.669 0.059-2.644 0.52-4.146 3.083-5.135 2.631-1.014 5.076-2.548 7.554-3.944 6.765-3.818 9.176-3.507 14.839 1.688 16.078 14.747 32.367 29.264 48.187 44.293 4.381 4.161 7.713 9.599 10.958 14.814 2.319 3.729 0.97 6.239-3.28 5.705-5.008-0.629-10.111-2.19-14.663-4.422-6.486-3.179-12.375-7.591-18.763-11.005-7.48-3.99-14.48-1.98-21.24 3.26z" fill="none"/>
		<path d="m454.02 523.54c1.888 1.916 3.37 3.42 4.853 4.924-1.061 1.007-2.644 3.068-3.093 2.84-2.185-1.116-4.065-2.846-6.054-4.358 1.15-0.9 2.3-1.82 4.29-3.4z" fill="none"/>
	</g>
</svg>
