<?xml version="1.0" encoding="utf-8"?>
<!-- Generator: Adobe Illustrator 15.1.0, SVG Export Plug-In . SVG Version: 6.00 Build 0)  -->
<!DOCTYPE svg PUBLIC "-//W3C//DTD SVG 1.1//EN" "http://www.w3.org/Graphics/SVG/1.1/DTD/svg11.dtd">
<svg version="1.1" id="Shape_1_1_" xmlns="http://www.w3.org/2000/svg" xmlns:xlink="http://www.w3.org/1999/xlink" x="0px" y="0px"
	 width="146.25px" height="334px" viewBox="146.25 95.5 146.25 334" enable-background="new 146.25 95.5 146.25 334"
	 xml:space="preserve">
<g id="Shape_1">
	<g>
		<path fill="#0F0F0F" d="M269.062,150.827c-0.6-0.171-1.199-0.342-1.799-0.514c2.905-2.238,3.133-4.709,3.598-8.226
			c-0.257-0.429-0.514-0.857-0.771-1.285c-1.114,1.97-2.229,3.941-3.342,5.912h-0.257c1.155-9.011,2.994-21.775,4.112-30.589
			c-0.496-0.615-0.153-0.425-1.027-0.771c-3.681,4.295-4.353,15.542-5.142,22.621c-0.856-1.714-1.714-3.428-2.571-5.141
			c-0.257-0.171-0.514-0.343-0.771-0.514h-0.257c-0.443,2.433-1.401,5.162-0.515,8.226c-0.171,0.085-0.343,0.171-0.514,0.257
			c-1.1-3.246-2.728-6.308-3.084-10.282h-0.771c-0.867,7.075,0.904,10.129,3.342,15.937c-3.871-3.003-8.418-5.803-11.311-9.768
			c-0.257-0.086-0.514-0.171-0.771-0.257c0.248,5.604,3.959,9.028,6.426,12.596c-5.917-2.248-9.635-0.302-15.937,0.514v0.771
			c3.134-0.237,11.931-1.099,14.651,2.313c-8.159-1.892-21.206,1.432-24.419,9.511c-0.086,0.343-0.171,0.687-0.257,1.028
			c4.072-1.755,7.002-3.943,12.338-4.884c-2.142,1.114-4.284,2.228-6.426,3.342c-4.148,3.241-7.11,7.61-10.796,11.31
			c-1.733,1.74-4.72,2.931-5.655,5.398c4.626-2.313,9.254-4.627,13.881-6.94c-4.52,4.75-10.358,6.764-14.395,12.595
			c-14.268,20.613-17.813,52.073-25.962,77.115v1.028c1.027-0.514,2.057-1.028,3.084-1.542c-2.289,2.923-2.166,2.056-3.855,5.655
			v0.257c2.151,0.124,6.169-2.634,7.968-3.342c-2.913,2.142-5.826,4.284-8.738,6.426c-1.2,4.969-2.399,9.94-3.6,14.909
			c-3.453,13.249-7.163,24.803-9.253,37.786c-1.628,6.938-3.256,13.882-4.884,20.82c-1.799,8.996-3.599,17.994-5.398,26.99v0.514
			c2.302-1.353,4.388-2.578,7.198-3.599c-1.885,1.714-3.771,3.429-5.655,5.142c-0.257,1.713-0.514,3.428-0.771,5.142
			c-2.132,10.729,1.67,16.362,3.854,26.733c0.258,0.17,0.515,0.342,0.771,0.514c2.146-1.879,3.302-4.152,6.426-5.141
			c-2.088,1.937-4.226,3.555-5.655,6.168c1.625,3.194,4.711,7.985,7.969,9.512c0.832,0.481,0.775,0.387,1.286-0.771
			c0.171-0.086,0.343-0.172,0.514-0.258v2.312c6.736-1.778,8.855-10.076,12.082-15.68c5.884-10.226,10.101-21.834,14.652-33.158
			c17.639-43.904,35.015-89.65,49.354-137.522c3.444-11.5,5.011-22.379,7.968-33.93c1.028-5.055,2.058-10.111,3.084-15.166
			c-1.627-2.57-3.256-5.141-4.884-7.711c0.857,0.856,1.714,1.713,2.57,2.57c0.771,0.686,1.542,1.371,2.312,2.057h0.257
			c1.148-7.179,0.201-12.381-4.112-18.25c2.738,1.139,4.877,3.626,5.654,6.683c0.258,0.171,0.516,0.343,0.771,0.514
			c2.189-4.573-1.617-9.368-3.342-12.338c1.673,0.896,3.433,2.23,4.37,3.855c0.514,0.429,1.027,0.857,1.542,1.286
			C275.158,156.002,270.705,152.878,269.062,150.827z"/>
	</g>
</g>
</svg>
