<?xml version="1.0" encoding="UTF-8"?>
<!-- Created with Inkscape (http://www.inkscape.org/) -->
<svg width="136.06" height="140.27" version="1.1" viewBox="0 0 136.06 140.27" xmlns="http://www.w3.org/2000/svg">
  <g transform="matrix(1.3333 0 0 -1.3333 0 140.27)">
    <g transform="scale(.1)">
      <rect transform="scale(1,-1)" y="-1052" width="1020.5" height="1052" fill="#000001"/>
      <g stroke="#ffffff" stroke-linecap="round" stroke-linejoin="round" stroke-width="6.6614">
        <g fill="#ffffff" stroke="#ffffff" stroke-linecap="round" stroke-linejoin="round" stroke-width="3.8268">
          <path d="m425.51 725.27c-23.543-22.554-36.903-52.91-37.61-85.519-1.449-67.293 52.102-123.23 119.39-124.69 32.617-0.707 63.535 11.325 87.078 33.868 23.547 22.558 36.907 52.933 37.61 85.523 1.457 67.293-52.11 123.24-119.4 124.68-32.59 0.711-63.496-11.317-87.07-33.868zm81.953-202.14c-62.832 1.347-112.85 53.594-111.5 116.45 0.664 30.441 13.145 58.809 35.137 79.875 21.992 21.051 50.879 32.289 81.308 31.625 62.864-1.352 112.87-53.602 111.5-116.45-0.664-30.442-13.125-58.809-35.136-79.879-21.985-21.035-50.86-32.293-81.309-31.621"/>
          <path d="m395.89 756.22c-31.825-30.469-49.871-71.5-50.828-115.53-1.961-90.934 70.386-166.48 161.29-168.46 90.93-1.969 166.48 70.402 168.45 161.32 0.957 44.019-15.313 85.797-45.75 117.61-30.469 31.817-71.516 49.863-115.55 50.817-44.035 0.957-85.813-15.289-117.62-45.762zm110.61-277.31c-87.219 1.887-156.65 74.399-154.76 161.64 0.918 42.246 18.235 81.609 48.746 110.83 30.528 29.246 70.625 44.84 112.87 43.922 42.254-0.918 81.621-18.231 110.88-48.766 29.219-30.512 44.805-70.605 43.887-112.85-1.895-87.231-74.395-156.67-161.62-154.78"/>
        </g>
      </g>
      <g fill="#ffffff" stroke="#ffffff" stroke-linecap="round" stroke-linejoin="round" stroke-width="3.8268">
        <path d="m420.25 618.07c-1.477 1.18-2.07 3.418-1.477 5.536 0.696 2.492 2.766 4.183 5.52 4.566 3.535 0.477 6.465-0.563 8.457-2.988 3.301-4.067 3.601-11.379 0.762-19.543-5.176-14.856 0.339-22.801 2.949-25.524 2.082-2.183 4.59-3.394 6.062-2.937l0.188 0.039 0.019 0.195c0.137 0.918 1.25 3.258 1.973 4.602l0.098 0.164-0.137 0.156c-4.375 5.586-5.605 12.887-3.125 18.617 2.109 4.86 6.484 7.828 12.285 8.34 2.766 0.254 3.86-0.605 3.945-1.41 0.118-0.899-0.918-2-2.812-2.285-6.191-0.899-8.762-5.176-9.121-8.867-0.293-3.321 1.055-6.258 3.223-7 1.171-0.016 2.089 0.355 2.832 1.093l0.097 0.098-0.019 0.125c-0.118 1.621 0.605 3.527 1.699 4.449 0.683 0.571 1.465 0.762 2.285 0.551 3.406-0.855 3.652-3.473 3.594-4.551-0.117-2.504-1.914-4.785-4.004-5.097l-0.164-0.036-1.367-3.871c-1.536-4.215-3.274-9-2.746-11.797 0.332-1.875 1.191-3.105 2.402-3.476 1.055-0.328 2.258 0.074 3.301 1.117 1.406 1.395 2.129 4.426 2.968 7.926l0.352 1.445-0.02 0.063c-0.566 2.48-0.156 4.679 1.094 5.718 0.879 0.743 2.071 0.832 3.469 0.235 0.906-0.391 1.559-1.196 1.824-2.285 0.41-1.723-0.195-3.868-1.601-5.582l-0.059-0.063v-0.098c-0.156-1.578-0.52-3.261-0.879-4.898-0.508-2.348-1.008-4.57-0.781-6.355 0.156-1.184 0.84-2.032 1.992-2.395 1.484-0.473 3.418 0 4.395 1.07 1.035 1.145 1.984 5.95 2.949 11.184l0.703 3.476-0.117 0.129c-1.082 0.953-1.426 3-0.801 4.852 0.625 1.875 2.059 3.039 3.926 3.191 1.504 0.118 2.578-0.386 3.164-1.511 1.113-2.157 0.168-5.762-0.774-6.914l-0.105-0.11 0.058-0.152c0.84-3.184 0.442-6.672 0.118-9.485-0.262-2.316-0.489-4.312 0.039-5.539 0.547-1.273 1.843-2.211 3.476-2.484 1.692-0.289 3.34 0.211 4.336 1.305 1.114 1.25 0.879 3.152 0.637 5.39-0.234 1.965-0.481 4.215 8e-3 6.61l0.019 0.093-0.039 0.079c-0.937 2.304-0.886 4.57 0.125 6.214 0.637 1.036 1.594 1.68 2.629 1.754 1.66 0.125 2.805-0.187 3.418-0.949 1.27-1.547 0.332-4.75-0.41-7.305l-0.078-0.257c0.262-3.61 0.898-8.614 2.383-12.528 0.468-1.261 1.757-2.121 3.222-2.148 1.524-0.051 2.813 0.808 3.438 2.277 0.547 1.301-0.031 3.973-0.645 6.793-0.332 1.524-0.676 3.117-0.82 4.469-1.289 3.016-1.543 5.141-0.762 6.414 0.449 0.773 1.27 1.203 2.461 1.289 0.703 0.066 2.051 0 3.106-1.039 1.172-1.137 1.66-3.09 1.484-5.816 0-0.09 1.094-4.012 1.094-4.012 0.84-3.02 1.672-6.149 2.734-8.422 0.344-1.266 1.367-2.164 2.578-2.219 1.231-0.058 2.324 0.735 2.813 2.074 0.879 2.422-0.41 5.157-2.039 8.645l-0.813 1.707c-1.679 1.656-2.246 3.238-1.758 4.664 0.547 1.523 2.286 2.563 3.621 2.676 1.25 0.09 3-0.035 4.141-1.223 1.059-1.117 1.438-2.996 1.137-5.574l-0.031-0.051 1.582-5.047c0.586-1.972 1.074-3.687 1.582-4.886 0.527-1.223 1.589-2.043 2.988-2.266 1.34-0.231 2.656 0.172 3.437 1.027 1.036 1.145 0.286 2.7-0.566 4.504-0.547 1.121-1.152 2.371-1.426 3.715l-0.019 0.094-0.078 0.062c-1.719 1.68-2.442 3.825-1.856 5.469 0.41 1.145 1.375 1.824 2.754 1.941 1.719 0.125 3.027-0.226 3.848-1.05 0.91-0.895 1.308-2.34 1.179-4.34l-7e-3 -0.078 0.039-0.067c0.449-1.015 0.722-2.125 0.996-3.308 0.39-1.653 0.82-3.344 1.758-4.922 0.886-1.422 2.058-2.16 3.3-2.067 1.426 0.118 2.754 1.27 3.496 2.993 0.508 1.25-0.351 3.242-1.289 5.351-0.918 2.16-1.894 4.387-1.211 5.52 0.293 0.488 0.86 0.758 1.778 0.836 3.984 0.308 5.664-3.309 6.992-6.2 0.586-1.238 1.074-2.308 1.687-2.89 0.747-0.727 1.497-1.059 2.239-1.043 1.086 0.027 1.941 0.836 2.48 1.445 0.801 0.883 0.332 2.348-0.117 3.766-0.625 1.941-0.938 3.269 0.332 3.855 3.203 1.477 4.414 0.035 5.82-1.617 0.996-1.184 2.032-2.426 3.887-2.465 8.723-0.129 15.742 6.422 20.129 11.938 7.527 9.527 11.453 21.39 10.269 26.101l-0.027 0.117-0.098 0.063c-3.242 1.918-3.984 5.449-3.3 8.09 0.625 2.375 2.324 3.929 4.289 3.969 3.086 0.054 5.359-1.016 6.785-3.188 1.172-1.785 1.726-4.301 1.726-7.422 0-6.637-2.585-15.961-7.539-26.68-12.449-26.917-43.328-39.496-56.043-41.785-61.543-10.379-108.96 12.172-117.81 41.063-3.731 12.25-2.07 18.418 0.293 24.84 1.309 3.523 2.656 7.172 3.125 12.015l0.059 0.547-0.489-0.262c-2.91-1.543-5.422-1.668-7.07-0.332"/>
        <path d="m502.42 729.85c1.172 0.894 1.699 2.003 1.523 3.285-0.429 3.386 1.25 7.394 4.707 7.988 4.356 0.758 12.364-0.238 13.828-1.211 2.012-1.316 2.852-2.894 2.383-4.445-0.761-2.332-4.179-4.074-7.851-3.957-2.324 0.078-4.082-0.668-5.196-2.211-3.476-4.781 0.086-15.699 1.27-18.934 0.312-0.941 1.055-1.375 2.051-1.219-0.032 0 8.593 0.836 8.593 0.836 7.227 0.746 16.211 1.696 23.672 1.821-0.019 0 0.586 0.273 0.586 0.273l0.176 0.531c-0.137 1.692-1.152 6.071-1.582 6.989l-0.078 0.156-0.176 0.019c-1.738 0.157-5.051 1.219-6.953 3.52-1.152 1.363-1.621 2.984-1.453 4.801 0.476 3.117 4.949 4.863 8.777 4.679 4.512 0.067 8.098-1.242 9.551-3.496 1.152-1.769 1.035-4.121-0.312-6.961l-0.02-0.062v-0.063c0-2.394 1.133-7.066 1.934-8.683 0.293-0.578 1.132-0.668 1.289-0.684l1.269-0.082c2.383-0.137 5.36-0.32 10.879-1.687 1.641-0.422 3.242-2.41 3.035-4.719-0.73-7.875-2.027-12.406-3.816-18.691l-2-7.317c-0.07-0.293 0.027-0.789 0.398-0.922 5.227-1.883 11.25-5.062 11.094-7.836-0.164-2.246-0.84-2.933-1.25-3.16-0.32-0.164-0.684-0.16-1.016 0.02-3.144 1.793-7.871 2.965-9.414 3.258-0.254 0.058-0.703-0.223-0.781-0.489-0.559-1.879 0.156-4.316 0.977-7.136 0.937-3.18 2.011-6.79 1.484-10.5-0.547-4.04-2.109-8.825-3.254-12.313-0.769-2.391-1.336-4.117-1.324-4.797 0.027-1.898 0.074-2.012 1.172-2.836 0.769-0.59 2.215-1.695 4.793-4.601 9.394-10.571 1.699-25.688-3.907-36.723-1.953-3.844-3.652-7.18-4.316-9.691-0.43-1.7-3.887-3.684-8.184-4.711-4.25-1.016-7.773-0.762-9.011 0.636-0.266 0.286-0.364 0.661-0.317 1.106 0.129 1.019 1.028 2.215 2.453 3.219 2.266 1.57 4.551 2.332 8.008 3.496 0.469 0.16 0.782 0.515 0.789 0.941 2.934 15.082 4.883 27.914 1.379 43.777l-0.801 2.45c-0.625 1.66-1.289 3.382-1.21 6.132 0 0.957 0.234 2.278 0.507 3.805 0.918 5.317 2.325 13.332-1.543 22.477-0.957 1.461-2.734 2.039-4.621 1.535-1.636-0.43-3.347-1.731-3.465-3.645l-0.078-1.101c-0.547-7.77-1.132-16.578-5.254-24.75-2.304-4.571 0.059-6.403 2.364-8.18l0.144-0.101c8.293-6.418 6.914-20.696 1.25-31.477l-0.867-1.645c-1.16-2.105-2.461-4.511-3.555-7.57l-0.39-0.781c-1.867-2.77-6.121-4.793-11.426-5.457-3.711-0.449-6.465-4e-3 -7.156 0.648-0.305 0.332-0.422 0.789-0.356 1.313 0.188 1.375 1.574 2.965 2.864 3.84 1.855 1.257 4.394 2.695 9.062 3.761 0.078 0.012 0.82 0.207 1.055 1.039 5.5 15.864 0.605 30.496-1.758 34.797-2.195 4-1.895 6.211-1.27 10.598l0.43 3.172c0.898 6.383 2.781 19.691 3.535 28.387 0.039 0.32-0.234 0.828-0.715 0.878-1.511 0.172-5.203 0.461-6.648-0.714-1.008-0.821-1.133-4.028-1.309-8.461-0.332-8.743-0.8-20.7-8.203-21.911-2.246-0.371-4.375 0.235-6.308 1.782-4.727 3.773-8.184 13.289-8.809 24.207-0.637 10.773 1.074 24.179 5.02 27.957l0.371 0.347-0.489 0.141c-1.25 0.371-2.246 1.524-2.722 3.164-0.547 1.953-0.188 4.113 0.925 5.352l0.079 0.078v0.113c0 1.199-0.801 3.223-1.797 5.781-1.133 2.828-2.5 6.356-3.145 9.723-0.051 0.301-0.605 0.676-0.945 0.707l-2.356-0.016c-6.98-0.132-21.523-0.39-26.55 14.77-0.383 1.109 0.457 2.559 1.804 3.156 1.543 0.684 3.086-0.054 4.16-1.949 1.329-2.367 5.02-5.914 8.008-7.117 3.164-1.281 12.52-1.379 16.309 1.551zm8.777-57.379c-0.203-9.086 2.473-23.028 5.324-23.364 3.067-0.351 3.118 8.614 3.196 12.106 0.183 9.086-1.516 23.285-4.875 23.348-2.864 0.07-3.567-7.883-3.645-12.09zm11.379 29.144c-2.187-0.265-4.109-1.804-4.316-3.445-0.235-2.125-0.899-2.957-2.012-3.738l-0.566-0.403 0.671-0.136c5.833-1.129 7.063-5.665 7.981-8.981 0.469-1.762 0.852-3.715 1.816-4.086 2.266-0.867 6.446-0.937 9.063 0.059 1.191 0.453 1.797 3.031 1.582 4.738-0.391 4.559-1.934 13.898-1.934 13.898-0.508 1.95-2.773 2.59-4.133 2.649-1.179 0.023-3.523-0.035-8.152-0.555zm31.289 2.434c-3.73-0.117-8.515-0.582-9.316-2.434-1.438-3.371-0.41-16.512 2.402-18.168 3.242-1.902 10.996-1.808 13.184 0.313 1.718 1.656 2.707 11.168 2.707 15.832 0 1.269-0.11 2.261-0.383 2.75-0.625 1.273-5.059 1.824-8.594 1.707"/>
        <path d="m458.98 777.15-0.8-6.289-4.063-4.867 6.289-0.797 4.856-4.074 0.808 6.289 4.063 4.863-6.289 0.805-4.864 4.07"/>
        <path d="m576.66 504.66-5.117 3.742-6.328 0.375 3.73 5.141 0.391 6.332 5.105-3.754 6.329-0.41-3.719-5.105-0.391-6.321"/>
        <path d="m442.75 504.89 5.117 3.714 6.328 0.368-3.711 5.152-0.383 6.332-5.117-3.75-6.336-0.355 3.731-5.133 0.371-6.328"/>
        <path d="m407.73 532.1 6.446 7.562c2.929 3.449 7.617 3.192 12.09-0.609 4.511-3.844 5.507-8.453 2.578-11.891l-6.446-7.562c-0.8-0.938-0.839-1.45 0.215-2.36l-2.285-1.73-6.23 5.297 1.386 2.527c1.055-0.887 1.563-0.781 2.344 0.145l6.492 7.601c1.281 1.496 1.164 3.348-0.847 5.055-2.071 1.769-3.926 1.609-5.215 0.105l-6.485-7.597c-0.793-0.934-0.82-1.446 0.215-2.34l-2.285-1.731-5.684 4.832 1.348 2.559c1.055-0.906 1.563-0.789 2.363 0.137"/>
        <path d="m387.01 557.31 13.637 10.222 2.578-3.433-4.278-14.426c-0.293-0.996-1.074-2.578-1.074-2.578s1.231 1.14 1.836 1.613l6.023 4.5c0.95 0.707 1.125 1.199 0.305 2.309l2.598 1.222 4.121-5.484-1.875-2.188c-0.84 1.114-1.387 1.086-2.324 0.391l-10.039-7.52c-0.965-0.73-1.114-1.23-0.274-2.343l-2.637-1.188-3.691 4.918 3.867 13.117c0.313 1.024 1.121 2.625 1.121 2.625s-1.257-1.168-1.953-1.679l-5.125-3.836c-0.976-0.735-1.113-1.239-0.293-2.344l-2.601-1.223-4.117 5.504 1.89 2.172c0.832-1.117 1.336-1.09 2.305-0.351"/>
        <path d="m392.25 583.44 3.555-7.168-2.266-1.777c-0.625 1.246-1.152 1.324-2.226 0.801l-11.204-5.563c-1.105-0.547-1.339-1-0.718-2.25l-2.782-0.718-3.554 7.175 2.262 1.782c0.621-1.25 1.128-1.352 2.222-0.805l11.227 5.555c1.051 0.523 1.316 1.007 0.711 2.246l2.773 0.722"/>
        <path d="m366.81 604.9 18.437-1.665 1.621-5.507-14.605-11.309c-1.071-0.82-1.188-1.258-0.828-2.488l-2.887-0.207-2.25 7.64 2.531 1.403c0.352-1.094 0.801-1.25 1.727-0.586l7.062 5.316c1.18 0.821 3.656 2.004 3.656 2.004s-2.738-0.316-4.183-0.23l-8.875 0.859c-1.192 0.078-1.438-0.43-1.11-1.562l-2.863-0.223-2.012 6.801 2.536 1.367c0.375-1.274 0.699-1.496 2.043-1.613"/>
        <path d="m380.44 633.78 1.519-16.527-2.762-0.879c-0.125 1.398-0.586 1.66-1.769 1.555l-12.465-1.133c-1.211-0.109-1.617-0.465-1.481-1.856l-2.871 0.372-1.433 15.789 5.086 0.468 0.664-2.183c-1.645-0.391-1.992-0.879-1.774-3.266l0.332-3.66 5.172 0.469-0.312 3.312c-0.125 1.426-0.414 1.926-1.524 1.832l0.348 2.324 5.09 0.469 0.812-2.226c-1.152-0.118-1.359-0.645-1.215-2.071l0.297-3.324 5.614 0.512-0.465 5.082c-0.207 2.226-0.871 2.586-2.418 2.726l0.234 2.352 5.321-0.137"/>
        <path d="m382.75 662.76-0.715-6.328c-3.351-2.774-8.594 0.089-9.074-4.239l-0.285-2.554 4.066-0.453c1.184-0.137 1.653 0.097 1.809 1.48l2.738-0.91-0.879-7.875-2.867-0.309c0.156 1.422-0.262 1.735-1.434 1.879l-12.453 1.379c-1.168 0.148-1.652-0.121-1.804-1.504l-2.731 0.942 1.207 10.777c0.574 5.219 3.063 8.062 7.039 7.613 2.598-0.289 4.242-1.875 4.946-4.64 1.015 2.57 3.55 2.957 5.074 3.097 1.761 0.156 2.398 0.446 2.574 2.059l0.059 0.484zm-19.266-8.871-0.347-3.18 6.105-0.684 0.344 3.071c0.262 2.32-0.781 3.664-2.637 3.867-1.871 0.211-3.199-0.793-3.465-3.074"/>
        <path d="m387.18 676.53c-1.278-4.011-3.512-6.508-4.625-7.574l-4.047 2.539 0.597 1.856c2.555-0.02 4.157 2.027 4.84 4.136 0.524 1.621 0.297 3.567-1.422 4.121-1.484 0.473-2.503-0.437-4.179-3.582-1.66-3.234-4.34-6.132-8.496-4.797-4.028 1.293-5.153 5.645-3.688 10.239 1.141 3.511 2.996 5.953 4.028 7.008l3.82-2.43-0.59-1.828c-2.234-0.235-3.559-2.071-4.086-3.731-0.586-1.82-0.176-3.379 1.188-3.808 1.32-0.43 2.285 0.547 3.507 2.883 2.266 4.281 4.7 7.078 9.235 5.613 4.437-1.426 5.371-6.149 3.918-10.645"/>
        <path d="m396.69 699.56-3.661-7.129-2.773 0.769c0.625 1.239 0.371 1.715-0.664 2.258l-11.156 5.723c-1.086 0.547-1.594 0.468-2.227-0.778l-2.238 1.813 3.652 7.125 2.774-0.762c-0.629-1.234-0.395-1.711 0.679-2.277l11.153-5.707c1.035-0.531 1.589-0.453 2.226 0.769l2.235-1.804"/>
        <path d="m397.67 729.05c-1.32 0.68-2.133 0.742-3.457-1.074l-1.242-1.696 10.761-7.894c0.958-0.688 1.485-0.738 2.317 0.375l1.922-2.133-4.688-6.398-2.636 1.168c0.839 1.148 0.625 1.632-0.313 2.339l-10.781 7.899-1.227-1.692c-1.344-1.828-1.019-2.566 0.016-3.628l-1.735-1.579-3.929 3.618 11.316 15.461 4.68-2.641-1.004-2.125"/>
        <path d="m430 739.28-5.754-5.355-2.344 1.648c0.754 0.707 0.832 1.203-0.281 1.793l-1.555 0.781-5.593-5.218 0.664-1.614c0.488-1.214 1.062-1.054 1.875-0.296l1.504-2.465-4.969-4.625-2.356 1.648c0.918 0.856 1.055 1.324 0.528 2.535l-5.391 12.719c-0.344 0.781-0.848 1.023-1.848 0.09l-1.46 2.496 8.269 7.715 2.371-1.637c-1.004-0.953-0.879-1.402-0.074-1.793l12.371-6.289c1.145-0.601 1.609-0.547 2.551 0.328zm-18.281 3.481c-1.067 0.625-3.242 2.453-3.242 2.453s1.562-2.434 2.089-3.52l2.305-5.414 4.004 3.746-5.156 2.735"/>
        <path d="m441.99 746.65c-3.574-2.211-6.887-2.679-8.437-2.773l-1.414 4.562 1.636 1.02c1.946-1.664 4.485-1.148 6.379 0.027 1.446 0.903 2.539 2.512 1.582 4.051-0.82 1.332-2.207 1.289-5.508-0.016-3.359-1.386-7.285-1.855-9.57 1.836-2.226 3.606-0.273 7.641 3.836 10.192 3.125 1.937 6.106 2.601 7.578 2.738l1.34-4.332-1.621-1.004c-1.855 1.27-4.043 0.727-5.527-0.195-1.641-1.012-2.317-2.461-1.582-3.672 0.742-1.188 2.109-1.078 4.57-0.09 4.473 1.809 8.144 2.359 10.664-1.691 2.461-3.957 0.098-8.157-3.926-10.653"/>
        <path d="m502.22 775.01c-1.457-0.195-1.692-0.684-1.555-1.817l0.227-1.656c0.156-1.097 0.425-1.347 1.16-1.254l-0.196-2.722c-3.046-0.618-3.574-1.95-8.222-2.579-6.231-0.851-11.922 1.473-12.988 9.403-0.997 7.273 3.25 11.601 10.019 12.519 4.082 0.547 7.227-0.644 8.574-1.203l-0.578-4.918-1.863-0.25c-0.918 2.153-2.91 2.801-5.098 2.504-3.894-0.527-5.664-3.008-5.019-7.871 0.664-4.898 2.734-6.785 6.582-6.277 0.91 0.129 2.051 0.562 2.656 0.996l-0.352 2.617c-0.156 1.137-0.488 1.547-1.972 1.352l-0.371-0.055 0.195 2.871 8.203 1.109 0.977-2.711-0.379-0.058"/>
        <path d="m520.39 765.57c-6.465 0.528-10.75 3.875-10.098 11.918 0.645 8.043 5.43 10.661 11.887 10.137 6.55-0.527 10.781-3.871 10.125-11.91-0.645-8.047-5.364-10.676-11.914-10.145zm1.464 18.172c-3.32 0.266-5.07-1.445-5.5-6.75-0.425-5.3 1.028-7.269 4.348-7.539 3.399-0.269 5.078 1.442 5.508 6.75 0.422 5.309-0.957 7.266-4.356 7.539"/>
        <path d="m555.82 774.79c0.137 1.484-0.078 2.262-2.265 2.855l-2.012 0.559-3.516-12.891c-0.3-1.144-0.156-1.652 1.172-2.023l-1.289-2.559-7.676 2.086 0.149 2.887c1.363-0.371 1.765-0.016 2.078 1.129l3.516 12.883-2.032 0.554c-2.168 0.594-2.734 0.032-3.371-1.32l-2.097 1.051 1.972 4.98 18.496-5.054-0.793-5.301-2.332 0.164"/>
        <path d="m578.22 747.39-7.071 3.593 0.711 2.789c1.282-0.644 1.75-0.363 2.27 0.692l2.183 4.273-7.234 3.672-2.168-4.277c-0.527-1.051-0.508-1.578 0.742-2.207l-1.816-2.246-7.063 3.601 0.743 2.793c1.261-0.652 1.718-0.375 2.238 0.68l5.691 11.164c0.547 1.082 0.5 1.582-0.777 2.23l1.836 2.231 7.066-3.606-0.738-2.773c-1.242 0.633-1.691 0.379-2.238-0.695l-1.758-3.446 7.226-3.683 1.758 3.449c0.547 1.078 0.489 1.59-0.781 2.23l1.836 2.227 7.07-3.609-0.761-2.774c-1.25 0.637-1.68 0.387-2.227-0.699l-5.684-11.156c-0.547-1.055-0.488-1.586 0.743-2.207l-1.797-2.246"/>
        <path d="m591.78 736.68c-5 4.109-6.629 9.312-1.512 15.539 5.137 6.234 10.567 5.648 15.547 1.539 5.098-4.18 6.66-9.348 1.524-15.57-5.137-6.227-10.489-5.688-15.559-1.508zm11.567 14.066c-2.571 2.121-4.973 1.723-8.352-2.383-3.398-4.121-3.32-6.558-0.742-8.672 2.617-2.168 4.98-1.73 8.359 2.387s3.36 6.504 0.735 8.668"/>
        <path d="m611.52 717-6.582 8.18 1.797 2.25c0.879-1.078 1.426-1.039 2.356-0.301l9.754 7.859c0.937 0.762 1.054 1.262 0.195 2.348l2.59 1.269 6.16-7.636c3.301-4.106 3.691-7.641 0.781-10-1.367-1.094-3.574-1.121-5.215-0.297 1.016-2.664 0.196-5.024-1.648-6.504-3.117-2.52-6.887-1.262-10.188 2.832zm5.079 8.773-4.825-3.886 1.934-2.375c1.465-1.817 3.125-1.946 4.59-0.762 1.445 1.145 1.621 2.902 0.129 4.773zm2.695 2.157 1.594-1.992c1.355-1.668 2.781-1.77 3.972-0.782 1.211 0.961 1.426 2.235 0.059 3.953l-1.66 2.032-3.965-3.211"/>
        <path d="m644.65 694.84-8.867-4.524c-4.023-2.066-8.261-0.043-10.937 5.196-2.676 5.269-1.856 9.906 2.176 11.957l8.878 4.527c1.075 0.551 1.29 1.02 0.665 2.262l2.8 0.726 3.723-7.285-2.246-1.805c-0.645 1.239-1.133 1.321-2.227 0.77l-8.894-4.531c-1.77-0.903-2.356-2.653-1.145-5.008 1.211-2.418 2.989-3 4.746-2.098l8.907 4.543c1.086 0.551 1.308 1.02 0.683 2.231l2.793 0.758 3.399-6.676-2.227-1.824c-0.625 1.238-1.145 1.328-2.227 0.781"/>
        <path d="m637.73 659.4-1.613 6.157c2.121 3.793 8.051 3.015 6.945 7.226l-0.664 2.481-3.972-1.043c-1.145-0.301-1.496-0.688-1.145-2.028l-2.871-0.156-2.031 7.676 2.566 1.316c0.364-1.371 0.864-1.527 2.004-1.222l12.11 3.195c1.152 0.309 1.484 0.719 1.152 2.066l2.871 0.114 2.773-10.489c1.36-5.078 0.059-8.625-3.808-9.64-2.52-0.668-4.629 0.222-6.289 2.547-0.02-2.785-2.227-4.055-3.614-4.739-1.582-0.785-2.07-1.257-1.64-2.847l0.117-0.469zm14.754 15.231-0.808 3.094-5.95-1.567 0.793-3c0.586-2.25 2.051-3.129 3.868-2.648 1.816 0.484 2.695 1.902 2.097 4.121"/>
        <path d="m647.99 633.07c-0.078 1.454-0.527 1.75-1.679 1.688l-1.661-0.082c-1.113-0.055-1.386-0.309-1.367-1.039l-2.695 0.43c-0.352 3.07-1.641 3.714-1.875 8.398-0.313 6.297 2.5 11.746 10.469 12.148 7.343 0.36 11.281-4.218 11.633-11.066 0.195-4.094-1.25-7.125-1.926-8.406l-4.844 0.968-0.098 1.883c2.227 0.731 3.047 2.664 2.93 4.887-0.195 3.922-2.52 5.895-7.422 5.648-4.933-0.238-6.992-2.148-6.816-6 0.051-0.945 0.39-2.117 0.781-2.757l2.629 0.136c1.141 0.047 1.59 0.352 1.519 1.844l-0.027 0.387 2.852-0.453 0.41-8.27-2.793-0.726-0.02 0.382"/>
        <path d="m636.39 608.91 2.5 16.399 2.871 0.195c-0.215-1.367 0.195-1.75 1.367-1.938l12.371-1.882c1.215-0.196 1.672 0.058 1.887 1.425l2.676-1.035-2.383-15.683-5.039 0.777-0.117 2.269c1.66-7e-3 2.121 0.375 2.48 2.747l0.566 3.644-5.136 0.785-0.489-3.304c-0.234-1.411-0.058-1.961 1.055-2.133l-0.918-2.184-5.051 0.777-0.242 2.36c1.145-0.172 1.445 0.301 1.68 1.707l0.488 3.308-5.566 0.848-0.774-5.055c-0.34-2.203 0.227-2.707 1.692-3.207l-0.782-2.234-5.136 1.414"/>
        <path d="m643.34 576.4-15.938 6.015 1.504 3.996 14.453 4.141c0.996 0.297 2.754 0.484 2.754 0.484s-1.64 0.434-2.343 0.696l-7.032 2.656c-1.093 0.414-1.621 0.312-2.109-0.985l-2.441 1.551 2.421 6.406 2.852-0.406c-0.488-1.293-0.176-1.754 0.937-2.172l11.707-4.422c1.145-0.429 1.653-0.281 2.141 1.02l2.422-1.574-2.188-5.766-13.144-3.789c-1.023-0.273-2.793-0.449-2.793-0.449s1.641-0.438 2.441-0.746l6.004-2.266c1.133-0.43 1.645-0.273 2.121 1.02l2.442-1.547-2.442-6.445-2.832 0.433c0.489 1.309 0.196 1.719-0.937 2.149"/>
        <path d="m619.04 568.48c2.246 3.562 5.02 5.418 6.379 6.179l3.277-3.476-1.023-1.641c-2.481 0.656-4.551-0.922-5.742-2.812-0.918-1.442-1.172-3.36 0.363-4.332 1.297-0.832 2.527-0.2 4.93 2.433 2.421 2.723 5.742 4.848 9.414 2.539 3.593-2.277 3.613-6.769 1.015-10.844-1.965-3.125-4.355-5.027-5.625-5.785l-3.086 3.297 1.004 1.625c2.239-0.336 3.977 1.11 4.895 2.594 1.015 1.617 1.015 3.219-0.176 3.984-1.199 0.754-2.363 0.067-4.141-1.902-3.261-3.594-6.308-5.703-10.351-3.16-3.938 2.496-3.653 7.301-1.133 11.301"/>
        <path d="m603.87 548.27 5.332 5.972 2.5-1.429c-0.918-1.043-0.801-1.575 0.078-2.36l9.356-8.32c0.918-0.797 1.433-0.848 2.363 0.183l1.699-2.308-5.324-5.973-2.488 1.418c0.937 1.055 0.808 1.551-0.086 2.367l-9.348 8.325c-0.898 0.781-1.433 0.843-2.363-0.196l-1.719 2.321"/>
        <path d="m590.57 536.55c3.281 2.64 6.516 3.484 8.02 3.75l1.98-4.336-1.519-1.211c-2.114 1.418-4.582 0.598-6.321-0.797-1.328-1.059-2.226-2.797-1.074-4.203 0.957-1.231 2.317-1.031 5.469 0.684 3.144 1.773 6.992 2.714 9.726-0.684 2.637-3.309 1.192-7.555-2.578-10.574-2.871-2.305-5.761-3.313-7.214-3.625l-1.848 4.121 1.504 1.207c1.98-1.039 4.101-0.235 5.449 0.859 1.484 1.188 2.012 2.719 1.133 3.828-0.879 1.094-2.227 0.821-4.551-0.465-4.238-2.324-7.812-3.32-10.789 0.403-2.922 3.64-1.086 8.074 2.613 11.043"/>
        <path d="m475.18 489.43-10.664 3.047 0.215 2.918 1.367-0.403c1.406-0.406 1.867-0.093 2.187 1.039l3.106 10.875c-0.762-0.406-2.032-0.566-4.219-0.211l0.898 3.153c2.325-0.09 3.731 0.156 6.133 2.316l4.356-1.234-4.727-16.488c-0.32-1.129-0.039-1.653 1.348-2.043l1.367-0.391-1.367-2.578"/>
        <path d="m495.54 485.78c-5.887 0.543-9.414 3.254-9.07 6.821 0.293 3.089 2.91 4.586 5.762 5.507-2.317 1.332-4.258 2.993-4.024 5.446 0.274 3.136 3.945 4.968 9.414 4.465 5.235-0.508 8.653-2.997 8.34-6.137-0.234-2.457-2.41-3.723-4.941-4.61 2.617-1.425 4.922-3.394 4.636-6.468-0.339-3.567-4.414-5.563-10.117-5.024zm0.949 10.106c-2.39-0.86-4.14-2.051-4.296-3.817-0.157-1.562 1.347-2.863 3.652-3.062 2.207-0.223 4.004 0.726 4.18 2.277 0.156 1.801-1.387 3.313-3.536 4.602zm0.84 8.902c-1.933 0.184-3.301-0.504-3.429-1.848-0.125-1.378 1.046-2.578 2.902-3.621 1.953 0.688 3.34 1.641 3.476 3.032 0.137 1.343-1.113 2.269-2.949 2.437"/>
        <path d="m522.52 485.7c-1.426-0.129-4.141 0.09-5.079 0.664l-0.293 3.063c1.036-0.285 2.559-0.418 3.907-0.297 3.808 0.371 6.008 2.285 6.484 6.078-0.684-1.156-2.695-2.25-4.785-2.465-5.254-0.488-8.516 2.266-8.926 6.621-0.43 4.473 2.793 8.008 8.43 8.539 6.551 0.637 9.969-3.304 10.515-8.945 0.645-6.746-2.304-12.488-10.253-13.258zm0.078 18.883c-2.598-0.246-3.907-2.082-3.66-4.73 0.242-2.442 1.714-3.946 4.175-3.707 2.239 0.207 4.192 1.808 3.918 4.644-0.176 1.867-1.406 4.078-4.433 3.793"/>
        <path d="m556.15 492.46-10.742-2.828-1.289 2.594 1.375 0.375c1.406 0.375 1.633 0.859 1.328 1.996l-2.879 10.937c-0.468-0.722-1.457-1.539-3.523-2.336l-0.832 3.164c2.043 1.121 3.137 2.047 4.07 5.145l4.387 1.148 4.375-16.574c0.305-1.137 0.801-1.449 2.187-1.074l1.387 0.355 0.156-2.902"/>
        <path d="m498.91 667.86c-1.023 12.477-13.066 29.098-30.051 31.91-18.445 3.067-45.261-4.793-48.367-31.91-3.222-28.043 16.817-47.254 42.598-45.281 27.969 2.152 37.285 27.641 35.82 45.281zm-15.898-19.34c1.504 0.129 4.668-0.632 5.488-2.71 0.899-2.25-5.605-9.36-8.476-10.176-1.778-0.512-4.793 2.761-4.297 5.386 0.293 1.704 6.054 7.383 7.285 7.5zm9.48 8.379c-1.453-0.976-4.422-0.871-5.586 0.903-0.808 1.207-1.14 10.543-0.593 11.886 0.546 1.372 4.074 2.329 5.781 1.391 1.953-1.074 2.773-12.598 0.398-14.18zm-5.086 23.672c-0.332-1.734-3.359-2.738-4.589-2.597-1.524 0.168-8.399 5.523-8.79 7.285-0.546 2.308 1.204 4.023 2.696 4.406 3.984 0.984 11.152-6.629 10.683-9.094zm-22.07 12.981c0.566-1.258 1.289-3.328-0.027-4.774-1.086-1.199-11.223-2.074-12.688-1.976-3.125 0.195-4.297 3.925-3.281 5.527 1.875 2.902 14.91 3.547 15.996 1.223zm8.691-18.309c0-2.66-9.941-7.855-11.796-6.762-2.707 1.598-8.575 10.528-7.43 11.954 4.012 4.96 19.226-0.997 19.226-5.192zm-26.132 2.422c1.679 0.266 6.945-8.828 5.918-12.023-0.86-2.707-11.243-7.102-12.266-6.067-3.125 3.125-1.563 16.879 6.348 18.09zm-2.598-26.133c0 2.156 9.043 7.903 12.344 6.672 2.656-0.992 7.539-12.285 4.98-13.449-6.101-2.797-17.324 2.789-17.324 6.777zm27.004-2.324c-2.453 1.055-9.426 10.32-7.16 12.586 2.121 2.137 11.816 7.101 13.254 5.769 5.547-5.16-1.282-20.464-6.094-18.355zm-36.32 25.836c-2.344-1.172-5.762 1.031-6.016 3.922-0.234 2.898 6.875 9.644 9.355 8.969 1.211-0.333 3.36-3.145 3.164-5.196-0.136-1.426-5.117-7.012-6.503-7.695zm-2.122-19.641c-1.296-1.558-4.753-2.426-6.16-1.297-2.121 1.711-2.773 8.672-1.386 11.645 0.937 2.004 6.347 3.008 7.265 0.734 0.606-1.574 1.27-9.937 0.281-11.082zm-2.039-12.176c-0.175 2.227 3.25 5.157 5.547 4.688 1.856-0.391 7.825-6.676 8.086-8.098 0.489-2.593-1.992-5.105-3.738-5.238-2.688-0.184-9.699 6.211-9.895 8.648zm21.805-12.519c-1.863 1.035-0.633 5.898 2.07 6.312 1.887 0.305 8.645 0.989 10.872 0 1.738-0.742 3.105-5.179 2.136-6.253-1.844-2.036-12.41-1.524-15.078-0.059"/>
        <path d="m185.04 364.71c0 23.437 15.828 37.23 36.688 37.23 7.918 0 12.511-1.289 16.578-2.464l3.531 3.109h1.602l0.75-23.438h-2.246c-5.344 14.336-12.946 18.403-20.86 18.403-12.406 0-24.492-9.313-24.492-31.762 0-17.551 8.769-33.473 26.961-33.473 5.242 0 10.91 1.485 10.91 3.192 0 3.644 0.109 13.383-0.223 21.609l-0.421 0.434-10.489 0.543v3.613h29.957v-3.613l-7.711-0.543-0.429-0.434c-0.215-6.836-0.328-14.531-0.215-22.773-1.278-2.676-11.543-6.848-22.36-6.848-21.804 0-37.531 13.582-37.531 37.215"/>
        <path d="m265.02 363.64c0 24.285 14.879 38.296 33.809 38.296 21.285 0 33.578-14.992 33.578-36.152 0-24.281-14.859-38.293-33.793-38.293-21.281 0-33.594 14.973-33.594 36.149zm55.84 1.066c0 21.613-8.445 32.422-22.031 32.422-13.59 0-22.246-10.809-22.246-32.422 0-21.598 8.441-32.395 22.031-32.395 13.586 0 22.246 10.797 22.246 32.395zm-37.867 49.531c0 3.414 2.145 6.098 5.777 6.098 3.434 0 5.563-2.254 5.563-5.668 0-3.434-2.242-6.106-5.883-6.106-3.312 0-5.457 2.254-5.457 5.676zm20.012 0c0 3.414 2.133 6.098 5.765 6.098 3.43 0 5.575-2.254 5.575-5.668 0-3.434-2.258-6.106-5.887-6.106-3.32 0-5.453 2.254-5.453 5.676"/>
        <path d="m354.66 332.21 11.441 0.531 0.422 0.418c0.114 3.973 0.332 17.766 0.332 32.199 0 14.434 0 26.321-0.332 30.055l-0.332 0.531h-12.715c-2.234 0-4.917-3.847-9.3-16.797h-2.129l0.844 23.438h1.925l3.102-1.816h48.023l3.098 1.816h1.934l0.859-23.438h-2.148c-4.485 13.063-7.051 16.797-9.297 16.797h-12.731l-0.332-0.531c-0.098-2.574-0.312-17.004-0.312-31.457 0-14.437 0.214-26.937 0.312-30.797l0.438-0.418 11.754-0.531v-3.656h-34.856v3.656"/>
        <path d="m414.65 332.21 10.489 0.531 0.437 0.418c0.09 4.926 0.317 17.766 0.317 32.199 0 14.434-0.227 26.524-0.317 30.797l-0.437 0.43-10.489 0.547v3.637h46.954l4.179 1.816h1.602l0.762-23.438h-2.137c-3.867 10.813-7.297 16.153-9.094 16.266l-20.234 1.078-0.313-0.547c-0.097-4.906-0.312-16.269-0.312-28.238 4.804 0 15.293 0.328 18.066 0.531l0.43 0.442 3.847 7.48h2.032c-0.098-2.988-0.196-7.594-0.196-10.488 0-2.774 0.098-8.762 0.196-11.961h-2.032l-3.847 8.855-0.43 0.442c-3.308 0.101-12.832 0.301-18.066 0.301 0-13.571 0.215-24.473 0.312-29.926l0.313-0.531 21.836 1.16c1.816 0.117 6.621 4.511 10.488 17.121h2.461c-1.406-20.848-1.719-22.578-3.535-22.578h-53.282v3.656"/>
        <path d="m484.28 332.21 10.481 0.531 0.429 0.418c0.11 3.75 0.313 17.766 0.313 32.199 0 14.434-0.203 26.098-0.313 30.797l-0.429 0.43-10.481 0.547v3.637c7.922 0 17.024 0.207 23.32 0.207 7.805 0 13.801-0.657 18.625-2.141 8.438-2.68 13.575-8.125 13.575-15.938 0-9.187-6.106-14.66-13.047-16.363v-0.219c11.328-0.527 18.066-7.168 18.066-15.824 0-14.543-13.047-22.144-33.789-22.144-6.953 0-18.183 0.207-26.75 0.207zm28.137 35.719c12.605 0 15.84 5.984 15.84 14.23 0 5.66-2.032 9.938-6.438 12.188-2.769 1.496-6.726 2.343-12.613 2.343-0.52 0-1.711 0-2.773-0.105l-0.43-0.52c-0.11-5.574-0.434-16.043-0.324-28.136zm20.859-18.828c0 10.156-6.965 14.113-16.379 14.113h-11.218c-0.11-13.578 0.214-24.379 0.324-30.055l0.515-0.418c2.051-0.129 3.973-0.129 5.254-0.129 14.453 0 21.504 6.008 21.504 16.489"/>
        <path d="m559.8 363.64c0 24.285 14.863 38.296 33.789 38.296 21.289 0 33.574-14.992 33.574-36.152 0-24.281-14.844-38.293-33.789-38.293-21.277 0-33.574 14.973-33.574 36.149zm55.82 1.066c0 21.613-8.437 32.422-22.031 32.422-13.574 0-22.246-10.809-22.246-32.422 0-21.598 8.457-32.395 22.031-32.395s22.246 10.797 22.246 32.395"/>
        <path d="m637.88 332.21 10.691 0.531 0.442 0.418c0.086 3.113 0.3 17.766 0.3 32.199 0 14.434-0.214 25.993-0.3 30.797l-0.442 0.43-10.691 0.547v3.637c9.617 0 19.89 0.207 25.347 0.207 8.45 0 13.364-0.536 17.336-1.719 10.254-3.102 14.747-9.727 14.747-17.004 0-10.586-7.161-15.613-15.938-18.391v-0.218c2.773-3.207 7.598-11.981 13.809-22.891 2.656-4.715 5.234-8.227 8.75-8.438l2.351-0.105v-3.656h-16.043l-0.41 0.441c-3.977 8.024-6.758 14.543-13.496 26.535-1.375 2.446-2.656 4.477-4.27 6.305-3.836-0.551-7.488-0.754-10.593-0.754-0.078-12.734 0.234-24.707 0.332-27.922l0.429-0.418 9.832-0.531v-3.656h-32.183zm45.887 49.949c0 5.875-2.571 10.25-7.383 12.5-2.676 1.285-5.996 2.031-12.735 2.031h-3.515l-0.332-0.312c-0.098-4.609-0.215-18.606-0.332-31.121 18.613 0.531 24.297 6.512 24.297 16.902"/>
        <path d="m712.32 364.71c0 23.437 15.821 37.23 36.68 37.23 7.93 0 12.519-1.289 16.57-2.464l3.528 3.109h1.621l0.742-23.438h-2.246c-5.352 14.336-12.949 18.403-20.86 18.403-12.421 0-24.492-9.313-24.492-31.762 0-17.551 8.77-33.473 26.953-33.473 5.254 0 10.918 1.485 10.918 3.192 0 3.644 0.117 13.383-0.215 21.609l-0.449 0.434-10.461 0.543v3.613h29.934v-3.613l-7.695-0.543-0.43-0.434c-0.215-6.836-0.32-14.531-0.215-22.773-1.277-2.676-11.543-6.848-22.344-6.848-21.828 0-37.539 13.582-37.539 37.215"/>
        <path d="m791.78 351.13h2.461c3.75-13.582 9.844-19.262 17.325-19.262 8.781 0 14.335 5.887 14.335 13.586 0 18.613-32.832 13.906-32.832 37.441 0 9.942 7.813 19.043 21.387 19.043 6.953 0 12.52-2.136 13.692-2.464l3.203 3.109h2.031l0.644-23.438h-2.246c-4.492 13.063-10.371 18.403-17.644 18.403-6.32 0-11.762-4.168-11.762-11.227 0-17.863 33.391-15.086 33.391-37.652 0-10.809-8.145-21.176-24.844-21.176-4.59 0-10.039 1.059-14.758 4.172l-2.117-4.172h-2.266v23.637"/>
        <path d="m146.05 228.27c0 4.062 0.105 6.507 0.105 17.093 0 8.473-0.105 15.196-0.218 24.821l-0.426 0.429-10.27 0.547v3.633h30.598v-3.633l-8.668-0.547-0.426-0.429c-0.101-8.024-0.215-25.332-0.215-41.489 0-13.472 3.102-22.574 17.324-22.574 14.868 0 19.149 8.668 19.149 24.606 0 13.894-0.215 28.972-0.426 39.457l-0.43 0.429-9.843 0.547v3.633h28.355v-3.633l-10.488-0.547-0.422-0.429c-0.324-11.446-0.324-27.164-0.219-40.418 0.098-18.403-8.562-28.243-26.519-28.243-17.657 0-26.961 9.11-26.961 26.747"/>
        <path d="m220.28 206.22 10.477 0.543 0.437 0.429c0.313 11.45 0.313 19.899 0.313 30.59 0 10.699 0 16.578-0.313 32.399l-0.437 0.429-10.477 0.547v3.633h20.43c13.047-18.285 27.914-39.68 38.609-54.977h0.211c-0.211 20.536-0.425 39.883-0.636 50.368l-0.43 0.429-9.84 0.547v3.633h28.348v-3.633l-10.492-0.547-0.422-0.429c-0.325-11.446-0.325-19.883-0.325-46.723v-21.406h-5.242c-13.258 18.816-29.097 40.965-42.566 60.218h-0.207c0.101-25.035 0.43-44.375 0.637-55.078l0.421-0.429 9.86-0.543v-3.633h-28.356v3.633"/>
        <path d="m309.8 206.22 10.476 0.543 0.434 0.429c0.215 3.321 0.324 17.766 0.324 32.203 0 14.438-0.109 27.153-0.324 30.786l-0.434 0.429-10.476 0.547v3.633h32.516v-3.633l-10.375-0.547-0.43-0.429c-0.207-2.879-0.32-17.75-0.32-32.188 0-14.433 0.207-27.168 0.32-30.801l0.43-0.429 10.375-0.543v-3.633h-32.516v3.633"/>
        <path d="m357.82 270.83-6.418 0.328v3.633h28.024v-3.633l-9.52-0.433-0.437-0.426c6-15.508 13.054-34.235 20.121-52.293h0.215c5.234 14.543 14.336 40.414 17.871 52.406l-0.332 0.313-8.672 0.433v3.633h23.652v-3.633l-6.211-0.328c-5.566-14.125-18.398-47.371-26.855-69.309h-2.887c-11.019 26.747-20.527 50.051-28.551 69.309"/>
        <path d="m430.33 206.22 10.481 0.543 0.425 0.429c0.11 4.922 0.325 17.766 0.325 32.203 0 14.438-0.215 26.508-0.325 30.786l-0.425 0.429-10.481 0.547v3.633h46.953l4.16 1.809h1.621l0.743-23.414h-2.137c-3.867 10.804-7.27 16.148-9.094 16.261l-20.215 1.071-0.312-0.536c-0.117-4.921-0.332-16.261-0.332-28.226 4.824 0 15.293 0.312 18.066 0.531l0.43 0.414 3.848 7.492h2.05c-0.105-3-0.215-7.593-0.215-10.48 0-2.789 0.11-8.777 0.215-11.992h-2.05l-3.848 8.879-0.43 0.437c-3.301 0.109-12.832 0.328-18.066 0.328 0-13.609 0.215-24.515 0.332-29.972l0.312-0.512 21.817 1.172c1.828 0.097 6.621 4.48 10.488 17.109h2.461c-1.387-20.844-1.719-22.574-3.535-22.574h-53.262v3.633"/>
        <path d="m499.95 206.22 10.703 0.543 0.434 0.429c0.113 3.102 0.309 17.766 0.309 32.203 0 14.438-0.196 25.993-0.309 30.786l-0.434 0.429-10.703 0.547v3.633c9.641 0 19.914 0.215 25.356 0.215 8.445 0 13.386-0.543 17.332-1.715 10.273-3.109 14.765-9.727 14.765-17.008 0-10.586-7.175-15.625-15.937-18.394v-0.211c2.781-3.215 7.59-11.989 13.789-22.891 2.676-4.703 5.254-8.242 8.762-8.437l2.371-0.129v-3.633h-16.043l-0.442 0.441c-3.945 8.024-6.718 14.535-13.457 26.524-1.386 2.445-2.695 4.48-4.297 6.312-3.847-0.543-7.48-0.754-10.585-0.754-0.098-12.722 0.222-24.711 0.312-27.918l0.449-0.429 9.824-0.543v-3.633h-32.199zm45.903 49.949c0 5.887-2.571 10.281-7.375 12.523-2.696 1.289-5.997 2.032-12.735 2.032h-3.535l-0.332-0.313c-0.09-4.594-0.195-18.629-0.312-31.144 18.613 0.546 24.289 6.535 24.289 16.902"/>
        <path d="m578.14 225.16h2.46c3.731-13.578 9.825-19.266 17.325-19.266 8.769 0 14.316 5.887 14.316 13.59 0 18.61-32.812 13.91-32.812 37.438 0 9.937 7.793 19.039 21.386 19.039 6.953 0 12.52-2.129 13.692-2.461l3.203 3.098h2.031l0.645-23.414h-2.239c-4.5 13.046-10.379 18.398-17.656 18.398-6.316 0-11.766-4.176-11.766-11.234 0-17.864 33.379-15.079 33.379-37.649 0-10.793-8.132-21.18-24.812-21.18-4.602 0-10.07 1.067-14.77 4.168l-2.136-4.168h-2.246v23.641"/>
        <path d="m637.6 206.22 10.5 0.543 0.411 0.429c0.222 3.321 0.332 17.766 0.332 32.203 0 14.438-0.11 27.153-0.332 30.786l-0.411 0.429-10.5 0.547v3.633h32.532v-3.633l-10.391-0.547-0.43-0.429c-0.214-2.879-0.312-17.75-0.312-32.188 0-14.433 0.234-27.168 0.312-30.801l0.43-0.429 10.391-0.543v-3.633h-32.532v3.633"/>
        <path d="m695.59 206.22 11.434 0.543 0.421 0.429c0.118 3.965 0.332 17.766 0.332 32.203 0 14.438 0 26.313-0.332 30.051l-0.312 0.535h-12.727c-2.254 0-4.922-3.851-9.304-16.796h-2.137l0.848 23.414h1.921l3.098-1.809h48.035l3.098 1.809h1.934l0.839-23.414h-2.129c-4.492 13.046-7.05 16.796-9.296 16.796h-12.735l-0.332-0.535c-0.117-2.586-0.32-17.015-0.32-31.453 0-14.433 0.203-26.941 0.32-30.801l0.43-0.429 11.777-0.543v-3.633h-34.863v3.633"/>
        <path d="m755.57 206.22 10.481 0.543 0.429 0.429c0.11 4.922 0.332 17.766 0.332 32.203 0 14.438-0.222 26.508-0.332 30.786l-0.429 0.429-10.481 0.547v3.633h46.965l4.172 1.809h1.602l0.742-23.414h-2.141c-3.848 10.804-7.266 16.148-9.082 16.261l-20.215 1.071-0.312-0.536c-0.117-4.921-0.332-16.261-0.332-28.226 4.812 0 15.293 0.312 18.066 0.531l0.449 0.414 3.828 7.492h2.032c-0.098-3-0.196-7.593-0.196-10.48 0-2.789 0.098-8.777 0.196-11.992h-2.032l-3.828 8.879-0.449 0.437c-3.301 0.109-12.82 0.328-18.066 0.328 0-13.609 0.215-24.515 0.332-29.972l0.312-0.512 21.817 1.172c1.816 0.097 6.64 4.48 10.476 17.109h2.461c-1.394-20.844-1.719-22.574-3.523-22.574h-53.274v3.633"/>
        <path d="m837.83 206.22 11.426 0.543 0.43 0.429c0.117 3.965 0.332 17.766 0.332 32.203 0 14.438 0 26.313-0.332 30.051l-0.293 0.535h-12.735c-2.246 0-4.922-3.851-9.324-16.796h-2.141l0.852 23.414h1.949l3.078-1.809h48.028l3.105 1.809h1.934l0.859-23.414h-2.129c-4.512 13.046-7.09 16.796-9.316 16.796h-12.735l-0.324-0.535c-0.105-2.586-0.32-17.015-0.32-31.453 0-14.433 0.215-26.941 0.32-30.801l0.442-0.429 11.757-0.543v-3.633h-34.863v3.633"/>
      </g>
    </g>
  </g>
</svg>
