<?xml version="1.0" encoding="UTF-8"?>
<!-- Created with Inkscape (http://www.inkscape.org/) -->
<svg width="21.452mm" height="10.839mm" version="1.1" viewBox="0 0 21.452 10.839" xml:space="preserve"
  xmlns="http://www.w3.org/2000/svg">
  <g transform="translate(-37.707 -56.81)">
    <path
      d="m49.547 67.637c-0.82127-0.20932-1.1953-1.1166-1.3813-1.8569-0.18356-0.70428 1.5561-0.98507 0.39221-0.83931-1.0674 0.18072-2.3574-0.52305-3.0352 0.59416-0.58986 0.65776-1.7829 1.1014-2.0486-0.06177-0.41899-0.61833-0.60952-1.4263 0.42122-1.4425 0.26375-0.32838-0.99326-0.37008-1.317-0.42633-1.0363-0.11474-1.7688 0.72687-2.6429 1.1199-0.63327 0.33256-1.2864 0.63918-1.9687 0.85445-0.715-0.4308 0.24564-1.4503 0.49907-2.0189 0.60987-0.61923 0.91774-1.5639 0.34837-2.3146-0.37056-0.81454-1.002-1.5508-1.0515-2.4786 0.93707 0.02223 1.5375 0.89264 2.3167 1.3024 0.70314 0.45504 1.4045 1.1228 2.3054 0.83928 0.55262-0.07092 1.9158-0.16069 0.93879-0.77853-0.78229-0.88015 0.95864-1.1842 1.4708-1.595 1.0967-0.5026 2.2237-0.92087 3.3936-1.2015 0.84357 0.02444 1.9177-1.1427 2.4597-0.06518 0.33368 0.70139 0.59325 1.7649 1.5936 1.5858 1.5164 0.1152 2.9 0.80655 4.1521 1.6282 1.0431 0.57006 2.0147 1.3303 2.7578 2.2537 0.09719 0.72466-0.79766 1.2691-1.4257 1.2469-0.96354 0.37166-1.9639 0.627-2.9916 0.75049-1.4028 0.20677-2.821 0.29388-4.2381 0.31017-0.13322 0.81421 0.34886 1.8298-0.31129 2.4901-0.18948 0.11391-0.42262 0.135-0.6375 0.10349z"
      fill="#f0581a" stroke-width=".011206" />
  </g>
</svg>