<?xml version="1.0" encoding="UTF-8" standalone="no"?>
<!-- Created with Inkscape (http://www.inkscape.org/) -->

<svg width="73.929352mm" height="20.649017mm" viewBox="0 0 73.929352 20.649017" version="1.1" id="svg5"
  inkscape:version="1.2.2 (b0a8486541, 2022-12-01)" sodipodi:docname="korp_slogan_en.svg" xml:space="preserve"
  inkscape:export-filename="tmp.png" inkscape:export-xdpi="171.03999" inkscape:export-ydpi="171.03999"
  xmlns:inkscape="http://www.inkscape.org/namespaces/inkscape"
  xmlns:sodipodi="http://sodipodi.sourceforge.net/DTD/sodipodi-0.dtd" xmlns="http://www.w3.org/2000/svg"
  xmlns:svg="http://www.w3.org/2000/svg">
  <sodipodi:namedview id="namedview7" pagecolor="#ffffff" bordercolor="#000000" borderopacity="0.25"
    inkscape:showpageshadow="2" inkscape:pageopacity="0.0" inkscape:pagecheckerboard="0" inkscape:deskcolor="#d1d1d1"
    inkscape:document-units="mm" showgrid="false" inkscape:zoom="1.8816409" inkscape:cx="301.06701"
    inkscape:cy="121.96801" inkscape:window-width="1920" inkscape:window-height="1029" inkscape:window-x="0"
    inkscape:window-y="27" inkscape:window-maximized="1" inkscape:current-layer="layer1" showguides="true">
    <inkscape:grid type="xygrid" id="grid13315" />
    <sodipodi:guide position="-103.43797,123.15659" orientation="1,0" id="guide13317" inkscape:locked="false" />
    <sodipodi:guide position="-116.66713,119.18784" orientation="0,-1" id="guide13319" inkscape:locked="false" />
    <sodipodi:guide position="-0.25047418,25.260755" orientation="1,0" id="guide4551" inkscape:locked="false" />
  </sodipodi:namedview>
  <defs id="defs2">
    <rect x="165.33238" y="165.66167" width="170.87849" height="72.536377" id="rect827-6-9-2-6" />
    <rect x="482.19177" y="295.30188" width="310.23126" height="88.70002" id="rect10965-7-1" />
  </defs>
  <g inkscape:label="Layer 1" inkscape:groupmode="layer" id="layer1" transform="translate(-114.0213,-109.12216)">
    <g aria-label="Korp" transform="matrix(0.26458333,0,0,0.26458333,69.120096,65.583078)" id="text825-4-5-1-9"
      style="font-weight:300;font-size:53.3333px;font-family:'Jost*';-inkscape-font-specification:'Jost*, Light';white-space:pre;shape-inside:url(#rect827-6-9-2-6);display:inline">
      <path
        d="m 169.70536,174.48794 v 37.33331 h 2.93333 v -18.77332 l 16.26666,18.77332 h 3.73333 l -17.22665,-19.83999 16.42665,-17.49332 h -3.73333 l -15.46666,16.63999 v -16.63999 z"
        id="path2145" />
      <path
        d="m 193.59864,199.55459 c 0,7.41333 5.44,12.79999 12.58666,12.79999 7.14666,0 12.58666,-5.38666 12.58666,-12.79999 0,-7.41333 -5.44,-12.79999 -12.58666,-12.79999 -7.14666,0 -12.58666,5.38666 -12.58666,12.79999 z m 2.82666,0 c 0,-5.91999 4.21334,-10.18666 9.76,-10.18666 5.54666,0 9.75999,4.26667 9.75999,10.18666 0,5.92 -4.21333,10.18666 -9.75999,10.18666 -5.54666,0 -9.76,-4.26666 -9.76,-10.18666 z"
        id="path2147" />
      <path
        d="m 227.83858,187.28793 h -2.77334 v 24.53332 h 2.77334 v -14.93332 c 0,-4.16 1.33333,-7.52 4.95999,-7.52 1.28,0 2.13334,0.37333 3.2,1.17333 l 1.54667,-2.29333 c -1.12,-1.06666 -2.56,-1.49333 -4.10667,-1.49333 -2.34666,0 -4.37333,1.6 -5.59999,4.10666 z"
        id="path2149" />
      <path
        d="m 244.74526,223.55458 v -17.49333 c 1.65334,3.84 4.90667,6.29333 9.12,6.29333 6.56,0 11.83999,-4.90666 11.83999,-12.79999 0,-7.89333 -5.27999,-12.79999 -11.83999,-12.79999 -4.21333,0 -7.46666,2.45333 -9.12,6.29333 v -5.76 h -2.77333 v 36.26665 z m 18.18666,-23.99999 c 0,6.4 -4.21333,10.18666 -9.43999,10.18666 -4.53333,0 -8.74667,-4.31999 -8.74667,-10.18666 0,-5.86666 4.21334,-10.18666 8.74667,-10.18666 5.22666,0 9.43999,3.78667 9.43999,10.18666 z"
        id="path2151" />
    </g>
    <g id="Layer_2_1_-9-5" transform="matrix(0.08562054,0,0,0.08562054,86.00491,103.02498)"
      style="fill:#f0581a;fill-opacity:1">
      <g id="g4569-0-2" style="fill:#f0581a;fill-opacity:1">
        <path class="st1"
          d="m 863.2,124.7 c -11.63163,12.50213 -15.14012,33.06885 -32.85722,39.25964 -13.94121,7.76838 -31.59326,13.71501 -38.05592,29.73247 -5.90736,11.91066 9.62959,26.14001 19.07988,14.80583 5.29358,-0.57134 -6.90359,6.98507 2.46284,6.82737 3.94566,0.0218 11.63084,-0.92193 11.23573,2.06494 5.28475,0.0788 9.74718,-2.80355 4.53033,2.31283 -4.60559,11.7193 -19.64629,5.07309 -28.87058,9.16292 -5.16589,2.93233 -22.57946,-1.46187 -9.43635,-4.42925 4.30171,1.25907 11.36203,-3.0939 3.26694,-1.52193 -6.40739,-0.83211 -17.71316,-0.30367 -20.24465,-0.69986 1.55961,-8.41368 23.82054,0.25757 13.0713,-11.90646 -6.98894,-6.12584 -17.40109,-5.06201 -24.27499,-11.43167 1.76438,-6.69423 -14.86548,-2.95498 -9.73027,-11.88388 -4.45542,0.36242 -9.95864,0.80993 -8.79289,-1.39656 -7.2263,4.56527 -16.46815,5.35003 -24.85189,9.54603 -11.9971,4.77259 -24.19553,9.49364 -34.57897,17.28763 -10.11584,6.21653 -21.97912,10.78611 -29.09763,-0.75113 -15.35795,-0.79695 4.14176,-11.31221 9.93912,-13.38971 4.02379,-1.79693 16.0159,-7.89534 13.3976,-7.57939 -4.46312,3.5126 -14.18685,3.99916 -5.83851,-2.45978 4.7969,-5.3353 15.81727,-6.18944 17.24724,-13.51714 -9.64538,0.21054 -24.87092,8.55083 -30.75873,4.36844 4.96238,-12.354 22.04189,-10.90068 31.21974,-19.31754 10.91354,-3.53332 15.84553,-14.08164 24.38601,-20.49412 10.42199,-6.84926 25.29391,-6.99556 32.48255,-18.32493 6.52568,-11.40029 19.14872,-11.71711 30.40049,-13.3284 14.21229,-3.85206 28.58408,-8.149974 43.46642,-7.4532 13.80095,-2.321118 19.93861,-19.8914 34.8681,-19.207137 12.20459,-1.263691 22.80014,-10.903908 35.23614,-9.652631 11.64582,4.774077 -8.74906,6.412065 -11.7773,10.570625 -7.0328,2.096818 -12.43085,13.884879 -0.82797,11.357287 5.77869,-0.26786 19.66445,0.84101 19.00768,5.590825 -12.39166,1.531011 -27.5761,4.613861 -30.19908,19.227191 -1.19963,2.53019 -2.75908,5.00951 -5.10516,6.63069 z m -46.4,94.7 c -3.54656,4.69795 -10.23212,-1.49095 -1.97669,-0.27465 z m 6.5,0.2 c -3.63221,-1.67575 -2.9076,3.9425 0,0 z"
          id="path4567-9-5" style="clip-rule:evenodd;fill:#f0581a;fill-opacity:1;fill-rule:evenodd" />
      </g>
    </g>
    <g aria-label="Språkbanken’s word research platform"
      transform="matrix(0.26458333,0,0,0.26458333,-13.650903,38.792545)" id="text10963-7-3"
      style="font-weight:300;font-size:49.3333px;font-family:'Open Sans';-inkscape-font-specification:'Open Sans, Light';white-space:pre;shape-inside:url(#rect10965-7-1);display:inline;fill:#f0581a">
      <path
        d="m 484.25808,336.42291 -1.46667,1.03333 c 0.76667,1.60001 2.41667,2.98334 4.46667,2.98334 1.98334,0 3.88334,-1.3 3.88334,-3.48334 0,-2.03333 -1.56667,-3.01667 -2.96667,-3.5 -1.88334,-0.65001 -2.65,-1.23334 -2.65,-2.13334 0,-0.66667 0.5,-1.25 1.58333,-1.25 1.18334,0 1.88334,0.76666 2.36667,1.63333 l 1.58334,-0.9 c -0.6,-1.21667 -1.85,-2.5 -3.91667,-2.5 -2.10001,0 -3.66668,1.28333 -3.66668,3.15 0,2.16667 1.95001,3.00001 3.10001,3.41668 1.48333,0.55 2.48334,0.95 2.48334,2.23333 0,0.93334 -0.71667,1.56667 -1.80001,1.56667 -1.31667,0 -2.25,-0.88333 -3,-2.25 z"
        style="font-weight:500;font-size:16.6667px;font-family:'Jost*';-inkscape-font-specification:'Jost*, Medium';fill:#000000"
        id="path2154" />
      <path
        d="m 494.74144,343.85626 v -4.95001 c 0.55,0.95 1.46667,1.48333 2.61667,1.48333 2.00001,0 3.73334,-1.46667 3.73334,-4.03334 0,-2.56667 -1.73333,-4.05001 -3.73334,-4.05001 -1.15,0 -2.06667,0.55 -2.61667,1.50001 v -1.28334 h -1.81667 v 11.33336 z m 4.48334,-7.50002 c 0,1.53334 -1.05,2.40001 -2.3,2.40001 -1.05,0 -2.18334,-0.85001 -2.18334,-2.40001 0,-1.56667 1.13334,-2.4 2.18334,-2.4 1.25,0 2.3,0.86666 2.3,2.4 z"
        style="font-weight:500;font-size:16.6667px;font-family:'Jost*';-inkscape-font-specification:'Jost*, Medium';fill:#000000"
        id="path2156" />
      <path
        d="m 506.87481,334.43957 0.88333,-1.51667 c -0.35,-0.4 -0.86667,-0.58333 -1.41667,-0.58333 -0.65,0 -1.3,0.41666 -1.75,1.1 v -0.91667 h -1.78334 v 7.66668 h 1.78334 v -4.31667 c 0,-1.10001 0.36667,-1.83334 1.26667,-1.83334 0.43333,0 0.68333,0.13333 1.01667,0.4 z"
        style="font-weight:500;font-size:16.6667px;font-family:'Jost*';-inkscape-font-specification:'Jost*, Medium';fill:#000000"
        id="path2158" />
      <path
        d="m 510.30815,329.55623 c 0,1.06667 0.86667,1.78333 1.85001,1.78333 0.98333,0 1.86667,-0.71666 1.86667,-1.78333 0,-1.05 -0.88334,-1.76667 -1.86667,-1.76667 -0.98334,0 -1.85001,0.71667 -1.85001,1.76667 z m 1.03334,0 c 0,-0.51667 0.4,-0.85 0.81667,-0.85 0.41667,0 0.81667,0.33333 0.81667,0.85 0,0.53333 -0.4,0.85 -0.81667,0.85 -0.41667,0 -0.81667,-0.31667 -0.81667,-0.85 z m -1.6,4.98334 c 0.36666,-0.23333 1.23333,-0.73333 2.33333,-0.73333 0.83334,0 1.51667,0.4 1.51667,1.11667 v 1.06666 c -0.46666,-0.26666 -1.15,-0.51666 -2,-0.51666 -1.9,0 -3.28334,0.91666 -3.28334,2.61667 0,1.41667 1.06667,2.26667 2.68334,2.26667 1.15,0 2.15,-0.45 2.6,-1.26667 v 1.1 h 1.76667 v -5.46668 c 0,-1.51666 -1.31667,-2.38333 -3.2,-2.38333 -1.38334,0 -2.46667,0.5 -3.15001,0.91667 z m 0.38333,3.38334 c 0,-0.8 0.58333,-1.3 1.73334,-1.3 0.68333,0 1.21667,0.13333 1.73333,0.38333 v 0.13334 c 0,1.35 -0.88333,1.85 -2.05,1.85 -0.9,0 -1.41667,-0.35 -1.41667,-1.06667 z"
        style="font-weight:500;font-size:16.6667px;font-family:'Jost*';-inkscape-font-specification:'Jost*, Medium';fill:#000000"
        id="path2160" />
      <path
        d="m 521.99152,332.5229 -2.81667,2.70001 v -8.03335 h -1.76667 v 13.00002 h 1.76667 v -3.88334 l 3.16667,3.88334 h 2.20001 l -3.65001,-4.50001 3.31667,-3.16667 z"
        style="font-weight:500;font-size:16.6667px;font-family:'Jost*';-inkscape-font-specification:'Jost*, Medium';fill:#000000"
        id="path2162" />
      <path
        d="m 533.82489,336.35624 c 0,-2.53334 -1.73333,-4.00001 -3.73334,-4.00001 -1.11667,0 -2.05,0.51667 -2.61667,1.45001 v -6.61668 h -1.81667 v 13.00002 h 1.81667 v -1.28333 c 0.56667,0.93333 1.5,1.45 2.61667,1.45 2.00001,0 3.73334,-1.48334 3.73334,-4.00001 z m -1.86667,0 c 0,1.53334 -1.05,2.43334 -2.3,2.43334 -1.05,0 -2.18334,-0.88334 -2.18334,-2.43334 0,-1.56667 1.13334,-2.43334 2.18334,-2.43334 1.25,0 2.3,0.9 2.3,2.43334 z"
        style="font-weight:500;font-size:16.6667px;font-family:'Jost*';-inkscape-font-specification:'Jost*, Medium';fill:#000000"
        id="path2164" />
      <path
        d="m 536.10824,334.5229 c 0.33334,-0.25 1.25001,-0.71666 2.33334,-0.71666 0.95,0 1.63334,0.33333 1.63334,1.26667 v 0.93333 c -0.48333,-0.26667 -1.21667,-0.53333 -2.21667,-0.53333 -1.90001,0 -3.00001,0.95 -3.00001,2.43333 0,1.56667 1.23334,2.45001 2.68334,2.45001 0.98334,0 2.05001,-0.4 2.53334,-1.21667 v 1.05 h 1.76667 v -5.46668 c 0,-1.51666 -1.35,-2.38333 -3.21667,-2.38333 -1.43334,0 -2.55001,0.5 -3.25001,0.91667 z m 0.56667,3.28334 c 0,-0.71666 0.48334,-1.15 1.61667,-1.15 0.65,0 1.23334,0.11667 1.78334,0.36667 v 0.11667 c 0,1.16667 -0.9,1.86667 -1.96667,1.86667 -0.83334,0 -1.43334,-0.43334 -1.43334,-1.20001 z"
        style="font-weight:500;font-size:16.6667px;font-family:'Jost*';-inkscape-font-specification:'Jost*, Medium';fill:#000000"
        id="path2166" />
      <path
        d="m 548.87493,335.52291 v 4.66667 h 1.85001 v -4.88334 c 0,-1.83334 -0.93334,-2.95001 -2.66667,-2.95001 -1.05001,0 -1.81668,0.45 -2.30001,1.35001 v -1.18334 h -1.81667 v 7.66668 h 1.81667 v -4.66667 c 0,-1.05001 0.66667,-1.71667 1.7,-1.71667 0.96667,0 1.41667,0.6 1.41667,1.71667 z"
        style="font-weight:500;font-size:16.6667px;font-family:'Jost*';-inkscape-font-specification:'Jost*, Medium';fill:#000000"
        id="path2168" />
      <path
        d="m 557.54162,332.5229 -2.81668,2.70001 v -8.03335 h -1.76667 v 13.00002 h 1.76667 v -3.88334 l 3.16668,3.88334 h 2.2 l -3.65001,-4.50001 3.31668,-3.16667 z"
        style="font-weight:500;font-size:16.6667px;font-family:'Jost*';-inkscape-font-specification:'Jost*, Medium';fill:#000000"
        id="path2170" />
      <path
        d="m 564.35832,340.35625 c 1.76667,0 3.03334,-0.68334 3.85001,-2.08334 l -1.56667,-0.61667 c -0.48334,0.81667 -1.21667,1.21667 -2.20001,1.21667 -1.25,0 -2.03333,-0.75 -2.15,-2.1 h 5.96668 c 0,-0.0833 0.0167,-0.3 0.0167,-0.5 0,-2.45001 -1.41667,-3.91668 -3.83334,-3.91668 -2.43334,0 -4.00001,1.58334 -4.00001,4.00001 0,2.40001 1.55001,4.00001 3.91668,4.00001 z m 0.0667,-6.63335 c 1.08333,0 1.8,0.71667 1.88333,1.80001 h -3.96667 c 0.21667,-1.16667 0.93333,-1.78334 2.08334,-1.80001 z"
        style="font-weight:500;font-size:16.6667px;font-family:'Jost*';-inkscape-font-specification:'Jost*, Medium';fill:#000000"
        id="path2172" />
      <path
        d="m 574.94167,335.52291 v 4.66667 h 1.85 v -4.88334 c 0,-1.83334 -0.93333,-2.95001 -2.66667,-2.95001 -1.05,0 -1.81667,0.45 -2.30001,1.35001 v -1.18334 h -1.81667 v 7.66668 h 1.81667 v -4.66667 c 0,-1.05001 0.66667,-1.71667 1.70001,-1.71667 0.96667,0 1.41667,0.6 1.41667,1.71667 z"
        style="font-weight:500;font-size:16.6667px;font-family:'Jost*';-inkscape-font-specification:'Jost*, Medium';fill:#000000"
        id="path2174" />
      <path d="m 579.24167,328.52289 -0.96667,4.00001 h 1.26667 l 1.7,-4.00001 z"
        style="font-weight:500;font-size:16.6667px;font-family:'Jost*';-inkscape-font-specification:'Jost*, Medium';fill:#000000"
        id="path2176" />
      <path
        d="m 582.24167,337.65624 -1.05,1.06667 c 0.66667,0.86667 1.83334,1.70001 3.43334,1.70001 1.66667,0 2.73334,-0.95001 2.73334,-2.40001 0,-1.38333 -1.06667,-1.9 -2.35001,-2.41667 -0.93333,-0.36667 -1.66667,-0.63333 -1.66667,-1.2 0,-0.43334 0.38334,-0.65 0.90001,-0.65 0.75,0 1.5,0.43333 2,1.01666 l 1,-1.06666 c -0.63333,-0.76667 -1.71667,-1.35001 -2.96667,-1.35001 -1.41667,0 -2.63334,0.7 -2.63334,2.08334 0,1.38334 1.13334,1.96667 2.18334,2.33334 1.01667,0.36667 1.71667,0.66667 1.71667,1.35 0,0.5 -0.38334,0.81667 -1.03334,0.81667 -0.78333,0 -1.51667,-0.45 -2.26667,-1.28334 z"
        style="font-weight:500;font-size:16.6667px;font-family:'Jost*';-inkscape-font-specification:'Jost*, Medium';fill:#000000"
        id="path2178" />
      <path
        d="m 592.80834,332.5229 3.58334,8.20002 2.30001,-5.16668 2.41667,5.16668 3.58334,-8.20002 h -1.96667 l -1.8,4.58334 -2.23334,-5.16667 -2.13334,5.15001 -1.78334,-4.56668 z"
        style="font-weight:500;font-size:16.6667px;font-family:'Jost*';-inkscape-font-specification:'Jost*, Medium';fill:#000000"
        id="path2180" />
      <path
        d="m 605.00837,336.35624 c 0,2.35001 1.78334,4.00001 4.13334,4.00001 2.35001,0 4.13334,-1.65 4.13334,-4.00001 0,-2.36667 -1.78333,-4.00001 -4.13334,-4.00001 -2.35,0 -4.13334,1.63334 -4.13334,4.00001 z m 1.85001,0 c 0,-1.43333 0.98333,-2.41667 2.28333,-2.41667 1.28334,0 2.28334,0.98334 2.28334,2.41667 0,1.43334 -1,2.41667 -2.28334,2.41667 -1.3,0 -2.28333,-0.98333 -2.28333,-2.41667 z"
        style="font-weight:500;font-size:16.6667px;font-family:'Jost*';-inkscape-font-specification:'Jost*, Medium';fill:#000000"
        id="path2182" />
      <path
        d="m 619.05838,334.43957 0.88334,-1.51667 c -0.35,-0.4 -0.86667,-0.58333 -1.41667,-0.58333 -0.65,0 -1.3,0.41666 -1.75001,1.1 v -0.91667 h -1.78333 v 7.66668 h 1.78333 v -4.31667 c 0,-1.10001 0.36667,-1.83334 1.26667,-1.83334 0.43334,0 0.68334,0.13333 1.01667,0.4 z"
        style="font-weight:500;font-size:16.6667px;font-family:'Jost*';-inkscape-font-specification:'Jost*, Medium';fill:#000000"
        id="path2184" />
      <path
        d="m 620.59172,336.35624 c 0,2.51667 1.73334,4.00001 3.73334,4.00001 1.11667,0 2.05001,-0.51667 2.61668,-1.45 v 1.28333 h 1.81667 v -13.00002 h -1.81667 v 6.61668 c -0.56667,-0.93334 -1.50001,-1.45001 -2.61668,-1.45001 -2,0 -3.73334,1.46667 -3.73334,4.00001 z m 1.86667,0 c 0,-1.53334 1.05001,-2.43334 2.30001,-2.43334 1.05,0 2.18334,0.86667 2.18334,2.43334 0,1.55 -1.13334,2.43334 -2.18334,2.43334 -1.25,0 -2.30001,-0.9 -2.30001,-2.43334 z"
        style="font-weight:500;font-size:16.6667px;font-family:'Jost*';-inkscape-font-specification:'Jost*, Medium';fill:#000000"
        id="path2186" />
      <path
        d="m 640.05843,334.43957 0.88333,-1.51667 c -0.35,-0.4 -0.86666,-0.58333 -1.41667,-0.58333 -0.65,0 -1.3,0.41666 -1.75,1.1 v -0.91667 h -1.78334 v 7.66668 h 1.78334 v -4.31667 c 0,-1.10001 0.36667,-1.83334 1.26667,-1.83334 0.43333,0 0.68333,0.13333 1.01667,0.4 z"
        style="font-weight:500;font-size:16.6667px;font-family:'Jost*';-inkscape-font-specification:'Jost*, Medium';fill:#000000"
        id="path2188" />
      <path
        d="m 645.25846,340.35625 c 1.76667,0 3.03334,-0.68334 3.85001,-2.08334 l -1.56667,-0.61667 c -0.48334,0.81667 -1.21667,1.21667 -2.20001,1.21667 -1.25,0 -2.03334,-0.75 -2.15,-2.1 h 5.96668 c 0,-0.0833 0.0167,-0.3 0.0167,-0.5 0,-2.45001 -1.41667,-3.91668 -3.83334,-3.91668 -2.43334,0 -4.00001,1.58334 -4.00001,4.00001 0,2.40001 1.55001,4.00001 3.91668,4.00001 z m 0.0667,-6.63335 c 1.08333,0 1.8,0.71667 1.88333,1.80001 h -3.96667 c 0.21666,-1.16667 0.93333,-1.78334 2.08334,-1.80001 z"
        style="font-weight:500;font-size:16.6667px;font-family:'Jost*';-inkscape-font-specification:'Jost*, Medium';fill:#000000"
        id="path2190" />
      <path
        d="m 651.25846,337.65624 -1.05001,1.06667 c 0.66667,0.86667 1.83334,1.70001 3.43334,1.70001 1.66667,0 2.73334,-0.95001 2.73334,-2.40001 0,-1.38333 -1.06667,-1.9 -2.35,-2.41667 -0.93334,-0.36667 -1.66667,-0.63333 -1.66667,-1.2 0,-0.43334 0.38333,-0.65 0.9,-0.65 0.75,0 1.5,0.43333 2,1.01666 l 1.00001,-1.06666 c -0.63334,-0.76667 -1.71667,-1.35001 -2.96668,-1.35001 -1.41667,0 -2.63333,0.7 -2.63333,2.08334 0,1.38334 1.13333,1.96667 2.18333,2.33334 1.01667,0.36667 1.71667,0.66667 1.71667,1.35 0,0.5 -0.38333,0.81667 -1.03333,0.81667 -0.78334,0 -1.51667,-0.45 -2.26667,-1.28334 z"
        style="font-weight:500;font-size:16.6667px;font-family:'Jost*';-inkscape-font-specification:'Jost*, Medium';fill:#000000"
        id="path2192" />
      <path
        d="m 661.30848,340.35625 c 1.76667,0 3.03334,-0.68334 3.85,-2.08334 l -1.56667,-0.61667 c -0.48333,0.81667 -1.21666,1.21667 -2.2,1.21667 -1.25,0 -2.03334,-0.75 -2.15,-2.1 h 5.96667 c 0,-0.0833 0.0167,-0.3 0.0167,-0.5 0,-2.45001 -1.41667,-3.91668 -3.83334,-3.91668 -2.43334,0 -4.00001,1.58334 -4.00001,4.00001 0,2.40001 1.55001,4.00001 3.91668,4.00001 z m 0.0667,-6.63335 c 1.08334,0 1.80001,0.71667 1.88334,1.80001 h -3.96667 c 0.21666,-1.16667 0.93333,-1.78334 2.08333,-1.80001 z"
        style="font-weight:500;font-size:16.6667px;font-family:'Jost*';-inkscape-font-specification:'Jost*, Medium';fill:#000000"
        id="path2194" />
      <path
        d="m 667.52514,334.5229 c 0.33334,-0.25 1.25,-0.71666 2.33334,-0.71666 0.95,0 1.63334,0.33333 1.63334,1.26667 v 0.93333 c -0.48334,-0.26667 -1.21667,-0.53333 -2.21667,-0.53333 -1.90001,0 -3.00001,0.95 -3.00001,2.43333 0,1.56667 1.23334,2.45001 2.68334,2.45001 0.98333,0 2.05,-0.4 2.53334,-1.21667 v 1.05 h 1.76667 v -5.46668 c 0,-1.51666 -1.35001,-2.38333 -3.21668,-2.38333 -1.43333,0 -2.55,0.5 -3.25,0.91667 z m 0.56667,3.28334 c 0,-0.71666 0.48333,-1.15 1.61667,-1.15 0.65,0 1.23334,0.11667 1.78334,0.36667 v 0.11667 c 0,1.16667 -0.90001,1.86667 -1.96667,1.86667 -0.83334,0 -1.43334,-0.43334 -1.43334,-1.20001 z"
        style="font-weight:500;font-size:16.6667px;font-family:'Jost*';-inkscape-font-specification:'Jost*, Medium';fill:#000000"
        id="path2196" />
      <path
        d="m 679.42517,334.43957 0.88334,-1.51667 c -0.35,-0.4 -0.86667,-0.58333 -1.41667,-0.58333 -0.65,0 -1.3,0.41666 -1.75,1.1 v -0.91667 h -1.78334 v 7.66668 h 1.78334 v -4.31667 c 0,-1.10001 0.36666,-1.83334 1.26666,-1.83334 0.43334,0 0.68334,0.13333 1.01667,0.4 z"
        style="font-weight:500;font-size:16.6667px;font-family:'Jost*';-inkscape-font-specification:'Jost*, Medium';fill:#000000"
        id="path2198" />
      <path
        d="m 682.49185,336.35624 c 0,-1.41667 1.03334,-2.45 2.38334,-2.45 1.06667,0 2.11667,0.55 2.5,1.3 v -2 c -0.53333,-0.51667 -1.48333,-0.85001 -2.58333,-0.85001 -2.36668,0 -4.15001,1.63334 -4.15001,4.00001 0,2.35001 1.78333,4.00001 4.15001,4.00001 1.1,0 2.05,-0.31667 2.58333,-0.86667 v -1.98334 c -0.38333,0.73334 -1.38333,1.30001 -2.5,1.30001 -1.35,0 -2.38334,-1.00001 -2.38334,-2.45001 z"
        style="font-weight:500;font-size:16.6667px;font-family:'Jost*';-inkscape-font-specification:'Jost*, Medium';fill:#000000"
        id="path2200" />
      <path
        d="m 694.29187,335.52291 v 4.66667 h 1.81667 v -4.91667 c 0,-1.95001 -0.93333,-2.96668 -2.63334,-2.96668 -1.05,0 -1.85,0.53334 -2.3,1.36667 v -6.48334 h -1.81667 v 13.00002 h 1.81667 v -4.66667 c 0,-1.01667 0.66667,-1.71667 1.7,-1.71667 0.96667,0 1.41667,0.6 1.41667,1.71667 z"
        style="font-weight:500;font-size:16.6667px;font-family:'Jost*';-inkscape-font-specification:'Jost*, Medium';fill:#000000"
        id="path2202" />
      <path
        d="m 705.15854,343.85626 v -4.95001 c 0.55,0.95 1.46667,1.48333 2.61667,1.48333 2,0 3.73334,-1.46667 3.73334,-4.03334 0,-2.56667 -1.73334,-4.05001 -3.73334,-4.05001 -1.15,0 -2.06667,0.55 -2.61667,1.50001 v -1.28334 h -1.81667 v 11.33336 z m 4.48334,-7.50002 c 0,1.53334 -1.05,2.40001 -2.30001,2.40001 -1.05,0 -2.18333,-0.85001 -2.18333,-2.40001 0,-1.56667 1.13333,-2.4 2.18333,-2.4 1.25001,0 2.30001,0.86666 2.30001,2.4 z"
        style="font-weight:500;font-size:16.6667px;font-family:'Jost*';-inkscape-font-specification:'Jost*, Medium';fill:#000000"
        id="path2204" />
      <path d="m 713.22523,327.18956 v 13.00002 h 1.81667 v -13.00002 z"
        style="font-weight:500;font-size:16.6667px;font-family:'Jost*';-inkscape-font-specification:'Jost*, Medium';fill:#000000"
        id="path2206" />
      <path
        d="m 717.8919,334.5229 c 0.33334,-0.25 1.25,-0.71666 2.33334,-0.71666 0.95,0 1.63334,0.33333 1.63334,1.26667 v 0.93333 c -0.48334,-0.26667 -1.21667,-0.53333 -2.21667,-0.53333 -1.90001,0 -3.00001,0.95 -3.00001,2.43333 0,1.56667 1.23334,2.45001 2.68334,2.45001 0.98333,0 2.05,-0.4 2.53334,-1.21667 v 1.05 h 1.76667 v -5.46668 c 0,-1.51666 -1.35001,-2.38333 -3.21668,-2.38333 -1.43333,0 -2.55,0.5 -3.25,0.91667 z m 0.56667,3.28334 c 0,-0.71666 0.48333,-1.15 1.61667,-1.15 0.65,0 1.23334,0.11667 1.78334,0.36667 v 0.11667 c 0,1.16667 -0.90001,1.86667 -1.96667,1.86667 -0.83334,0 -1.43334,-0.43334 -1.43334,-1.20001 z"
        style="font-weight:500;font-size:16.6667px;font-family:'Jost*';-inkscape-font-specification:'Jost*, Medium';fill:#000000"
        id="path2208" />
      <path
        d="m 724.65857,332.5229 v 1.58334 h 1.30001 v 6.08334 h 1.76667 v -6.08334 h 1.28333 v -1.58334 h -1.28333 v -2.66667 h -1.76667 v 2.66667 z"
        style="font-weight:500;font-size:16.6667px;font-family:'Jost*';-inkscape-font-specification:'Jost*, Medium';fill:#000000"
        id="path2210" />
      <path
        d="m 729.60859,332.5229 v 1.58334 h 0.83333 v 6.08334 h 1.78334 v -6.08334 h 1.78334 v -1.58334 h -1.78334 v -2.48334 c 0,-0.96667 0.3,-1.35 0.8,-1.35 0.26667,0 0.56667,0.0833 0.8,0.43333 l 0.83334,-1.4 c -0.28334,-0.33333 -0.83334,-0.75 -1.71667,-0.75 -1.61667,0 -2.50001,0.93333 -2.50001,2.71667 v 2.83334 z"
        style="font-weight:500;font-size:16.6667px;font-family:'Jost*';-inkscape-font-specification:'Jost*, Medium';fill:#000000"
        id="path2212" />
      <path
        d="m 734.8086,336.35624 c 0,2.35001 1.78333,4.00001 4.13334,4.00001 2.35,0 4.13334,-1.65 4.13334,-4.00001 0,-2.36667 -1.78334,-4.00001 -4.13334,-4.00001 -2.35001,0 -4.13334,1.63334 -4.13334,4.00001 z m 1.85,0 c 0,-1.43333 0.98333,-2.41667 2.28334,-2.41667 1.28333,0 2.28334,0.98334 2.28334,2.41667 0,1.43334 -1.00001,2.41667 -2.28334,2.41667 -1.30001,0 -2.28334,-0.98333 -2.28334,-2.41667 z"
        style="font-weight:500;font-size:16.6667px;font-family:'Jost*';-inkscape-font-specification:'Jost*, Medium';fill:#000000"
        id="path2214" />
      <path
        d="m 748.85861,334.43957 0.88334,-1.51667 c -0.35,-0.4 -0.86667,-0.58333 -1.41667,-0.58333 -0.65,0 -1.3,0.41666 -1.75,1.1 v -0.91667 h -1.78334 v 7.66668 h 1.78334 v -4.31667 c 0,-1.10001 0.36666,-1.83334 1.26667,-1.83334 0.43333,0 0.68333,0.13333 1.01666,0.4 z"
        style="font-weight:500;font-size:16.6667px;font-family:'Jost*';-inkscape-font-specification:'Jost*, Medium';fill:#000000"
        id="path2216" />
      <path
        d="m 761.95864,335.30624 c 0,-1.86667 -0.8,-2.95001 -2.45,-2.95001 -1.03334,0 -1.85,0.46667 -2.40001,1.36667 -0.33333,-0.88333 -1.08333,-1.36667 -2.2,-1.36667 -1,0 -1.71667,0.43334 -2.16667,1.28334 v -1.11667 h -1.76667 v 7.66668 h 1.76667 v -4.66667 c 0,-1.10001 0.6,-1.71667 1.51667,-1.71667 0.88333,0 1.28334,0.55 1.28334,1.71667 v 4.66667 h 1.8 v -4.66667 c 0,-1.10001 0.6,-1.71667 1.53334,-1.71667 0.86666,0 1.26666,0.55 1.26666,1.71667 v 4.66667 h 1.81667 z"
        style="font-weight:500;font-size:16.6667px;font-family:'Jost*';-inkscape-font-specification:'Jost*, Medium';fill:#000000"
        id="path2218" />
    </g>
  </g>
</svg>