<?xml version="1.0" encoding="utf-8"?>
<!-- Generator: Adobe Illustrator 25.2.0, SVG Export Plug-In . SVG Version: 6.00 Build 0)  -->
<svg version="1.0" id="Layer_1" xmlns="http://www.w3.org/2000/svg" xmlns:xlink="http://www.w3.org/1999/xlink" x="0px" y="0px"
	 viewBox="0 0 911 242.3" style="enable-background:new 0 0 911 242.3;" xml:space="preserve">
<style type="text/css">
	.st0{fill:#333333;stroke:#7C7C7C;}
	.st1{fill-rule:evenodd;clip-rule:evenodd;fill:#333333;}
</style>
<g id="Lager_1">
	<g>
		<path class="st0" d="M648.7,94.5c0,14.9-2.6,27.7-7.8,38.2s-12.3,19-21.3,25.5s-19.5,11.3-31.5,14.3s-25,4.5-38.8,4.5v51.7h-69.2
			V11.9h69.2c13.9,0,26.8,1.5,38.8,4.5s22.5,7.8,31.5,14.3s16.1,15,21.3,25.5C646.1,66.8,648.7,79.5,648.7,94.5z M549.3,118.5h2.9
			c9.1,0,15.7-2.1,19.7-6.3c4-4.2,6-10.1,6-17.7s-2-13.5-6-17.7s-10.6-6.3-19.7-6.3h-2.9V118.5z"/>
		<path class="st0" d="M339,11.9h74.8c13.9,0,26.7,1.8,38.5,5.5s22,9.1,30.7,16.2s15.4,16,20.3,26.5s7.3,22.6,7.3,36.2
			c0,10.8-1.5,20-4.5,27.6s-6.4,13.9-10.1,18.9c-4.3,5.6-9.2,10.4-14.6,14.3l40.6,71.5h-81.2l-32.5-54.9v54.9H339V11.9z
			 M408.2,118.5h3.6c8.2,0,15.2-1.8,21-5.5c5.7-3.7,8.6-9.9,8.6-18.5c0-8.7-2.9-14.8-8.6-18.5s-12.7-5.5-21-5.5h-3.6V118.5z"/>
		<path class="st0" d="M155.1,120.5c0-15.6,3-30.3,8.9-44.2c6-13.9,14.1-25.9,24.4-36.2c10.3-10.3,22.4-18.4,36.2-24.4
			c13.9-6,28.6-8.9,44.2-8.9s30.3,3,44.2,8.9c13.9,6,25.9,14.1,36.2,24.4c10.3,10.3,18.4,22.4,24.4,36.2c6,13.9,8.9,28.6,8.9,44.2
			s-3,30.3-8.9,44.2c-6,13.9-14.1,25.9-24.4,36.2s-22.4,18.4-36.2,24.4c-13.9,6-28.6,8.9-44.2,8.9s-30.3-3-44.2-8.9
			c-13.9-6-25.9-14.1-36.2-24.4c-10.3-10.3-18.4-22.4-24.4-36.2C158,150.8,155.1,136.1,155.1,120.5z M223.3,120.5
			c0,6.3,1.2,12.2,3.6,17.7c2.4,5.5,5.6,10.3,9.8,14.5c4.1,4.1,8.9,7.4,14.5,9.8c5.5,2.4,11.4,3.6,17.7,3.6c6.3,0,12.2-1.2,17.7-3.6
			c5.5-2.4,10.3-5.6,14.5-9.8c4.1-4.1,7.4-8.9,9.8-14.5c2.4-5.5,3.6-11.4,3.6-17.7c0-6.3-1.2-12.2-3.6-17.7s-5.6-10.3-9.8-14.5
			c-4.1-4.1-8.9-7.4-14.5-9.8c-5.5-2.4-11.4-3.6-17.7-3.6c-6.3,0-12.2,1.2-17.7,3.6c-5.5,2.4-10.3,5.6-14.5,9.8
			c-4.1,4.1-7.4,8.9-9.8,14.5C224.5,108.3,223.3,114.2,223.3,120.5z"/>
		<path class="st0" d="M13.4,11.9h70.2V62l40.9-50.1h84.8L133,111.1l80.3,117.7h-83.5l-46.1-67v67H13.4V11.9z"/>
	</g>
</g>
<g id="Layer_2_1_">
	<g>
		<path class="st1" d="M863.2,124.7c-0.9,0.6-1.4,1.5-2.1,2.3c-2.1,2.6-1.5,0.4-2.7,4.1c-0.5,1.5-0.2,0.9-0.8,1.5
			c-0.7,0.6-1.1,2.2-2.1,2.5c-0.3,0.3-0.2,0.2-0.4,0.6l-2.6,5.2c-0.6,1.3-0.5,1.7-1.1,2.2c-0.9,0.8-0.5,1.1-1.2,2.2
			c-0.9,1.4-1,0.7-2,2.5l-1.7,2.7c-0.8,0.9-1.1,1.7-1.7,2.7c-0.5,0.8-0.7,0.6-1.1,1.2c-0.2,0.2-0.3,0.4-0.5,0.7l-1.4,1.3
			c-0.5,0.3-1,1.3-1.5,1.8c-0.4,0.5-1.2,1.3-1.7,1.6c0.2-0.7,0.5-0.8,0.7-1.4c-0.7,0.5-0.7,1.3-1.6,1.6l-1.1,0.3
			c-0.3,0.3-0.7,0.9-1,1.2l-1.4,1l0.6-1.3c-1.7,2-1.5,1.7-3.7,3.1l1.3-1.8c-1.7,1.1-1.3,1.5-3.8,2.7c0.3-0.4,0.4-0.3,0.6-0.9
			c-0.7,0.4-1,0.7-1.6,1.2c-1,0.8-0.7,0.6-2.1,0.9V166c-0.6,0.3-0.9,0.6-1.5,1c-1.1,0.7,0.2-0.4-1.2,0.6l-3,1.9
			c0.4-0.6,0.5-0.3,0.9-0.9c-0.6,0.2-2.2,1.3-2.8,1.8c-1,0.6-1.8,1.3-2.8,1.9c-1,0.6-2,1.3-2.9,1.8l-3.3,1.4l-0.3-0.4
			c0,0-0.1,0-0.1,0.1c0,0-0.1,0-0.1,0.1c-0.5,0.4-1.1,0.9-1.6,1.2c-3.4,1.9-1,0.8-3.4,2.8l-1.7,1.5l-0.7-0.9c-1.2,0.8-1.1,2.9-2,3.9
			c-2.1,2.5-1.8,2.4-3.5,4.6c-0.3,0.4-0.6,0.9-0.9,1.2c-0.6,0.7-0.4,0.1-0.8,1.2c-0.6,1.4-1.5,2.6-2.1,4c-1,2.4-0.5,4.4-0.2,6.9
			l-0.4-0.3c0,0.4,0.2,2.8,0.2,3c0.2,0.6,1,1.4,1.4,1.8c0.3,0.3,0.4,0.4,0.8,0.7l2.3,2c0.1,0.1,0.1,0.1,0.2,0.2l0.2,0.1
			c0.7,0.6,2.5,1.8,3,2.5c0,0,0,0.1,0.1,0.1l3,3.1l1.1,0.6c0.7-0.5,1.2-1.7,1.8-2.3c1-0.8,0.6-0.5,1-1.7c0.2-0.8,3-4.3,6-3.6
			c1.6,0.4,2.3,1.2,3.3,2.3c-0.8-0.1-0.6-0.4-1.5-0.6c-1.1-0.3-2.6-0.3-3.5,0.5l-1.1,1.2c1,0.5,2.9,2.4,1.6,3.4l-0.6,0.4
			c2.8,0.2,0.5,0.5,4.3,0.3c0.9-0.1,0.8-0.1,1.4-0.3c1.6-0.5,1.9,0.3,2.7,0.2c0.5,0,0.4-0.4,1.2-0.2c0.7,0.2,0.1,0.3,1.4,0.1
			c1.5-0.2,3.1-0.2,4.7-0.2c0.6,0,1.2,0,0.8,0.5c-1,1.2-3,0.9-4.3,1.4l-0.6,0.3c0.2,0.1,0.7,0.1,0.9,0.2c0.6,0.3,0.7,0.9,1.4,1
			c0.3,0.1,0.1,0.1,0.3,0l0.5-0.1c0.9-0.2,0.7-0.8,1.4-1c0.6-0.3,0.1,0.4,1.5-0.8c0.8-0.7,2.4-1.1,4.1-0.9c1.6,0.3,1.8,1.4,2.3,2.7
			c-0.6-0.2-0.7-0.8-1.2-1.1c-1.4-1-3.5,0.9-4.7,1.7l0.7,2.6l-1.6,0.7c0.8,1.1,1.1,0.8,1.4,2.3c-1.5,0.4-0.1-0.7-2.3-0.7
			c-0.4,0-1.2-0.1-1.5,0.1c-0.8,0.2-0.4,1.7-1.1,2.2l-0.8,0.4c-1,0.7-1.3,0.5-3.1,0.6c-1.9,0.2-4.5-0.4-6.3,0.3
			c-1.4,0.5-3.6-0.8-4.9-1.3c-1.5-0.5-3.6,2-4.2,2.1c-0.7,0.1-1.9-0.2-3,0c-0.6,0.1-0.7,0.1-1.2,0.4c-0.4,0.2-0.9,0.2-1.4,0.4
			c-1.1,0.4-0.9,0.7-2.4,0.9c-0.6,0.1-1.9,0.5-3.1,0.5h-0.6c-0.7,0-1.3-0.3-1.4-0.9c-0.2-0.9,0.1-0.6-0.5-2.6c-1.6,0-2.5,0.2-3.7,1
			c-1.1,0.6-1.6,1.5-2.2,2.4c-1.6-0.4-0.5-2.5,0.2-3.3c0.9-1,1.8-1.8,3.1-2.3c1-0.4,1.8-0.2,2.8-0.3c0.6,0,0.6-0.3,1.4-0.3
			c1,0,2,0.6,3.1,0.4c0.6-0.1,0.7-0.4,1.5-0.2c0.7,0.1,0.7,0.3,1.3-0.2c0.8-0.8,0.4-0.2,1.4-0.5c0.1,0,0.9-0.6,1-0.7
			c0.5-0.4,0.3-0.5,0.4-1.4c-1.8,0-1.5,0.8-3.4,0.5c-0.7-0.1-0.4-0.1-1.2,0c-1.1,0.1-1.5-0.1-2.5,0.2c-0.7,0.2-1.7,0.3-2.5,0.4
			c-0.9,0-1.5,0.4-2.3,0.2c-0.4-0.1-0.5-0.1-1-0.1c-1.2,0.1-1.5-0.4-2.1,0.3c-0.8,0.8-2.3,0.7-3.4,0.8c-0.4-0.8,0.1-0.3-0.6-0.7
			c-1.1-0.8-0.8-1.4-1-2.8c-2.6-1.2-5.3,1-5.9,3.5l-0.4,1.2c-1.9-0.5-0.1-4.5,0.5-5.3c0.5-0.6,1.4-1.3,2.1-1.6
			c2-1.1,3.4-0.4,4.8-0.4c0.7,0,0.7-0.3,1.4,0.1c1.4,0.8,0.7,1,2.9,0.9c0.8,0,2-0.5,3.1-0.6c1.6-0.1,1.6-0.1,3-0.9l-1.4-1.8
			c-2,0-1-0.1-1.6-1.4c-0.5-1-3.6-3.7-4.6-4.6l-6.6-5.6c-0.5,0.4-0.9,1-1.6,1.3c-0.5,0.2-0.6,0-1.1,0c-0.7,0-0.7,0.1-1.4,0.1
			c-1.6,0-1.2,0.2-2.2,0.6l-2.7,0.2c-1-1.8-0.9-1.5,0.6-3.7c-0.6,0.1-0.7,0.2-1.2-0.2c-1.8-1.4-0.8-1.6-1.7-2.6
			c-1.1-1.2-2.7,1-4.1,1.5l-1.5,0.3v-0.4c1.5-0.4,2.2-2.4,2.8-3.6c-1.4-0.7-1.1,0.2-1.4-2.4c-1,0-1.4-0.4-1.5-0.5
			c-1.5,0-1.6,0.2-2.3-0.3c-1-0.7-0.7-0.4-1.2,0.3c-1.2,1.7-3.6,1.4-4.4-0.7c0.9-2.8-0.6-5.2-0.9-7.8c-0.9,0.1-1.3,0.5-2.1,0.9
			c-0.7,0.4-1.4,0.8-2,1.3l0.2-0.6c-1.8,0.4-1-0.5-2.4-0.2l-0.5,0.1c-0.3,0-0.5,0.1-0.9,0.3l-2.1,1.1c0.4-0.6,0.4-0.9,0.9-1.4
			c0.4-0.4,1-0.6,1.3-1h-0.3v-0.3c0.5-0.1,1.2-0.6,1.4-1c0.1-0.2,0.2-0.6,0.2-1c-0.1-0.8,0.2-0.8-1.6,1c-0.4,0.4-0.8,0.7-1.3,1.1
			c-1.5,1.3-4,2.9-5.8,3.9c0.2-0.7,1.9-2.1,2.6-2.5c0.4-0.3,0.7-0.4,0.9-0.8c-0.5,0.1-1.1,0.6-1.6,0.9l-5.3,2.1
			c-0.1-1.1-1,0.5-4.3,1.6l-2.1,0.6l-1.1-0.3c-2.6,1.8-3.8,2-6.9,3.1c-0.8,0.3-1.1,0.3-1.8,0.6l-5.1,2.5c-1,0.4-0.5,0-1.7,0.7
			c-0.7,0.4-0.9,0.6-1.7,0.9c-1.7,0.6-5.1,2.2-7.1,3c-1.2,0.5-2.4,1-3.7,1.5c-0.6,0.2-1.2,0.5-1.8,0.7c-1,0.3-0.9,0.4-1.7,0.9
			l-1.5,0.9c-0.3,0.2-0.5,0.3-0.8,0.5c-0.8,0.5-2.3,1.6-3.1,1.8c-1.6,0.5-5.1,3.4-6.8,4.6c-1.8,1.2-2,2.1-3.1,1.9
			c-1-0.1-0.9-0.1-1.6,0.6l-2.9,2.2l-2,0.3c0.3-0.4,0.5-0.3,0.9-0.7l0.8-0.9c-0.8,0-0.5,0.2-0.6-0.4c-1,0.3-2.2,1.5-3.3,1.9
			c-0.6,0.2-0.7,0.3-1.3,0.6c-0.5,0.3-0.7,0.2-1.4,0.3c-1.4,0.2-2.4,1.4-3.3,2.1v-0.9c0.7-0.5,0.8-0.3,1-1.3c0.2-0.8,0.7-1.4,0-1.4
			c-0.5,0-2.5,1.6-2.8,1.8c-0.2-0.9-0.6-0.2-0.9-1.4l0.4-1.8c-0.9-0.2-1-0.5-1.7-0.8c-0.4-0.2-0.3-0.1-0.8,0.1
			c-0.3,0.1-0.7,0.3-1,0.3c-1.1,0.1-0.9-0.2-2.2,0.1l-1.6-0.6c0.1-0.5,0.3-0.5,0.5-0.9c0.4-0.6,0.2-0.4,0.3-1.1l1.1-1.9
			c-1.8,0-3.2,0.5-4.9,0.2c-2.6-0.5-2.6-0.2-4.7-0.3c-0.5-2,0.4-1.7,0.7-1.7c0.6-0.2,0.6-0.5,1.4-1.4c0.8-0.8,1-1.3,1.8-1.9
			c1.5-1.1,0.2-0.6,1.8-1.9c1.5-1.1,0.5-0.7,2.4-1.5l3-1.5c0.5-0.2,1-0.8,1.9-0.9c2.6-0.5,1.8-1,3.9-1.8c1.2-0.5,2.4-0.8,3-1.5
			c0.5-0.5,4.6-2.3,5.6-2.8c2.2-1.1,2.8-1.3,4.7-2.9c0.4-0.3,3.9-2.4,4.7-2.8l1.5-0.5c-0.1-0.8-0.3-0.2-1.9,0.4l-7.4,3.7
			c-1.4,0.6-2.2,1.2-3.2,1.5c-3,1-1.3,1.2-4.5,0.2c0.1-0.9,1.7-1.5,3.1-2.5l1.2-0.8l-0.6-0.5c1.2-1.8,0.4-0.5,1.2-1.3
			c0.3-0.3,0.7-1,1.3-1.3c1.2-0.5-0.1,0.4,1.6-0.8c0.5-0.4,1.1-0.5,1.7-0.8c1.2-0.5,1.6-1.5,2.8-2.2l3.4-1.5c2-1.1,1.2-0.8,2.3-2
			c0.6-0.7-0.5,0.4,0.1-0.2c0.7-0.7,1.3-0.2,1.9-0.9c0.4-0.5,0.5-1,1.1-1.4c1.2-0.8,1.4-0.1,3-0.7c0.4-0.2,0.4-0.2,0.7-0.6
			c0.3-0.5,0.6-1,1-1.4s1.1-0.9,1.3-1.2c-0.4,0-2,0.3-2.3,0.4c-1,0.4-0.9,0.3-2.3,0.4c-1.4,0.1-3.1,0.8-4.5,1l-4.6,0.9
			c-1.6,0.4-3,0.6-4.6,0.9c-1.6,0.4-5.1,1.4-6.5,1.6c-0.9,0.1-1.5,0.2-2.4,0.5c-1.4,0.4-3.1,0.7-4.4,1.1c-0.4,0.1-0.5,0.2-0.9,0.3
			l-3.5,0.8l2-1.4c-1.3,0.1-1.3-0.1-2.3-0.9c0.4-1.8,0.7-2,1.7-3.2c0.4-0.5,2.1-1.9,2.7-2.4c0.4-0.3,1.1-1.1,1.3-1.2
			c0.3-0.1,0.6-0.1,0.7-0.2c0.3-0.1,0.1,0,0.3-0.1c0.4-0.3,0-0.3,0.7-0.5c1-0.3,1-0.6,1.8-0.8c1.1-0.3,0.8-0.4,1.6-0.9
			c0.6-0.3,1.1-0.4,1.7-0.7c2.3-1.5,2.5-1,4.7-1.7c1.6-0.5,1.3,0.2,2.7-1.2c0.4-0.4,4.8-3.3,5.5-3.4c1.2-0.2,1.7-0.4,2.8-1
			c1.4-0.7,2.4-1.5,3.5-1.6c2-0.1,2.6-1.5,3.7-2.7c0.3-0.4,0.3-0.3,0.9-0.4c1.4-0.1,0.6-0.6,3-2.1c1-0.6,1.2-0.1,2.2-0.3
			c0.8-0.2,1.4-1.4,1.9-2c0.4-0.5,1.3-0.3,1.7-0.8c0.7-1,1.3-2.4,3.3-3.1c1.9-0.8,1.5-1,1.7-3c-0.8-0.4-0.4,0.6-1.6-1.1
			c0.3-0.1,0.5-0.2,0.7-0.4c0.3-0.2,0.4-0.4,0.7-0.6c0.3-0.2,0.4-0.2,0.7-0.4c0.4-0.3,0.3-0.3,0.7-0.5c1.1-0.7,3.3-2.2,4.2-3
			c0.5-0.4,0.9-0.7,1.5-1c0.8-0.3,0.9-0.1,1.7-0.7c2.6-2,4.8-1.7,6-2.5c0.3-0.2,0.5-0.3,0.8-0.5c2-1.2,2.1-1,3.3-1.6
			c0.4-0.2,0.3-0.2,0.7-0.4l4.5-1.8c1.1-0.5,2.1-1,3.3-1.5c1.4-0.6,5-1.8,6-2.4c2.3-1.3,5.9-5.7,7.7-7.6l0.3-0.4
			c-0.2-1.1,1.2-2.2,1.9-3.3l2.7-2.4c-0.1-0.3-0.3-0.3-0.4-0.6c0.8-1,1.7-1.5,2.8-2.1c1.2-0.6,2.2-1,3.8-1.3s2.5-0.7,4.4-0.4
			c2.2,0.3,5.1-0.1,7.2-0.2c1-0.1,1.3-0.2,2.1-0.4c0.4-0.1,0.6-0.1,1-0.3c0.8-0.4,1.8-0.8,2.7-1.1c0.7-0.2,6.1-2,6.7-2.1
			c0.7-0.1,0.4-0.1,0.9-0.3c1.6-0.7,4.4-0.7,6.3-1.3c2.5-0.7,6.1-1.1,8.7-1.4c0.8-0.1,2.8-1,3.7-1.3c0.7-0.2,1.4-0.2,2.1-0.4l2-0.6
			c1.5-0.4,5.6-0.6,6.9-0.4c3.8,0.5,7.5-0.3,11-1.3c1.8-0.5,3.9-0.9,5.4-2.1c0.5-0.4,0.9-0.8,1.5-1.1c1.1-0.7,1.6-1.7,2.5-2.5
			c0.3-0.3,0.3-0.3,0.6-0.7c2.2-2.9,6.3-7.8,9.9-9c2.9-1,5.8-2.1,8.9-2.5c0.6-0.1,1-0.1,1.5-0.3c0.1,0,0.5-0.1,0.6-0.2
			c1.2-0.2,2.6,0,3.8,0c1.9,0,1.6,0,3.2-0.6h0.1c0.6-0.2,0.7-0.5,1.3-0.8c0.3-0.1,0.6-0.2,0.9-0.4c1.3-0.6,2.7-1,4-1.7
			c0.3-0.2,0.1-0.1,0.5-0.3c0.5-0.3,2.1-0.4,3.1-1.7c0.2-0.2,0.4-0.5,0.6-0.7c0.1-0.1,0.2,0.1,0.4,0.1c0.2,0.1,0.5,0,0.8,0v0.4
			c0.8-0.4,1.6-1.1,2.5-1.3c0.9-0.1,0.4,0.2,1.4-0.1c1.5-0.5,3.1-1,4.5-1.3c1.6-0.4,3.3-0.7,5.1-0.7h2.1c1.1,0.1,2.1,0.2,3.1,0.5
			c1.7,0.5,5.3,3.1,3.5,3.3c-0.4,0-0.9-0.2-1.7-0.1c-1,0.2-2.1,0.5-3.1,0.8c-1.3,0.4-3.3,0.7-4.3,1.5c-0.8,0.6-4,2.1-5,2.7
			c-0.8,0.4-1.5,1-2.3,1.5c-1.1,0.8-2.3,1.5-3.3,2.4l-1.2,0.8c-0.5,0.2-4.3,3.1-4.9,3.7c-0.8,0.8-1.1,1.1-1.4,1.4c0,0,0.1,0,0.2,0.1
			c0.4,0.2,0.9,0.2,1.4,0.2l0,0c-0.5,0-0.9,0-1.4-0.1c-0.1,0-0.1,0-0.2-0.1c-0.1,0.1-0.3,0.3-0.4,0.5c0.6,0.2,1.5,0.3,2,0.3l0,0
			c-0.7,0-1.4,0.1-2.1-0.1c-0.1,0.2-0.3,0.4-0.4,0.6c0.8,0.1,1.6,0.2,2.4,0.2l0,0c-0.8,0-1.7,0.1-2.5-0.1l-0.2,0.3l2.7,0.4
			c-1.2-0.1-1.1-0.1-2.8-0.1l0,0l-0.3,1c1.8,0.4,7.3,0.1,9.7,0.1c2.2,0,6.8,0.6,8.8,1c1.3,0.3,2.7,0.6,4.1,0.7
			c2.1,0.2,7.4,1.9,9.1,3.2l1.3,1.3c-1.1,0-1.2,0.2-2.1,0.3c-0.7,0.1-1.6,0.2-2.2,0.2c-2.2,0.3-7.6,0.6-9.4,0.4
			c-0.6-0.1-1.7,0-2.2,0.1c-0.9,0.2-0.1,0.5-1.9,0.4c0.4,0.6,0.9,0.9,1.4,1.3c-1.1,0-1.7-0.1-2.7-0.4c0.1,0.3,0.1,0.8,0.2,1.1
			c0.2,0.4,0-0.1-0.5,0.1l-1.7,0.7c-0.3,0.1-0.4,0.7-0.4,1.2c0,0.3,0.1,0.4,0.2,0.5c-0.8-0.2,0-0.1-1.2-1.3
			c-0.1-0.1-0.1-0.1-0.1,0.1c-0.1,0.5-0.3,1,0,1.4c-0.4-0.3-0.3-0.3-0.6-0.7l-0.3-0.6c-0.5,0.2-1.3,1.2-1.6,1.2
			c0.2-0.1,0.2-0.4,0.2-0.6c-0.1-0.3-0.3-0.6-0.5-0.9c-0.3,0.4-0.4,0.7-0.9,0.9c-1.2,0.6-1.5,1.3-2.6,2.7c-0.5-0.4-0.3-0.8-0.8,0.2
			c-0.7,1.3-1,3.1-1.5,4.5c-0.7,1.9-1.2,3.8-2.3,5.5c-0.3,0.4-0.4,0.7-0.7,1.2c-1,1.6-2.7,4.7-4.1,5.7l-2.2,1.8
			C862.7,125.2,863,125.6,863.2,124.7L863.2,124.7z M816.8,219.4c-0.2,0.4-0.3-0.1-0.5,0.3c-0.1,0.1,0,0.4-0.4,0.5
			c-1.3,0.3-2.2,0.8-2.8,1c-0.6,0.1-1.8,0.2-2.4-0.1c-0.1-0.1-0.5-0.1-0.8-0.2c-0.3-0.1-1-0.5-1.6-0.8c-0.1,0,0.4,0.1,0.4,0
			c0.2-0.1,0.1-0.2,0.2-0.3c0.2-0.1,0.5,0,0.8-0.1c0,0,1-0.4,1.1-0.4c0.6-0.2,2.2,0,2.5,0c0.2,0,0.7,0.1,1,0c0.3,0,0.8-0.2,1.2-0.2
			c0.2,0,0.5,0.2,0.6,0.2C816.8,219,816.9,219.2,816.8,219.4L816.8,219.4z M823.3,219.6c0.1-0.5-1.3-0.3-1.7-0.2
			c-0.8,0.1-0.5,0.4-1.2,0.6c-0.3,0.1-1,0.9-0.7,1.1c0.3,0.2,0.5-0.2,1-0.2c0.3,0,2-0.9,2.3-1.1
			C823.3,219.7,823.3,219.7,823.3,219.6L823.3,219.6z"/>
	</g>
</g>
</svg>
