<svg version="1.2" xmlns="http://www.w3.org/2000/svg" viewBox="0 0 942 756" width="942" height="756">
	<style>
		.s0 { fill: #001521 } 
		.s1 { fill: #163d4c } 
		.s2 { fill: #163e4d } 
		.s3 { fill: #455c63 } 
		.s4 { fill: #294f5d } 
		.s5 { fill: #e6deca } 
		.s6 { fill: #1a4352 } 
		.s7 { fill: #284f5e } 
		.s8 { fill: #1a4553 } 
		.s9 { fill: #1b4654 } 
		.s10 { fill: #1a4452 } 
		.s11 { fill: #00121d } 
		.s12 { fill: #194351 } 
		.s13 { fill: #1c4756 } 
		.s14 { fill: #1b4554 } 
		.s15 { fill: #1b4755 } 
		.s16 { fill: #29505f } 
		.s17 { fill: #01121d } 
		.s18 { fill: #1d4957 } 
		.s19 { fill: #1e4a58 } 
		.s20 { fill: #1f4b59 } 
		.s21 { fill: #01131e } 
	</style>
	<path class="s0" d="m482 6c9.8 6.8 15.8 16.1 20.7 26.7 1.6 2.9 3.6 5.2 6 7.5 3.2 4.3 3.6 9.6 4.2 14.8 1 7.7 2.6 15.2 4.4 22.8 3.9 17.3 6.9 34.7 9.7 52.2q0.8-1.4 1.6-2.9c4.6-8.4 9.5-16.5 14.8-24.5q0.6-1 1.3-2.1 0.6-0.8 1.2-1.7c2.2-3.5 3.4-5.7 2.9-9.8q-0.1-1.2-0.2-2.4-0.2-2.3-0.5-4.7c-0.5-5.9 0.5-10 3.9-14.9 3.3-3 5.1-3.9 9.6-4.3 2.9 0.3 5.6 0.7 8.4 1.3q0.1-5.7 0.2-11.3 0-1.6 0.1-3.2c0-7.3-1-13.6-3.3-20.5-0.6-1.8-0.6-1.8-1.2-3.7q-0.4-1.1-0.8-2.3c5.4 0.3 9.2 3.4 13 7 2.3 2.8 4.2 5.8 6 9q0.5 0.9 1 1.9c3.7 8 3.1 17.9 0.2 26.1-1.2 2.8-2.4 5.4-3.9 8-1.3 3.1-1.5 5-1.7 8.2-0.5 7-2.4 13-7.7 17.7q-1.2 0.9-2.5 1.9c-13.6 11.6-20.2 31.7-27.4 47.6-8.5 18.7-8.5 18.7-14.3 25.2q-1.5 1.6-2.9 3.2-0.7 0.8-1.4 1.7c-2.1 2.2-4 4.6-5.9 7-5.5 6.8-11.2 13.5-16.9 20.2q-12.4 14.5-24.3 29.4-5.4 6.7-10.8 13.4c-2.6 3.1-5.1 6.2-7.5 9.5 1.4 3.3 3.1 5.3 5.7 7.7 2.7 2.7 5.3 5.4 7.8 8.3 2.4 2.8 4.9 5.4 7.5 8 2.6 2.6 5.1 5.2 7.6 8 0.8 0.9 0.8 0.9 1.6 1.9 1.8 2.1 1.8 2.1 3.2 4.2 2.4 3.2 4.3 5.5 8.2 6.7 3.1 0.5 6.2 0.7 9.3 0.8 22.2 1.9 43 8.3 64.1 15.4q0-1 0-2-2-0.5-4-1 0-1 0-2-0.9-0.4-1.8-0.8c-2.3-1.3-4-2.6-5.9-4.5-4.1-3.7-8.6-6.7-13.3-9.7 2-2 2-2 4.1-2.2 30.2 2.1 57.2 18.2 79.9 37.2q0.9 0.7 1.8 1.5c7.3 6.1 14.5 12.5 21.5 19q4.3 4 8.7 7.8 2.2 1.9 4.4 3.9c5.5 5.1 11.3 9.6 17.6 13.8q1.5 1 3 2c4.8-0.3 7.9-1.9 11.9-4.5q1.7-1.1 3.4-2.2 0.8-0.5 1.8-1.1c3.5-2.2 7.1-4.2 10.7-6.2q1.1-0.6 2.2-1.2 2.5-1.4 5-2.8c-5.9-61.5-22.2-127.1-51.1-181.9-0.9-2.1-0.9-2.1-0.9-5.1 8.1-4 21.6-0.4 29.8 2.2 30.8 10.7 56.4 32.2 76.2 57.8q1.3 1.6 2.6 3.2c14.6 18.3 27.4 37.8 39 58.2q0.8 1.3 1.6 2.7 0.7 1.2 1.4 2.5c0.6 1.1 0.6 1.1 1.3 2.2 1.2 2.4 2.2 4.7 3.1 7.2q0.8 0.1 1.7 0.2c29.5 3.8 52 12.9 74.3 32.8q1.1 0.9 2.2 1.9c23.3 21.5 34.2 55 36 85.8 0.6 16.9-0.3 33.6-3.2 50.3q-0.3 1.7-0.6 3.4c-5.9 33.5-16.7 69-37.4 96.6q-0.5 0-1 0c-0.3-9.2-0.7-18.5-1-28-1.3 4-2.6 7.9-4 12-9.3 26.7-19.9 55.2-41 75-0.2-12.4 0.4-24.7 1-37q-0.6 1.6-1.2 3.2c-7.2 18.4-17.3 33.3-30.8 47.8q-0.9 1-1.8 2c-4.2 4.5-8.9 8.2-13.8 11.8q-0.9 0.7-1.9 1.4c-4 2.9-7.9 5-12.5 6.8 1.6-8.5 3.7-16.7 6-25q0.4-1.5 0.8-3 0.3-1.3 0.7-2.7c0.6-2.4 0.6-2.4 0.5-5.3q-0.5 0.7-1.1 1.5c-5.5 7.3-11.6 13.9-17.9 20.5q-1.2 1.3-2.4 2.6c-4.6 4.6-9.4 8.8-14.6 12.8-2.1 1.5-2.1 1.5-3 3.6q0.8 0.1 1.6 0.1c8.2 0.7 16.2 2.1 24.3 3.5q1.1 0.2 2.3 0.4c22.5 3.9 45 8.1 67.3 13.2q1.5 0.3 3 0.7c20.1 4.7 20.1 4.7 25.5 10.1-0.1 1.8-0.1 1.8-1 4-26.1 19.6-77.9 17.9-109.7 21.7q-2.2 0.3-4.5 0.6c-13.1 1.6-26.2 2.6-39.3 3.5q-5.3 0.4-10.7 0.8c-23.3 1.7-46.5 2.6-69.9 2.3q-1 0-2 0-2-0.1-4-0.1c-25.4-0.3-49.8-0.1-74.8 5.5-14.2 3.1-28.6 3-43.1 2.7 2.1-2.3 4-3.6 6.9-4.9q1.1-0.5 2.3-1.1 1.2-0.5 2.4-1.1c6.8-3.1 13.4-6.4 19.8-10.2q1.1-0.6 2.2-1.2c3.6-2.2 6.6-4.3 9.4-7.5q-1.5 0.5-3.1 1.1c-28.9 9.8-58.4 17.8-88.9 20.9q-1.5 0.2-3 0.3c-37.2 3.6-77.7 5.1-114-4.3q0-0.5 0-1 1.4-0.2 2.9-0.4 5.4-0.8 10.7-1.6 2.4-0.3 4.7-0.6c15.5-2.3 30.8-5.1 46.2-8.4q3.1-0.7 6.2-1.3c9.2-1.9 18.3-4.2 27.3-6.7q-1.3 0.2-2.7 0.4-4.9 0.6-9.8 1.3-2.5 0.3-5 0.6c-17.5 2.4-34.9 4.1-52.5 5.5q-2.8 0.3-5.7 0.5c-19.7 1.7-39.4 1.9-59.2 1.9q-3 0.1-6.1 0.1c-23.3 0-46.4-0.7-69.3-4.9-1.9-0.3-1.9-0.3-3.9-0.6-4.9-0.9-9.9-1.8-14.8-2.8q0.5-1 1-2c2.7-0.7 5.3-1.2 7.9-1.7 1.3-0.2 1.3-0.2 2.6-0.4q2.7-0.5 5.4-1 7.1-1.3 14.3-2.7c1.4-0.2 1.4-0.2 2.9-0.5 15.7-3 31.3-6.4 46.9-9.7q-1.3 0-2.6 0c-201.1-1.5-201.1-1.5-231.4-23 0.7-1.9 0.7-1.9 2-4 7.2-3.1 15.9-3.4 23.6-4q1.6-0.2 3.1-0.3c10.2-0.8 20.5-1.3 30.7-1.7q3.1-0.1 6.1-0.2c17.5-0.7 35.1-1.3 52.6-1.9q2.1 0 4.3-0.1 7-0.2 14.1-0.4c1.8-0.1 1.8-0.1 3.6-0.1q11-0.4 21.9-0.3 0-1 0-2-0.9 0.1-1.9 0.1c-10.5 0.3-20.6-1.5-31-3.2-1.4-0.2-1.4-0.2-2.9-0.4-23.8-3.9-47.3-8.9-70.2-16.5q-1.2-0.4-2.4-0.8c-9.3-3.1-18.1-6.7-26.8-11.3-1.2-0.6-1.2-0.6-2.4-1.2-4.8-2.6-9.8-5.5-13.4-9.7q0-1.5 0-3c8.1-2.5 16-3.8 24.4-4.6q1.7-0.2 3.4-0.4c12.8-1.3 25.4-2.2 38.3-2.3q2 0 4.1-0.1 5.5-0.1 10.9-0.1 5.6-0.1 11.1-0.2 10.9-0.2 21.8-0.3-0.9-0.5-1.7-1c-21.1-11.9-21.1-11.9-30.6-18.5q-1.4-0.9-2.8-1.9-11.1-7.8-21.9-16.1-3.1-2.4-6.2-4.7c-17.3-13-34.2-26.6-50.1-41.3q-3.2-3-6.5-5.8c-46.3-40.4-46.3-40.4-52.2-55.7 0.2-2.5 0.6-3.6 2.5-5.4q0.8-0.7 1.8-1.3c0.8-0.6 0.8-0.6 1.7-1.2 12.2-6.5 29.8-0.7 42 2.9 12.5 4 24.5 8.9 36.5 14.2 1.2 0.6 1.2 0.6 2.5 1.1q1.1 0.5 2.2 1c1.8 0.8 1.8 0.8 3.8 0.7-0.7-0.6-0.7-0.6-1.5-1.1-6.7-5.5-13.2-12.6-14.6-21.4 0.1-3.5 0.1-3.5 2.1-6.5 29.6-3.2 70.5 20.4 97 32q-1.2-0.7-2.4-1.4c-15.1-8.8-29.5-18.2-43.6-28.6q-2.1-1.6-4.2-3.1c-7.5-5.5-14.8-11.3-21.8-17.4-3.5-2.9-7-5.7-10.5-8.5-7.6-6-14.9-12.2-22-18.7q-3.1-2.8-6.2-5.5c-4.1-3.5-8-7.2-11.9-10.8q-0.9-0.9-1.9-1.8-5.6-5.2-10.9-10.7c-1.5-1.4-3-2.7-4.6-3.9-3-2.6-5.5-5.4-8-8.4-2.2-2.4-4.5-4.7-6.9-7-4.2-4.2-8-8.6-11.8-13.3-2-2.5-4.1-5-6.2-7.4-14-16.1-32.6-38.1-31.1-60.5 26.9-2.2 56.1 12.8 78 27.1 2.5 2 2.5 2 4 1.9q-0.7-0.7-1.4-1.4c-27.3-26.5-52.3-65.7-53.7-104.7q0-3.4 0.1-6.9c6.4-2.2 12.8 1.9 18.5 4.7 22.7 11.4 41.7 28.3 59.6 46.2q1.3 1.3 2.8 2.8c6.1 6.1 11.7 12.5 17.1 19.3q1.4 1.7 2.8 3.5 3.1 3.7 6.2 7.5-0.7-1.2-1.5-2.5-3.3-5.8-6.5-11.5-0.5-0.9-1-1.8c-8.8-15.6-15.6-31.9-20-49.2q-0.3-1.1-0.6-2.1c-1.3-5.6-1.7-10.9-1.7-16.6 0-1.4 0-1.4 0-2.7 0.2-9.3 1.4-18.5 6.3-26.6 15.6 2.3 30.4 26.7 39.2 38.4 6 8.1 11.5 16.5 17.1 24.9q2.5 3.9 5 7.7c13 19.7 24.6 40.2 35.7 61q0.7 1.3 1.4 2.6 8.1 15.2 15.6 30.5 1.4 2.8 2.9 5.5c8 15.9 15.6 32 22.4 48.4 0.4 1 0.4 1 0.8 2.1 1.9 4.6 1.9 4.6 1.9 6.9q0.9-0.5 1.8-1 4-2.4 8.1-4.7 1.3-0.8 2.8-1.6c6-3.4 12.1-6.7 18.3-9.7-3-3.2-6.2-6-9.7-8.7-13.2-10.5-25.8-21.2-29-38.5-1.1-10.7-1.7-21.2 3.7-30.8q1 0 2 0 0.5 2.5 1 5c2.4-2.2 4.1-4.6 5.9-7.3q0.8-1.3 1.6-2.7 0.9-1.4 1.8-2.8 1.9-3 3.8-6 1-1.6 2-3.2 3.5-5.6 7.1-11.2 10.2-16 20.3-32.2 3.3-5.3 6.6-10.5c0.7-1.1 0.7-1.1 1.5-2.3q1.2-2 2.5-4c3.3-5.2 4-8.7 4.2-14.9 0.5-7.4 2.6-13.7 5.9-20.3 5.1-16.1-14-46.5-20.4-61.4q-1.8-4.2-3.4-8.3-0.4-1-0.8-2-1.1-2.6-2.1-5.3c-1.7-3-2.7-3.6-6-4.5q-1.1-0.3-2.3-0.5c-5.1-1.4-7.6-6.5-10.1-10.8-1.9-6.5-2.3-12.8 0.9-18.8 0.1-5.2-2.2-8.3-5.6-11.9-7.5-6.5-16.7-11-26.4-13.1q0-1 0-2c9.9-4.1 20.5-4.6 30.7-1 9.2 4.1 16.8 10.9 21.3 20q0 1 0 2 1 0.3 2.1 0.6c6.3 3.1 9.7 8.9 11.9 15.4q0.4 2.3 0.8 4.7c1.1 5.2 2.9 9.7 5.1 14.6 4 9.1 7.8 18.3 11.5 27.6q0.4 1 0.8 2 1.2 2.9 2.3 5.7 0.6 1.6 1.3 3.3c1.2 3 2.2 6 3.2 9.1q2.1-7.4 4.1-14.8 0.7-2.5 1.4-5c0.3-1.2 0.3-1.2 0.7-2.4q0.3-1.2 0.7-2.5 0.9-3.5 1.9-7 1.1-3.9 2.2-7.7 0.4-1.5 0.8-3 0.4-1.1 0.7-2.4c0.6-2.5 0.7-4.7 0.5-7.2-1.4-2.1-1.4-2.1-3.4-3.9-4-4.3-5.3-7.6-6-13.4 0.6-6 2.6-10.9 6.9-15.1 5.7-3.6 5.7-3.6 9.5-3.6-3.9-13.3-11.2-26.1-23-34q0-1 0-2c8.5-0.8 16 2.2 22.8 7.3 10.2 8.5 17 21.2 18.7 34.3 0.5 2.5 1.2 3.9 2.6 5.9 2.7 5 2.7 9 1.9 14.5-0.9 2.9-2.1 5.7-3.4 8.4-6 13.5-10.7 27.4-15.4 41.4q-0.9 2.5-1.7 5c-2 5.7-2 5.7-3.9 11.3q-0.8 2.6-1.8 5.1c-0.8 2.6-1 4.6-1 7.3q0 1.2 0 2.4 0 1.2 0.1 2.5c0 1.2 0 1.2 0 2.5q0 3 0.1 6.1c17.6-10.8 17.6-10.8 28.8-26.7 2.1-6.3 3.9-10.6 10-13.7q3.1-1.5 6.3-2.8c6.6-4.1 8.9-10.7 11.2-17.9q0.3-1.1 0.7-2.3c1.4-4.2 2.4-8.2 3-12.6 3 1 3 1 3.9 2.6q0.3 1 0.7 2.1 0.4 1.1 0.8 2.3c5.4 16.9 2.7 26.8-4.4 43q-0.4 1.4-0.8 2.9c-3.3 8.7-8.9 14-16.4 19.3q-1.3 0.9-2.6 1.9-2.8 2-5.5 4c-4.2 3-8.4 6.1-12.6 9.2q-1.2 0.9-2.4 1.8c-6.7 4.8-13.2 9.8-19.7 14.9q-0.8 0.6-1.6 1.2c-3.1 2.6-5.5 5-7.8 8.4-2.3 3.6-4.8 7-7.3 10.4-4.6 6.2-8.5 12.8-12.5 19.4q-1.7 2.8-3.3 5.5-1.2 1.9-2.3 3.8c-3.9 6.5-7.9 12.9-11.9 19.4q-1.4 2.3-2.9 4.6-1.5 2.5-3.1 5-0.9 1.3-1.7 2.7-0.8 1.2-1.6 2.4c-1.3 2.3-1.3 2.3 0 5.2 0.1 4.6 0 8.5-1 13q1.6 1 3.2 2.1 7.4 4.9 14.8 9.9 1.4 0.9 2.8 1.9c21.3 14.3 21.3 14.3 30.2 22.1q1.3 1.1 2.6 2.2 3.8 3.3 7.4 6.8 1 1 2.1 2c6.8 6.8 10.2 15.3 13.9 24 0.6-13-1.8-26.6-9.9-37-2.3-2.5-3-3-6.5-3.9q-1.3-0.1-2.6-0.1c1.2-3.7 2.7-4.2 6.1-5.9q1-0.5 2.1-1 1.1-0.5 2.2-1c18.9-9.1 41.5-14.5 62.6-14.1q0-1 0-2c-0.9-0.3-0.9-0.3-1.7-0.7-7.8-4.5-12.9-13.9-15.3-22.3-0.8-3.6-1.2-6.9-1.2-10.6q0-1.3 0-2.8c0.2-2.7 0.8-4.3 2.2-6.6 2.6 2.3 3.8 4.4 5.2 7.6q0.5 1.1 1 2.3c0.8 2.1 0.8 2.1 0.8 4.1q1 0 2 0 0-0.9-0.1-1.7c-0.2-11 0.7-22.1 7.1-31.3 2.2-1.8 2.2-1.8 4-3q0.5 2.5 1 5c0.5-0.8 0.5-0.8 1.1-1.7 5.1-7.5 10.8-14.5 16.5-21.6q2.8-3.4 5.5-6.8c3.5-4.4 7.1-8.7 10.8-13q4.3-5.1 8.5-10.3 4.5-5.5 9-10.8 1.6-1.8 3.1-3.6c2.4-2.8 4.7-5.4 7.2-7.9 6.6-6.9 7.4-12.4 7.3-21.6 0-2.9 0.1-4.9 1-7.7 1.2-8.7-3.9-15.3-8.9-22q-4.2-5.5-8.4-10.9-2.4-3.1-4.8-6.2-1.5-1.8-3-3.7-0.6-0.9-1.3-1.7c-4.8-6.6-4.8-6.6-12-9.4-4.9-1-7.1-2.5-10.6-6.1-3.3-4.9-3.5-9.3-3-15 0.4-1.4 0.4-1.4 0.8-2.7 0.4-2.5 0.4-2.5-1.2-4.8-8-7.8-17-9.3-27.6-11.5q0-1.5 0-3c7.4-5 13.9-6.7 22.8-5.7 7.8 1.7 14.7 6 19.5 12.5q0.5 0.7 1 1.5c1.5 2.9 1.5 2.9 4.5 4.1 4.8 2.4 9 6.5 10.9 11.6q0.3 0.9 0.5 1.9c0.4 1.5 0.4 1.5 0.8 3.1q0.8 0.4 1.7 0.8c3.3 1.7 5.3 4.4 7.6 7.1q0.7 0.9 1.4 1.8c3.7 4.5 7.2 9.1 10.5 13.9 1.9 2.5 3.8 5 5.8 7.4-1.4-15.4-3.9-30.8-7.7-45.8q-0.4-1.3-0.7-2.7c-1.2-4.6-1.2-4.6-4.5-7.7-2.1-0.8-2.1-0.8-4.2-1.3-3-0.8-4.7-2.3-6.9-4.5-2.7-4.9-4-9.5-3-15 1.1-2.8 2.5-5.4 4-8q0.5-1 1-2c-4.2-10.8-11.6-18-22.1-22.8-2.9-1.2-5.9-2.2-8.9-3.2q0-1 0-2c11.4-4.1 22.3-2.4 33 3z"/>
	<path class="s1" d="m513 324c1.2 0.4 1.2 0.4 2.4 0.7 12.4 3.7 24.2 8.8 35.9 14.1q4.6 2 9.1 4c41.1 17.8 41.1 17.8 56.6 30.2-0.6-0.9-0.6-0.9-1.2-1.9-3.5-5.2-6.6-10.6-9.5-16.2-6-11.6-13.7-22.3-21.3-32.9q1-0.5 2-1c2.4 1 4.6 2.1 6.8 3.3q1 0.6 2 1.1c26 14.4 42.4 38.7 52.3 66.2q0.4 1.2 0.9 2.4c1.7 5.2 2.3 9.5 2 15-3.8-1.3-6.7-3.1-9.9-5.4-7.9-5.7-14.8-7.7-24.6-7.8-1.9 0-1.9 0-3.9 0-3.4 0.2-5.6 0.7-8.6 2.2q1.7 1 3.4 2c10.2 6 19.5 12.5 28.6 20 1.1 0.9 1.1 0.9 2.2 1.8 2.7 2.2 5 4.4 7.1 7.1 6.3 7.8 14.5 12.5 23.7 16.1q0 1 0 2c-13.1 4.3-25.2 7-39 7q0.6 0.6 1.3 1.2c3.2 3.2 6.2 6.4 9.1 9.9 7.7 8.8 17.2 13.3 28.6 15.9-8.6 6.9-19.2 7.3-29.7 7.5-4.9-0.7-6.2-3.1-9.1-6.8q-0.8-1.3-1.8-2.6c-28.7-40.1-71.3-62-119.4-70.1q-1.3-0.2-2.6-0.4c-21.6-3.6-43.6-3.3-65.4-3.6 3.4-3 7.2-4.3 11.4-5.7q1.1-0.4 2.2-0.7 2.3-0.8 4.5-1.5 3.5-1.2 6.9-2.3 2.2-0.8 4.4-1.5 1.1-0.3 2.1-0.7c3.6-1.2 6.7-1.9 10.5-1.6q0-1 0-2-0.9-0.2-1.9-0.3-1.2-0.3-2.5-0.5-1.3-0.2-2.5-0.5c-2.6-0.6-4.9-1.3-7.4-2.2-4.6-1.5-8.9-2.3-13.7-2.7q-1.3-0.1-2.6-0.2c-14.1-1.2-28.3-0.8-42.4-0.6 12.8-13.4 33.5-16.4 51-18q-5.1-1.5-10.1-2.9-1.4-0.5-2.9-0.9c-1.4-0.4-1.4-0.4-2.8-0.8q-1.3-0.4-2.6-0.7c-5.4-1.4-10.5-1.8-16.1-1.8q-1 0-2.1 0-2.2 0-4.4 0-3.3 0-6.7 0c-7.5 0-14.8 0.2-22.3 1.1 1.8-5.3 7.4-7.3 12-10q1-0.6 1.9-1.2c11.2-6.3 24.5-7.5 37-7.3q3.2 0.1 6.4 0c18.6 0.1 35.4 4.6 52.1 12.9 1.8 1 3.7 1.8 5.6 2.6q1-0.5 2-1-5.1-3.8-10.2-7.6-2.7-2.1-5.4-4.2c-8.2-6.1-16.4-11.3-25.4-16.2q-2.7-1.5-5.4-3-1.8-1-3.6-2 0-1 0-2c19.4-2.4 36.2-0.7 55 5z"/>
	<path class="s2" d="m570.1 469.5c21.8 18.8 37.3 48.8 39.7 77.5 2.2 34.5-4.7 64-27.2 90.8q-3.2 3.7-6.6 7.2-0.9 1-1.8 2c-12.4 13.2-31 24.6-48.2 30-2.4-0.3-2.4-0.3-4-1q0.7-0.4 1.4-0.7c12.9-6.9 24.2-15.1 34.6-25.3q1-0.9 2.1-1.9c7.2-6.6 12.5-15 17.9-23.1q1-1.5 2.1-3.1c8.5-13.5 12-28.4 12.1-44.1q0.1-1.2 0.1-2.4c0.1-6.8-1.5-12.9-3.3-19.4q-6.1 2.3-12.1 4.6-2 0.8-4.1 1.6c-14.3 5.4-28.3 12.3-35.2 26.8-1.3 6.7-0.6 13.3 0.4 20-6.2-0.6-11.2-4.1-15.4-8.5-3.2-5-4.6-9.5-3.6-15.5 3.5-9.9 10-16.5 19-21.6 8.1-3.7 17.1-5.7 26-5.4-1.8-6.8-5.6-9.1-11.3-13-4.5-3.3-9.1-7.6-10.1-13.3-0.3-4.2-0.5-7.4 2-11 6.3-6 15.5-11.7 24.4-11.7-3.9-4.4-9.5-6.4-15.3-7.4-10.2-0.3-20.4 3.6-28.7 9.4-5.3 5.1-9.1 9-9.4 16.5 0 6.9 2.4 11.1 6.4 16.5 1 1.5 1 1.5 2 3-6.9-0.5-14.3-1.8-19.7-6.5-3.9-4.5-4.7-8.4-4.6-14 0.5-4.3 2.2-7.8 4.3-11.5 0.5-1 0.5-1 1.1-2 7.1-11.1 22.1-17.2 33.9-22q1 0 2 0 0-1 0-2c-1-0.4-1-0.4-2-0.8-2.9-1.1-5.6-2.5-8.3-4-14-7.3-29.2-13-45.2-9.7-16 3.1-33.9-1.3-49.6-4.8-10.8-2.1-21.5-3.1-32.6-3.1q-3.2-0.1-6.5-0.1c-11.6-0.2-22.5 1.9-32.8 7.5 7.1 5.6 14.4 10.6 22.3 15.2q2.4 1.4 4.7 2.8 0 0.5 0 1c-6.8 0.2-12.9-0.5-19.6-2q-1.5-0.3-3-0.7c-19.1-4.4-37.3-12-55.4-19.3 2.1-3.2 2.6-3.5 6-4.7 1.2-0.5 1.2-0.5 2.5-0.9 1.3-0.4 1.3-0.4 2.6-0.9q1.4-0.5 2.7-0.9c16.7-5.6 33.7-6.7 51.1-7.4q2.5-0.1 4.9-0.2 6.4-0.2 12.7-0.5 6.5-0.2 13-0.5 12.8-0.5 25.5-1-2.4-1.2-4.8-2.4-1.3-0.7-2.7-1.4c-10.3-5-21.4-7.6-32.5-10.2q0-0.5 0-1 1.1-0.2 2.2-0.4 4.8-0.7 9.7-1.5 1.7-0.3 3.4-0.6 1.6-0.3 3.3-0.5c1.4-0.3 1.4-0.3 3-0.5 2.4-0.4 2.4-0.4 4.4-1.5 49.8-9.7 110.7 3.5 150.1 35.5z"/>
	<path class="s3" d="m774.2 687.3q1.1 0.2 2.3 0.4 3.9 0.7 7.7 1.4 2.7 0.4 5.4 0.9c22.3 4 44.7 8.1 66.9 13.2q1.5 0.3 3 0.7c20.1 4.7 20.1 4.7 25.5 10.1-0.1 1.8-0.1 1.8-1 4-26.1 19.6-77.9 17.9-109.7 21.7q-2.2 0.3-4.5 0.6c-14.2 1.7-28.6 2.8-42.9 3.8q-1.9 0.1-3.8 0.2c-19 1.4-38 2.5-57.1 2.7q-1.4 0-2.8 0-11.7 0.1-23.3 0.1-1.6 0-3.3 0c-11.6 0.1-23.1 0-34.6-1.1 3-3 6.7-3.2 10.6-4.1 19.3-4.6 37.6-11.2 55.4-19.9 1.1-0.5 1.1-0.5 2.3-1.1 15.5-7.4 29.5-17.2 43.7-26.9 0.5 1 0.5 1 1 2-1.1 2.5-2.3 4.9-3.6 7.4q-1.1 2.1-2.2 4.3-0.5 1.1-1.1 2.2-2.3 4.5-4.6 9.1-1.3 2.5-2.5 5c18.6-9.2 36.3-20.6 52.2-33.9q1.1-0.8 2.1-1.7c0.8-0.7 0.8-0.7 1.7-1.4 5.1-2.6 11.7-0.7 17.2 0.3z"/>
	<path class="s1" d="m699 199c12.8-1.4 26.3 8.4 36.1 15.7 24.5 19.5 42.3 45 59.8 70.7q5.1 7.5 10.2 14.8 0.9 1.4 1.9 2.8 1 1.5 2.1 3c4.9 7.9 4.9 17 3.9 26-1.1 4.3-2.9 8.1-5 12q-0.7 1.4-1.5 2.9c-5.4 9.8-12.4 19.4-20.5 27.1-0.1-0.9-0.1-0.9-0.2-1.8-5.1-44.9-21.1-81-48.2-117q-3.6-4.9-7.2-9.8-0.7-0.9-1.4-1.8c-3.9-5.4-7.7-10.9-11.6-16.4-3.9-5.6-8-10.9-12.2-16.3-6.2-8.3-6.2-8.3-6.2-11.9z"/>
	<path class="s4" d="m450 433c44-1.5 89.1 9.7 122.9 38.9 15.5 14.7 27.1 34.6 33.1 55.1q0.4 1.3 0.8 2.7c2.3 7.9 2.5 15.2 2.2 23.3q-0.4-0.9-0.8-1.8c-1.2-2.1-2.4-4-3.8-6-2.7-4-5-8.1-7.2-12.3-3.8-7.4-8.2-14.3-13-21.2q-1.7-2.4-3.3-4.8c-10.4-14.8-24.5-25.7-39.6-35.4q-3.2-2.1-6.3-4.2c-17.1-11.3-36-18.3-55.5-24.5q-3.4-1.1-6.8-2.4c-3.2-1.2-6.4-2.2-9.7-3.1q-1.4-0.4-2.9-0.7-1-0.3-2.1-0.6 0-1 0-2c-2.6 0-5.3 0-8 0q0-0.5 0-1z"/>
	<path class="s5" d="m836 370c5 0 9.9 0 15 0 0.9 2.8 1.3 5.1 1.5 8.1 0.2 1.5 0.2 1.5 0.3 3 0.1 1.6 0.1 1.6 0.3 3.2q0.1 1.6 0.2 3.1c0.5 4.9 0.8 9.7 0.7 14.6q1.5-0.2 3.1-0.5c6.3-0.8 12.6-0.6 18.9-0.6 1.9 0 1.9 0 3.8 0.1q4.6 0 9.2 0c0 4.6 0 9.2 0 14-16.3 0.5-16.3 0.5-33 1 0.7 7.4 0.7 7.4 1.3 14.9 0.6 6.4 0.8 12.7 0.7 19.1-5.3 0-10.6 0-16 0q-0.5-6-1-12-0.1-1.7-0.3-3.4-0.1-1.7-0.3-3.4-0.1-1.5-0.2-3c-0.2-3.7-0.2-7.5-0.2-11.2-11.2 0-22.4 0-34 0-0.7-3.6-1.1-6.2-1.1-9.8q0.1-1.2 0.1-2.4 0-0.9 0-1.8c11.3-0.6 22.6-1.2 34-1-0.5-1.5-0.5-1.5-1-3q-0.3-3.3-0.5-6.6-0.2-2-0.3-4-0.1-2-0.3-4.1-0.1-2.1-0.2-4.1-0.4-5.1-0.7-10.2z"/>
	<path class="s6" d="m721 255c13 12.5 22.4 28.8 30.1 45q1.3 2.7 2.6 5.4c9.1 19.1 26.5 59.5 19.4 80.3-0.9 2.1-2 4.2-3.1 6.3q-1 0-2 0-2.6-5.3-5.2-10.6c-0.7-1.4-0.7-1.4-1.5-2.9-6-12.5-9.7-25.6-13.5-38.9-11.6-40.6-11.6-40.6-26-80.3-0.8-2.3-0.8-2.3-0.8-4.3z"/>
	<path class="s7" d="m705 200c24.9 2.5 46.9 28.2 61.9 46.5 10 12.5 19 25.7 28 38.9q5.1 7.5 10.2 14.8 0.9 1.4 1.9 2.8 1 1.5 2.1 3c4.9 7.9 4.9 17 3.9 26-1.1 4.3-2.8 8.1-5 12q-0.9 1.6-1.8 3.3c-4.6 8.3-4.6 8.3-8.2 10.7 1.5-4.2 3.7-8 6-11.8 2.9-5 5.1-9.5 6-15.2q-1 0.5-2 1-1-0.5-2-1-0.6-4.2-0.9-8.4c-1.2-11.8-2.8-19.4-12.3-27.1-3.2-2.8-5.8-5.9-8.4-9.1-3.6-4.3-7.2-8.1-11.5-11.7-3.1-2.7-5.7-5.8-8.5-8.9-2.6-3.1-5.4-6-8.1-9-11.3-12.3-11.3-12.3-11.3-14.8q-1 0-2 0-2.3-2.5-4.5-5.2-1.2-1.5-2.4-3c-1.7-2.2-3-4.2-4.1-6.8q-1 0-2 0-2-2.7-3.9-5.4c-3.1-3.9-6.5-7.4-10-11-2.5-2.8-4.5-5.2-6.1-8.6-2.6-0.8-2.6-0.8-5-1q0-0.5 0-1z"/>
	<path class="s8" d="m356.9 510.1c5 1.6 10 2.8 15.1 3.9q0 0.5 0 1c-13-0.9-26.2-2.6-38.9-5.5-14.3-3.2-28.8-4.8-43.5-4.9q-1.5 0-3.1 0c-6.3 0-11.6 1-17.5 3.4 15.3 14.9 32.8 26 51.3 36.5 5.3 3 10.5 6.2 15.7 9.5-4.3 1.4-7.3-0.1-11.4-1.6-1.3-0.4-1.3-0.4-2.6-0.9-29.1-10.7-59-26.2-78-51.5q0-1 0-2 2-0.7 4-1.4 1.1-0.4 2.2-0.8c34.6-9.5 74.1 3.6 106.7 14.3z"/>
	<path class="s8" d="m365.9 573.8q1.6 0 3.2 0 3.3 0 6.6 0 5.1-0.1 10.1-0.1c10.8-0.1 20.9-0.1 31.2 3.3q0 0.5 0 1c-4.1 1-8.1 1.2-12.2 1.4-8.7 0.5-17.2 1.7-25.8 3.2q-2.2 0.3-4.4 0.7-5.3 0.8-10.6 1.7c4.5 5.7 9.1 9.9 15.3 13.7q1.1 0.7 2.1 1.3c11 7 22.5 11.2 34.7 15.3q2.5 0.8 4.9 1.7 6 2 12 4 0 0.5 0 1c-21.6 0.8-42.7-4.4-62-14-1.6-0.8-1.6-0.8-3.1-1.5-10.2-5.5-21.2-13.9-27.9-23.5-0.2-2.6-0.2-2.6 1-5 7.8-4.4 16.2-4.2 24.9-4.2z"/>
	<path class="s9" d="m74 264c8.4 6.9 16.1 14.7 23.2 23 2.2 2.4 4.5 4.7 6.8 7 2.9 2.9 5.8 5.8 8.4 8.9 2.9 3.4 6 6.5 9.1 9.6 3.1 3 6.1 6.1 8.9 9.4 3.7 4.3 7.8 8.3 11.8 12.3 3.6 3.5 7 7.2 10.2 11 1.7 2 3.6 3.8 5.5 5.6 3.9 3.9 7.3 8.1 10.8 12.4 2.3 2.8 4.7 5.4 7.2 8.1 4.2 4.6 8 9.3 11.8 14.1 3.6 4.7 7.3 9.2 11 13.8 14.3 17.5 14.3 17.5 14.3 21.8-8.3-7.6-16.5-15.3-24-23.8-4.4-4.8-9.2-9.4-13.9-14.1-4-3.9-7.7-7.9-11.3-12.1-3.1-3.5-6.5-6.7-9.8-10-4.7-4.6-9.1-9.2-13.4-14.2-2.2-2.5-4.6-4.8-7-7.1-4.5-4.4-8.5-9.1-12.4-14q-3.3-4.05-6.9-7.8c-6-6.5-11.3-13.6-16.6-20.7q-3.4-4.4-6.8-8.9c-15.5-20.1-15.5-20.1-16.9-24.3z"/>
	<path class="s8" d="m366.3 630.9q2.5 0 5.1 0.1 6.3 0 12.6 0-0.5 1-1 2c-2.2 0.6-2.2 0.6-5.1 1.1q-1.6 0.3-3.3 0.7-3.3 0.6-6.7 1.2c-8.1 1.5-16.4 3.3-23.9 7 4.5 11 19.1 17 29.5 21.4 13 5.4 26.4 10.3 40.5 11.6q0 0.5 0 1c-12.2 0.2-23.9 0-36-2q-1.9-0.3-3.8-0.6c-18.4-3.2-34-11.4-48.2-23.4q-0.9-0.7-1.8-1.4c-3.6-2.9-6.5-5.9-9.2-9.6q0.5-1.5 1-3c2-0.9 2-0.9 4.5-1.6q1.4-0.3 2.8-0.7 1.3-0.3 2.7-0.7 1.1-0.3 2.2-0.6c12.5-3.1 25.4-2.5 38-2.5z"/>
	<path class="s8" d="m142 235c4.2 3.8 7.1 8.2 10.3 12.8q0.9 1.3 1.9 2.7c12.2 17.7 23.7 36 34.8 54.5q0.7 1.2 1.5 2.5c6.4 10.6 12 21.4 17.2 32.7 1.9 3.9 3.8 7.8 5.9 11.7 4.9 9.7 8.6 19.9 12.4 30.1q-1 0.5-2 1-0.9-1.5-1.8-3c-4.3-6.8-8.5-13.5-13-20.2-23.4-34.8-43.5-71.7-61.2-109.7q-0.4-0.9-0.9-1.9-1.3-2.7-2.5-5.4-0.8-1.6-1.5-3.3c-1.1-2.5-1.1-2.5-1.1-4.5z"/>
	<path class="s9" d="m149 517c8.8 2 17.1 4.7 25.4 8.1q1.9 0.8 3.8 1.5c25.9 10.4 51.9 21.5 76.8 34.4q6.4 3.3 12.9 6.5c1.4 0.7 1.4 0.7 2.9 1.4q9.7 4.9 19.6 9.5c4.6 2.1 9.1 4.3 13.6 6.6q0 0.5 0 1c-7.6-0.6-14.7-2.7-22-5q-1.1-0.4-2.3-0.7c-17.5-5.6-34.3-13-51.1-20.4-6.5-2.9-13.1-5.6-19.7-8.3-21.3-8.8-41.4-19.7-59.9-33.6q0-0.5 0-1z"/>
	<path class="s10" d="m51 322c4.5 1.5 7.9 3.9 11.6 6.8q2 1.4 4 2.9c1.1 0.8 1.1 0.8 2.2 1.6q3.4 2.6 6.8 5.1c9.1 6.6 18 13.4 26.6 20.5 3.7 3 7.5 6 11.2 8.9 4.6 3.6 9.1 7.3 13.4 11.3 3.3 2.9 6.8 5.7 10.2 8.5q4.8 3.9 9.6 8 6.8 5.8 13.8 11.3c3 2.4 5.9 4.9 8.8 7.4 5.2 4.4 10.5 8.7 15.9 12.8q6.7 5.2 12.9 10.9c-1 0.5-1 0.5-2 1-9-3.9-17.2-9.6-25.3-15.2q-2.6-1.8-5.3-3.6c-7.6-5.2-15.1-10.6-22.4-16.2q-1-0.8-2-1.6-2.5-1.9-4.9-3.8-0.9-0.7-1.8-1.4c-5.7-4.4-11.2-9.1-16.7-13.8q-4.1-3.5-8.2-7-0.8-0.7-1.7-1.4-5.2-4.4-10.6-8.8c-3.6-2.9-7.1-6-10.3-9.4-1.7-1.7-3.5-3.3-5.4-4.9-5.1-4.4-9.8-9.2-14.5-14-5.2-5.2-10.2-10.3-15.9-14.9q0-0.5 0-1z"/>
	<path class="s11" d="m523.3 364.8c17.9-0.6 34.2 5 50.7 11.2q0 0.5 0 1-1.1 0-2.2 0.1-4.9 0.1-9.8 0.3-1.7 0-3.4 0.1c-6.2 0.2-11.7 0.7-17.6 2.5q1.2 0.6 2.4 1.2c19.9 10.3 19.9 10.3 25.6 18.8-9.6-1.8-18.7-5.2-27.7-8.9-3.2-1.3-6.3-2.4-9.5-3.4-23.3-7.4-23.3-7.4-30.8-16.7q0-1 0-2c7.5-2.9 14.3-3.7 22.3-4.2z"/>
	<path class="s12" d="m723 565c-2.3 6-5.4 11.4-8.5 16.9-0.9 1.7-0.9 1.7-1.9 3.4-4.7 8.4-9.8 16.1-15.6 23.7 5.6-0.7 11.2-1.3 17-2-2.4 2.4-3.7 3.6-6.7 5q-1 0.5-2.1 1.1c-1 0.5-1 0.5-2.1 1q-1.1 0.6-2.2 1.1c-12.6 6.2-26.7 4.6-39.9 0.8 3.6-3.7 7.3-6.9 11.4-10.1 9.2-7 17.9-14.5 26.4-22.3 4.6-4.2 9.4-8.2 14.2-12.2q1.1-0.9 2.3-1.9 1-0.9 2.1-1.8c1-0.7 1-0.7 2-1.6 1.6-1.1 1.6-1.1 3.6-1.1z"/>
	<path class="s12" d="m494 618c-1.6 3.3-5.2 4.2-8.4 5.7-6.7 3.2-12.7 6.8-18.6 11.3 5 11.4 20 17.9 30.8 22.2q1.1 0.4 2.2 0.8 0 0.5 0 1c-18.4 1.2-39-3.1-53.6-14.7-2.3-2.1-2.4-3.4-2.8-6.6 0.4-3.7 1.1-5.5 3.7-8.3 12.4-10.1 31.3-11.6 46.7-11.4z"/>
	<path class="s8" d="m418.1 524.8q3.1 0 6.2 0c7.8-0.1 15.1 0.4 22.7 2.2-3.9 2.1-7.6 2.5-12 2.9-9.3 1-18.2 2.9-27 6.1 1.5 11 7.2 16.9 15.8 23.7 5.8 4.2 12 7.7 18.2 11.3q2.5 1.5 5 3c-4.3 2.1-11.4-1.7-15.8-3.1-15.7-5.5-31.3-13.9-39.6-29-1.6-3.4-2.3-6.1-1.6-9.9 3.1-4.2 6.7-5.6 11.7-6.5 5.5-0.8 10.9-0.7 16.4-0.7z"/>
	<path class="s13" d="m146 554c5.7 2.2 11.3 4.9 16.8 7.6q1.6 0.7 3.2 1.4c6.7 3.3 13.3 6.8 19.9 10.5 7.2 4.2 14.6 8 22 11.8q1.1 0.6 2.2 1.1c14.2 7.3 28.5 14.3 43 21 25.8 12.2 25.8 12.2 36.9 19.6-6.5-0.6-12.3-2.2-18.4-4.4q-1.5-0.5-3.1-1c-37.5-13.6-73.5-33.4-106.5-55.6q-1.1-0.8-2.3-1.5-3.4-2.3-6.8-4.6-1-0.7-2.1-1.5-2.4-1.6-4.8-3.4 0-0.5 0-1z"/>
	<path class="s12" d="m504 559c-1.4 2.8-3.3 3.3-6.1 4.7-6.3 3.4-11.9 7.2-15.9 13.3-1.4 8.3 3 15 7 22q1.4 2 3 4-0.5 1-1 2-4-1.8-8.1-3.6-1.1-0.5-2.2-1c-6.9-3.2-13.6-7.2-16.7-14.4-0.4-2.9-0.4-2.9-0.4-6q0-1.5 0-3.1c0.6-4.2 2.1-6.8 5.3-9.6 10.6-6.5 22.8-9.2 35.1-8.3z"/>
	<path class="s10" d="m472 484c-1.4 2.8-2.9 2.9-5.8 4q-1.4 0.6-2.9 1.2-3.1 1.2-6.2 2.3c-1.4 0.6-1.4 0.6-2.9 1.2-1.4 0.5-1.4 0.5-2.7 1.1-2.8 1.3-4.5 3-6.5 5.2 5.7 10.8 14.3 14.9 25 20q2 1 4 2c-4.5 1.5-7.8-0.3-12.2-1.9q-1.3-0.4-2.7-0.9c-11.2-4.1-25.3-9.9-32.1-20.2-0.5-2.4-0.5-2.4 0-5 4.5-3.6 9.1-5.3 14.6-6.8q1.2-0.3 2.5-0.6c9.3-2.3 18.4-2 27.9-1.6z"/>
	<path class="s14" d="m291.3 410.8q1.2 0 2.4 0c5.7 0 10.8 0.8 16.3 2.2q0 0.5 0 1c-1.3 0.2-1.3 0.2-2.6 0.4-27 4.6-52.8 13.3-76.6 26.7-1.8 0.9-1.8 0.9-4.8 1.9 5.4-12.7 22.9-21.2 35.1-26.3 10-3.9 19.5-5.9 30.2-5.9z"/>
	<path class="s15" d="m764 456c8.6 15.6 8.7 42.5 4.5 59.5q-0.7 2.3-1.5 4.5c-5.7-4.4-6.8-15.6-7.8-22.4q-0.1-2.3-0.2-4.6-0.1-1.8-0.2-3.6c-0.3-11.6 1.3-22.4 5.2-33.4z"/>
	<path class="s16" d="m496 389c15.3 0.5 26.4 2 38.6 12.1 1.4 1.9 1.4 1.9 1.4 5.9-6.6-0.7-13.1-1.6-19.6-2.8-1.3-0.2-1.3-0.2-2.7-0.4-7.1-1.3-12.6-3.7-17.8-8.9-1.1-2.4-0.7-3.4 0.1-5.9z"/>
	<path class="s17" d="m795.6 316.9q1.2 0 2.4 0.1 0 1 0 2 2-0.5 4-1c0.5 6.5-0.7 10.4-4 16q1 0 2 0c1.8 3.6 1 7.2 0 11-1.7 3.3-3.6 6.3-6 9q-1 0-2 0c-2.4-17.8-2.4-17.8-2-25q0.1-1.3 0.2-2.7c0.7-9.2 0.7-9.2 5.4-9.4z"/>
	<path class="s10" d="m702 524c1.1 2.8 1 3.9 0 6.8-3.7 7.4-6.9 13.1-14.7 16.3-3.8 1-7.3 1.1-11.2 1q-1 0-2.1 0-2.5 0-5-0.1c3.4-3.8 7.3-6.2 11.7-8.8 6.1-3.7 11.8-7.7 17.3-12.2q2-1.5 4-3z"/>
	<path class="s18" d="m655 652c0.5 1 0.5 1 1 2-4 9.8-10 15.2-19.5 19.6-17 6.6-17 6.6-23.5 4.4q1.2-0.6 2.4-1.2c8.5-4.5 16.6-9.5 24.6-14.8q1-0.7 2.1-1.4 6.5-4.3 12.9-8.6z"/>
	<path class="s19" d="m745 604c0.5 1 0.5 1 1 2-5.2 14.2-18.8 25.4-32 32-13.1 5.6-13.1 5.6-18 4q0.8-0.5 1.7-1c17.6-10.3 34.4-20.9 47.3-37z"/>
	<path class="s20" d="m804 305c3.8 1.8 5.6 3.4 8 7 3.1 9.3 1.8 20.5-2.4 29.1q-0.8 1.4-1.6 2.9c-0.9 1.6-0.9 1.6-1.8 3.3-4.6 8.3-4.6 8.3-8.2 10.7 1.5-4.2 3.7-8 6-11.8 2.9-5 5.1-9.5 6-15.2q-1 0.5-2 1-1-0.5-2-1c-0.5-2.9-0.8-5.8-1.1-8.7q-0.2-2.4-0.4-4.8c-0.1-1.2-0.1-1.2-0.3-2.3-0.2-1.9-0.5-3.8-0.8-5.7-0.4-2.5-0.4-2.5 0.6-4.5z"/>
	<path class="s21" d="m470 457c7.5 0.5 14.6 1.6 21.9 3.3 1.4 0.3 1.4 0.3 2.9 0.6 7.3 1.8 14.3 4 21.2 7.1q0 1 0 2c-8.6 0-16.6-1.7-24.9-3.8q-1.4-0.4-3-0.8c-5.6-1.5-10.1-3.4-15.1-6.4q-1.5 0-3 0 0-1 0-2z"/>
	<path class="s19" d="m784 489c4.9 4.9 5.2 16.4 5.4 23.2-0.2 6.2-1.6 11.9-3.4 17.8q-0.5 0-1 0c-1.3-8.5-2.2-16.9-2.2-25.6q0-1.1 0-2.2c0.1-4.5 0.5-8.8 1.2-13.2z"/>
</svg>
