<?xml version="1.0" encoding="utf-8"?>
<!-- Generator: Adobe Illustrator 25.2.0, SVG Export Plug-In . SVG Version: 6.00 Build 0) -->
<svg version="1.1" id="Layer_1" xmlns="http://www.w3.org/2000/svg" xmlns:xlink="http://www.w3.org/1999/xlink" x="0px" y="0px" viewBox="0 0 695 441" style="enable-background:new 0 0 695 441;" xml:space="preserve">
	<style type="text/css">
		.st0{fill-rule:evenodd;clip-rule:evenodd;}
		@media (prefers-color-scheme: dark) {
		.st0 {
		fill: #ccc;
		}
		}
	</style>
	<g>
		<path class="st0" d="M106.9,148.8c10.6,8,12.9,20.7,21.9,29.8c11.3,23.9,25.6,46.6,44.5,65.1c-0.5-2-1.5-2.1-1.9-3.9
		c4.1,4.5,9.4,6.7,13.9,11.2l-1.5-3.5c4.6,5.3,4,4.6,10,8.5l-3.5-5c4.6,3.1,3.4,4,10.4,7.3c-0.8-1.2-1.2-0.9-1.5-2.3
		c3.9,2.2,5.2,5.1,10,5.8v-0.8c4.2,2.8,10.7,6,15.4,9.3c-1-1.5-1.3-0.8-2.3-2.3c10.3,5.9,20.5,14.7,32,18.5l0.8-1.2
		c8.5,5.4,12.1,9.3,18.9,15.4l1.9-2.3c8.8,20.1,32.1,35.3,25.9,59.4l1.2-0.8c1.6,10.3-7.3,15.7-14.1,21.4
		c-7,4.1-12.7,13.2-19.5,17.2c-7.1-8.7-19.1-32.1-33.2-14.3c5.5-2.7,13-3.3,16.6,3.1c-3.6,1.8-8.6,8.1-2.7,10.4
		c-9.4,2.3-68.8-3.9-31.3,5.8c-3.1-0.2-4.3,3.7-7,3.5c-7-3.5-22.6-15.7-26.5-0.4c4.5-6.5,10.8-2.6,15.8,1.5l-1.9,6.9l4.2,1.9
		c-2.1,3.1-3,2.1-3.9,6.2c5.5-1.5,11-5.2,13.3,4.1c11.6,4.5,29.4,5.1,41.1,0c4.1-1.3,9.8,5.5,11.3,5.8c2.6,0.3,8.2-1.1,11.3,1
		c8.9,2.1,25.1,12.4,25.3-4.8c7.4-0.3,12.6,3.3,16.2,9.3c7.9-9.6-12.1-17.5-20.5-16.6c-7.3,1.3-22.5,2.6-23.9-6.9
		c16.7,2.8,33.8,2.6,49.8,6.6c2.6-3.5,4.6-4.2,4.2-9.7c8.6-3.9,15.7,5,17,12.7c9-10-10.3-24.8-20.1-19.8c-8.4,2.6-19,4-28.5-1l3.9-5
		c8.2-6.7,23.7-23.9,34.7-31.7c5.7,5.7,17.1,4.3,24.7,6.2c2.6-5,2.6-4.1-1.5-10c15.7-3.2-4.1-14.9,23.2-2.7v-1.2
		c-4.1-1.1-5.9-6.4-7.7-9.7c3.8-1.8,2.9,0.6,3.9-6.6c5.1-1.7,7.4-0.4,10.5-2.1c4.5-1.1,10.8,9.7,15.1-1.2
		c-2.3-7.5,1.6-14.1,2.4-21.2c4,0.8,7.6,3.6,11.1,5.9l-0.4-1.5c6.8-0.8,10-0.2,15.8,3.5c-1.1-3-3.6-4.6-5.8-6.6h0.8v-0.8
		c-15.3-15.7,13.2,8.2,19.3,10.8c-1.2-3.4-7.3-6.3-9.6-8.9c2.8,1.8,15.2,6.9,18.5,8.1c-1.3-3.7,15.4,8.7,20.5,5
		c29.3,15.1,62.4,25.2,91.5,41.3c18.1,8.9,34.6,25.9,53.3,30.9c-1.3-1.2-3.5-2.7-4.6-4.2c2.1,0,1.4,0.5,1.5-1.2
		c7.2,5.8,18.6,6.8,25.1,13.5v-2.3c-8.5-8.9-0.5-8.3,5-2.3c2.2-2,2.9-5.2,1.5-8.5c5.8-3.6,9.1-1.1,15.7-1l4.4-1.7
		c-1.9-2.9-3.3-7.4-5.4-10.4c9.2,1.3,17.6-0.5,25.9-0.4c0.8-8.4-2.7-2-5.7-8.6c-7.7-10.1-17.7-16-29.5-21
		c-22.5-8.6-41.6-22.8-63.6-33.3c11.2-0.8,32.5,21.8,45.9,15.8c-0.3-2.9-8.4-6.2-11.7-9l1.6-1.5c-9.2-12.2-28.2-16-38.8-26.8
		c-1.6-1.8,1.3,1.2-0.4-0.4c-4.1-1.4-5.6-3.1-8.3-6.4c-7.3-0.6-11.5-5.4-16.2-10.9c32.5,6.1,65.7,13.8,97.6,22l-5.4-3.9
		c3.4,0.3,3.5-0.2,6.2-2.3c-8.5-22.1-35.8-26.2-54.3-35.2c-18-12.9-36.8-15.2-52.6-30.3c-7.5-0.1-9.6-5.8-15.9-8.5
		c-1.8-7-14.9-7.7-13.4-16.7c2.2-1,1.2,1.6,4.2-3.1c-34.8-31.4-87.8-31.2-116.1-68.9c-0.1-5.5-8.4-12-12.4-15.6
		c0.3-0.8,0.7-0.9,1.2-1.5c-12.4-13.9-32.9-9.2-49.4-11.2c-10.2-1.6-23.7-8.8-33.9-10.8c-20.7-6.3-43.7-7-64.3-14.4
		c-21.4-2.7-44.4,1.9-63.4-10.4C137.5,10.1,132.3,44.9,71,12.1v1.2c-14.1-7-56.1-17.6-60.2,1.1c27.9,1.1,52.9,22.3,73.8,39.5
		c-1.3,0.5-2.8,0.8-4.2,0.8l0,0c1.7,0,2.8,0,4.4-0.6c0.3,0.4,0.7,0.8,1.2,1.4c-1.6,0.5-4,0.7-5.3,0.7l0,0c2,0,3.8,0.3,5.6-0.3
		c0.3,0.4,0.7,1,1.2,1.7c-2.1,0.4-4.4,0.5-6.6,0.6l0,0c2.2,0.1,4.6,0.2,6.9-0.2l0.6,0.9l-7.2,1.1c3.1-0.2,3-0.2,7.5-0.4
		c0,0.1,0.8,2.7,0.8,2.8c-28.2,2-66-2-89.5,17c15.9,3,33.1,1.5,48.2,3.9c-1,1.5-2.4,2.5-3.9,3.5c2.9,0,4.6-0.3,7.3-1.2
		c-3.3,5.3,9.4,2.8,5.8,9.7c2.1-0.6-0.1-0.2,3.3-3.7c0.8,0.2,1.2,3.1,0.2,4c1.2-0.7,1.5-2.3,2.3-3.5c1.4,0.5,3.4,3.3,4.2,3.1
		c-1.4-1.2,0.1-2.7,0.8-3.9c3.5,3.7,6.2,4.3,9.3,9.7c9.3,10.9,13.1,41.4,31.3,51.3C108.3,150.3,107.5,151.2,106.9,148.8L106.9,148.8
		z M232.9,405.9c0.4,1.1,0.7-0.2,1.3,0.9c0.2,0.4,0,1,1.2,1.3c3.5,0.9,5.9,2.3,7.6,2.7c1.7,0.4,4.8,0.5,6.4-0.3
		c0.4-0.2,1.4-0.3,2.1-0.6c0.8-0.4,2.8-1.5,4.2-2.1c0.2,0-1.1,0.1-1,0.1c-0.6-0.2-0.2-0.7-0.5-0.8c-0.4-0.2-1.5,0-2.2-0.3
		c0,0-2.8-1-2.9-1c-1.7-0.6-6,0-6.8,0c-0.6,0-1.9,0.2-2.7-0.1c-0.8-0.1-2.1-0.5-3.3-0.5c-0.5,0-1.3,0.5-1.5,0.4
		C233,404.8,232.7,405.5,232.9,405.9L232.9,405.9z M215.1,406.6c-0.2-1.4,3.6-0.7,4.5-0.6c2.2,0.2,1.4,1,3.2,1.6
		c0.9,0.3,2.7,2.5,1.9,2.9c-0.7,0.6-1.4-0.6-2.7-0.5c-0.7,0-5.4-2.4-6.2-2.9C215.4,406.8,215.2,406.8,215.1,406.6L215.1,406.6z" />
	</g>
</svg>
