<?xml version="1.0" encoding="UTF-8" standalone="no"?>
<!-- Created with Inkscape (http://www.inkscape.org/) -->

<svg width="112.75103mm" height="17.883341mm" viewBox="0 0 112.75103 17.883341" version="1.1" id="svg5"
  inkscape:version="1.2.2 (b0a8486541, 2022-12-01)" sodipodi:docname="sprakbanken_text_slogan_en.svg"
  xml:space="preserve" inkscape:export-filename="tmp.png" inkscape:export-xdpi="171.03999"
  inkscape:export-ydpi="171.03999" xmlns:inkscape="http://www.inkscape.org/namespaces/inkscape"
  xmlns:sodipodi="http://sodipodi.sourceforge.net/DTD/sodipodi-0.dtd" xmlns="http://www.w3.org/2000/svg"
  xmlns:svg="http://www.w3.org/2000/svg">
  <sodipodi:namedview id="namedview7" pagecolor="#ffffff" bordercolor="#000000" borderopacity="0.25"
    inkscape:showpageshadow="2" inkscape:pageopacity="0.0" inkscape:pagecheckerboard="0" inkscape:deskcolor="#d1d1d1"
    inkscape:document-units="mm" showgrid="true" inkscape:zoom="0.96403485" inkscape:cx="469.90002"
    inkscape:cy="203.83081" inkscape:window-width="1920" inkscape:window-height="1029" inkscape:window-x="0"
    inkscape:window-y="27" inkscape:window-maximized="1" inkscape:current-layer="layer1" showguides="true">
    <inkscape:grid type="xygrid" id="grid13315" />
    <sodipodi:guide position="-0.24448901,41.510274" orientation="1,0" id="guide13317" inkscape:locked="false" />
    <sodipodi:guide position="-13.473656,37.541524" orientation="0,-1" id="guide13319" inkscape:locked="false" />
    <sodipodi:guide position="102.94301,-56.385568" orientation="1,0" id="guide4551" inkscape:locked="false" />
  </sodipodi:namedview>
  <defs id="defs2">
    <rect x="34.405685" y="187.59879" width="498.24536" height="62.798195" id="rect1143-4" />
    <rect x="42.637711" y="232.56482" width="428.09613" height="65.5849" id="rect4674-3" />
  </defs>
  <g inkscape:label="Layer 1" inkscape:groupmode="layer" id="layer1" transform="translate(-10.827822,-30.241513)">
    <g aria-label="SPRÅKBANKENTEXT" transform="matrix(0.26458333,0,0,0.26458333,1.4800128,-18.904703)" id="text1141-1"
      style="font-size:10.6667px;font-family:'Open Sans';-inkscape-font-specification:'Open Sans, Normal';white-space:pre;shape-inside:url(#rect1143-4);display:inline;fill:#f0bca9">
      <path
        d="m 38.915586,221.21617 -2.280001,1.41867 c 1.672001,4.96534 5.624003,9.27201 11.754674,9.27201 5.776003,0 10.28534,-3.90134 10.28534,-9.67734 0,-6.23201 -4.864003,-8.91734 -8.816006,-10.33601 -5.725337,-2.02667 -8.613339,-4.20533 -8.613339,-8.10667 0,-3.192 2.280002,-5.57334 6.434671,-5.57334 4.61067,0 6.890671,3.09067 8.106672,5.77601 l 2.432001,-1.368 c -1.418667,-3.39467 -4.762669,-7.09334 -10.386673,-7.09334 -5.573337,0 -9.525339,3.496 -9.525339,8.61334 0,6.02933 5.320003,8.41067 9.424006,9.93067 4.053336,1.52 8.056005,3.344 8.056005,8.46134 0,3.90133 -2.786669,6.73867 -7.346672,6.73867 -5.117336,0 -7.853338,-3.59734 -9.525339,-8.05601 z"
        style="font-weight:300;font-size:50.6667px;font-family:'Jost*';-inkscape-font-specification:'Jost*, Light';fill:#1a1a1a"
        id="path4264" />
      <path
        d="m 65.211611,195.98416 v 35.46669 h 2.786668 v -14.49068 h 5.522671 c 6.637337,0 11.602674,-3.952 11.602674,-10.488 0,-6.53601 -4.965337,-10.48801 -11.602674,-10.48801 z m 8.309339,2.63467 c 5.168003,0 8.765338,2.736 8.765338,7.85334 0,5.11733 -3.597335,7.85333 -8.765338,7.85333 h -5.522671 v -15.70667 z"
        style="font-weight:300;font-size:50.6667px;font-family:'Jost*';-inkscape-font-specification:'Jost*, Light';fill:#1a1a1a"
        id="path4266" />
      <path
        d="m 91.608954,195.98416 v 35.46669 h 2.786668 v -14.89601 h 4.661336 l 10.336002,14.89601 h 3.44534 l -10.74134,-15.04801 c 5.624,-0.76 9.62667,-4.35734 9.62667,-10.13334 0,-6.53601 -5.168,-10.28534 -12.008005,-10.28534 z m 8.106671,2.48267 c 5.370675,0 9.221335,2.68533 9.221335,7.80267 0,5.11734 -3.8,7.80267 -9.221335,7.80267 h -5.320003 v -15.60534 z"
        style="font-weight:300;font-size:50.6667px;font-family:'Jost*';-inkscape-font-specification:'Jost*, Light';fill:#1a1a1a"
        id="path4268" />
      <path
        d="m 124.79568,190.81616 c 0,2.83733 2.22933,4.81333 4.66133,5.016 l -15.14934,35.61869 h 3.14133 l 4.86401,-11.90668 h 15.30134 l 4.864,11.90668 h 3.14134 l -15.14934,-35.61869 c 2.432,-0.20267 4.66133,-2.17867 4.66133,-5.016 0,-3.04001 -2.53333,-5.06667 -5.168,-5.06667 -2.63467,0 -5.168,2.02666 -5.168,5.06667 z m 1.77333,0 c 0,-2.07734 1.672,-3.44534 3.39467,-3.44534 1.72267,0 3.39467,1.368 3.39467,3.44534 0,2.07733 -1.672,3.44533 -3.39467,3.44533 -1.72267,0 -3.39467,-1.368 -3.39467,-3.44533 z m 3.39467,10.23467 6.58667,15.85868 h -13.12267 z"
        style="font-weight:300;font-size:50.6667px;font-family:'Jost*';-inkscape-font-specification:'Jost*, Light';fill:#1a1a1a"
        id="path4270" />
      <path
        d="m 150.23035,195.98416 v 35.46669 h 2.78666 v -17.83468 l 15.45335,17.83468 h 3.54667 l -16.36535,-18.84801 15.60535,-16.61868 h -3.54667 l -14.69335,15.80801 v -15.80801 z"
        style="font-weight:300;font-size:50.6667px;font-family:'Jost*';-inkscape-font-specification:'Jost*, Light';fill:#1a1a1a"
        id="path4272" />
      <path
        d="m 196.74237,221.16551 c 0,-5.32001 -3.8,-8.25867 -8.36,-9.17067 3.90133,-0.96267 6.384,-3.39467 6.384,-7.44801 0,-5.624 -4.00267,-8.56267 -10.33601,-8.56267 h -7.70133 v 35.46669 h 8.208 c 6.84,0 11.80534,-3.24267 11.80534,-10.28534 z m -12.31201,-22.69868 c 4.56001,0 7.54934,2.33067 7.54934,6.232 0,4.15467 -3.39467,6.08 -7.54934,6.08 h -4.91467 v -12.312 z m -4.91467,30.50135 V 213.2615 h 5.42134 c 4.76267,0 8.96801,2.78667 8.96801,7.75201 0,5.26933 -3.59734,7.95467 -8.96801,7.95467 z"
        style="font-weight:300;font-size:50.6667px;font-family:'Jost*';-inkscape-font-specification:'Jost*, Light';fill:#1a1a1a"
        id="path4274" />
      <path
        d="m 227.34513,231.45085 h 3.14133 l -15.65601,-36.83469 -15.656,36.83469 h 3.14133 l 4.864,-11.90668 h 15.30135 z m -12.51468,-30.40002 6.58668,15.85868 h -13.12268 z"
        style="font-weight:300;font-size:50.6667px;font-family:'Jost*';-inkscape-font-specification:'Jost*, Light';fill:#1a1a1a"
        id="path4276" />
      <path
        d="m 262.15313,195.98416 v 29.69068 l -26.95468,-31.05868 v 36.83469 h 2.78666 V 201.8615 l 26.95469,30.95735 v -36.83469 z"
        style="font-weight:300;font-size:50.6667px;font-family:'Jost*';-inkscape-font-specification:'Jost*, Light';fill:#1a1a1a"
        id="path4278" />
      <path
        d="m 273.35044,195.98416 v 35.46669 h 2.78667 v -17.83468 l 15.45334,17.83468 h 3.54667 l -16.36534,-18.84801 15.60534,-16.61868 h -3.54667 l -14.69334,15.80801 v -15.80801 z"
        style="font-weight:300;font-size:50.6667px;font-family:'Jost*';-inkscape-font-specification:'Jost*, Light';fill:#1a1a1a"
        id="path4280" />
      <path
        d="m 299.84911,195.98416 v 35.46669 h 19.05068 v -2.63467 h -16.26401 v -15.50401 h 15.25068 v -2.63467 h -15.25068 v -12.05867 h 16.26401 v -2.63467 z"
        style="font-weight:300;font-size:50.6667px;font-family:'Jost*';-inkscape-font-specification:'Jost*, Light';fill:#1a1a1a"
        id="path4282" />
      <path
        d="m 353.85983,195.98416 v 29.69068 l -26.95469,-31.05868 v 36.83469 h 2.78667 V 201.8615 l 26.95468,30.95735 v -36.83469 z"
        style="font-weight:300;font-size:50.6667px;font-family:'Jost*';-inkscape-font-specification:'Jost*, Light';fill:#1a1a1a"
        id="path4284" />
      <path d="m 361.6118,198.61883 h 9.32267 v 32.83202 h 2.78667 v -32.83202 h 9.32267 v -2.63467 H 361.6118 Z"
        style="font-weight:300;font-size:50.6667px;font-family:'Jost*';-inkscape-font-specification:'Jost*, Light';fill:#f0581a"
        id="path4286" />
      <path
        d="m 388.00915,195.98416 v 35.46669 h 19.05067 v -2.63467 h -16.26401 v -15.50401 h 15.25068 v -2.63467 h -15.25068 v -12.05867 h 16.26401 v -2.63467 z"
        style="font-weight:300;font-size:50.6667px;font-family:'Jost*';-inkscape-font-specification:'Jost*, Light';fill:#f0581a"
        id="path4288" />
      <path
        d="m 433.00122,195.98416 -8.51201,14.44001 -8.36,-14.44001 h -3.344 l 10.23467,16.87201 -11.50134,18.59468 h 3.344 l 9.57601,-16.11201 9.32267,16.11201 h 3.344 l -11.24801,-18.59468 10.48801,-16.87201 z"
        style="font-weight:300;font-size:50.6667px;font-family:'Jost*';-inkscape-font-specification:'Jost*, Light';fill:#f0581a"
        id="path4290" />
      <path d="m 440.04396,198.61883 h 9.32267 v 32.83202 h 2.78667 v -32.83202 h 9.32267 v -2.63467 h -21.43201 z"
        style="font-weight:300;font-size:50.6667px;font-family:'Jost*';-inkscape-font-specification:'Jost*, Light';fill:#f0581a"
        id="path4292" />
    </g>
    <g aria-label="A research infrastructure for language data"
      transform="matrix(0.26458333,0,0,0.26458333,-0.46688815,-18.256253)" id="text4672-4"
      style="font-weight:500;font-size:12px;font-family:'Jost*';-inkscape-font-specification:'Jost*, Medium';white-space:pre;shape-inside:url(#rect4674-3);display:inline;fill:#f0581a">
      <path
        d="m 51.872024,246.98922 h 2.233338 l -5.716678,-12.31669 -5.700012,12.31669 h 2.216671 l 1.333336,-3 h 4.283342 z m -3.48334,-8.36668 1.600003,3.70001 h -3.18334 z"
        style="font-size:16.6667px;fill:#000000" id="path4295" />
      <path
        d="m 64.35538,241.23921 0.883335,-1.51667 c -0.350001,-0.4 -0.866669,-0.58333 -1.41667,-0.58333 -0.650001,0 -1.300002,0.41666 -1.750003,1.1 v -0.91667 h -1.783337 v 7.66668 h 1.783337 v -4.31667 c 0,-1.1 0.366667,-1.83334 1.266669,-1.83334 0.433334,0 0.683335,0.13333 1.016669,0.4 z"
        style="font-size:16.6667px;fill:#000000" id="path4297" />
      <path
        d="m 69.555404,247.15589 c 1.76667,0 3.033339,-0.68333 3.850008,-2.08334 l -1.56667,-0.61667 c -0.483334,0.81667 -1.216669,1.21667 -2.200005,1.21667 -1.250002,0 -2.033337,-0.75 -2.150004,-2.1 h 5.966679 c 0,-0.0833 0.01667,-0.3 0.01667,-0.5 0,-2.45001 -1.41667,-3.91668 -3.833342,-3.91668 -2.433338,0 -4.000008,1.58334 -4.000008,4.00001 0,2.40001 1.550003,4.00001 3.916675,4.00001 z m 0.06667,-6.63335 c 1.083335,0 1.800003,0.71667 1.883337,1.80001 h -3.966675 c 0.216667,-1.16667 0.933335,-1.78334 2.083338,-1.80001 z"
        style="font-size:16.6667px;fill:#000000" id="path4299" />
      <path
        d="m 75.55541,244.45588 -1.050003,1.06667 c 0.666668,0.86667 1.833338,1.70001 3.433341,1.70001 1.66667,0 2.733339,-0.95001 2.733339,-2.40001 0,-1.38333 -1.066669,-1.9 -2.350005,-2.41667 -0.933335,-0.36667 -1.66667,-0.63333 -1.66667,-1.2 0,-0.43334 0.383334,-0.65 0.900002,-0.65 0.750001,0 1.500003,0.43333 2.000004,1.01667 l 1.000002,-1.06667 c -0.633335,-0.76667 -1.71667,-1.35001 -2.966673,-1.35001 -1.416669,0 -2.633339,0.70001 -2.633339,2.08334 0,1.38334 1.133336,1.96667 2.183338,2.33334 1.016669,0.36667 1.71667,0.66667 1.71667,1.35 0,0.5 -0.383334,0.81667 -1.033335,0.81667 -0.783335,0 -1.51667,-0.45 -2.266671,-1.28334 z"
        style="font-size:16.6667px;fill:#000000" id="path4301" />
      <path
        d="m 85.605428,247.15589 c 1.76667,0 3.033339,-0.68333 3.850008,-2.08334 l -1.56667,-0.61667 c -0.483334,0.81667 -1.216669,1.21667 -2.200005,1.21667 -1.250002,0 -2.033337,-0.75 -2.150004,-2.1 h 5.966679 c 0,-0.0833 0.01667,-0.3 0.01667,-0.5 0,-2.45001 -1.41667,-3.91668 -3.833342,-3.91668 -2.433338,0 -4.000008,1.58334 -4.000008,4.00001 0,2.40001 1.550004,4.00001 3.916675,4.00001 z m 0.06667,-6.63335 c 1.083335,0 1.800003,0.71667 1.883337,1.80001 h -3.966675 c 0.216667,-1.16667 0.933335,-1.78334 2.083338,-1.80001 z"
        style="font-size:16.6667px;fill:#000000" id="path4303" />
      <path
        d="m 91.822097,241.32254 c 0.333334,-0.25 1.250002,-0.71666 2.333338,-0.71666 0.950002,0 1.633337,0.33333 1.633337,1.26667 v 0.93333 c -0.483335,-0.26667 -1.21667,-0.53333 -2.216672,-0.53333 -1.900003,0 -3.000006,0.95 -3.000006,2.43333 0,1.56667 1.233336,2.45001 2.683339,2.45001 0.983335,0 2.050004,-0.4 2.533339,-1.21667 v 1.05 h 1.76667 v -5.46667 c 0,-1.51667 -1.350003,-2.38334 -3.216673,-2.38334 -1.433337,0 -2.550005,0.5 -3.250007,0.91667 z m 0.566668,3.28334 c 0,-0.71666 0.483334,-1.15 1.61667,-1.15 0.650001,0 1.233336,0.11667 1.783337,0.36667 v 0.11667 c 0,1.16667 -0.900002,1.86667 -1.966671,1.86667 -0.833335,0 -1.433336,-0.43334 -1.433336,-1.20001 z"
        style="font-size:16.6667px;fill:#000000" id="path4305" />
      <path
        d="m 103.72212,241.23921 0.88333,-1.51667 c -0.35,-0.4 -0.86667,-0.58333 -1.41667,-0.58333 -0.65,0 -1.3,0.41666 -1.75,1.1 v -0.91667 h -1.783338 v 7.66668 h 1.783338 v -4.31667 c 0,-1.1 0.36667,-1.83334 1.26667,-1.83334 0.43333,0 0.68333,0.13333 1.01667,0.4 z"
        style="font-size:16.6667px;fill:#000000" id="path4307" />
      <path
        d="m 106.78881,243.15588 c 0,-1.41667 1.03333,-2.45 2.38333,-2.45 1.06667,0 2.11667,0.55 2.50001,1.3 v -2 c -0.53334,-0.51667 -1.48334,-0.85001 -2.58334,-0.85001 -2.36667,0 -4.15001,1.63334 -4.15001,4.00001 0,2.35001 1.78334,4.00001 4.15001,4.00001 1.1,0 2.05,-0.31667 2.58334,-0.86667 v -1.98334 c -0.38334,0.73334 -1.38334,1.30001 -2.50001,1.30001 -1.35,0 -2.38333,-1.00001 -2.38333,-2.45001 z"
        style="font-size:16.6667px;fill:#000000" id="path4309" />
      <path
        d="m 118.58882,242.32255 v 4.66667 h 1.81667 v -4.91667 c 0,-1.95001 -0.93334,-2.96668 -2.63334,-2.96668 -1.05,0 -1.85001,0.53334 -2.30001,1.36667 v -6.48334 h -1.81667 v 13.00002 h 1.81667 v -4.66667 c 0,-1.01667 0.66667,-1.71667 1.70001,-1.71667 0.96666,0 1.41667,0.6 1.41667,1.71667 z"
        style="font-size:16.6667px;fill:#000000" id="path4311" />
      <path
        d="m 127.63881,236.27253 c 0,0.61667 0.51667,1.10001 1.13333,1.10001 0.63334,0 1.15001,-0.48334 1.15001,-1.10001 0,-0.61666 -0.51667,-1.1 -1.15001,-1.1 -0.61666,0 -1.13333,0.48334 -1.13333,1.1 z m 0.25,3.05001 v 7.66668 h 1.78334 v -7.66668 z"
        style="font-size:16.6667px;fill:#000000" id="path4313" />
      <path
        d="m 137.08883,242.32255 v 4.66667 h 1.85 v -4.88334 c 0,-1.83334 -0.93333,-2.95001 -2.66667,-2.95001 -1.05,0 -1.81667,0.45 -2.3,1.35001 v -1.18334 h -1.81667 v 7.66668 h 1.81667 v -4.66667 c 0,-1.05001 0.66667,-1.71667 1.7,-1.71667 0.96667,0 1.41667,0.6 1.41667,1.71667 z"
        style="font-size:16.6667px;fill:#000000" id="path4315" />
      <path
        d="m 140.6055,239.32254 v 1.58334 h 0.83334 v 6.08334 h 1.78334 v -6.08334 h 1.78333 v -1.58334 h -1.78333 v -2.48334 c 0,-0.96667 0.3,-1.35 0.8,-1.35 0.26667,0 0.56667,0.0833 0.8,0.43333 l 0.83333,-1.4 c -0.28333,-0.33333 -0.83333,-0.75 -1.71667,-0.75 -1.61667,0 -2.5,0.93333 -2.5,2.71667 v 2.83334 z"
        style="font-size:16.6667px;fill:#000000" id="path4317" />
      <path
        d="m 150.45552,241.23921 0.88334,-1.51667 c -0.35,-0.4 -0.86667,-0.58333 -1.41667,-0.58333 -0.65,0 -1.3,0.41666 -1.75,1.1 v -0.91667 h -1.78334 v 7.66668 h 1.78334 v -4.31667 c 0,-1.1 0.36666,-1.83334 1.26666,-1.83334 0.43334,0 0.68334,0.13333 1.01667,0.4 z"
        style="font-size:16.6667px;fill:#000000" id="path4319" />
      <path
        d="m 153.13887,241.32254 c 0.33334,-0.25 1.25001,-0.71666 2.33334,-0.71666 0.95,0 1.63334,0.33333 1.63334,1.26667 v 0.93333 c -0.48334,-0.26667 -1.21667,-0.53333 -2.21667,-0.53333 -1.90001,0 -3.00001,0.95 -3.00001,2.43333 0,1.56667 1.23334,2.45001 2.68334,2.45001 0.98333,0 2.05,-0.4 2.53334,-1.21667 v 1.05 h 1.76667 v -5.46667 c 0,-1.51667 -1.35,-2.38334 -3.21668,-2.38334 -1.43333,0 -2.55,0.5 -3.25,0.91667 z m 0.56667,3.28334 c 0,-0.71666 0.48334,-1.15 1.61667,-1.15 0.65,0 1.23334,0.11667 1.78334,0.36667 v 0.11667 c 0,1.16667 -0.9,1.86667 -1.96667,1.86667 -0.83334,0 -1.43334,-0.43334 -1.43334,-1.20001 z"
        style="font-size:16.6667px;fill:#000000" id="path4321" />
      <path
        d="m 161.32222,244.45588 -1.05001,1.06667 c 0.66667,0.86667 1.83334,1.70001 3.43334,1.70001 1.66667,0 2.73334,-0.95001 2.73334,-2.40001 0,-1.38333 -1.06667,-1.9 -2.35,-2.41667 -0.93334,-0.36667 -1.66667,-0.63333 -1.66667,-1.2 0,-0.43334 0.38333,-0.65 0.9,-0.65 0.75,0 1.5,0.43333 2,1.01667 l 1.00001,-1.06667 c -0.63334,-0.76667 -1.71667,-1.35001 -2.96668,-1.35001 -1.41667,0 -2.63334,0.70001 -2.63334,2.08334 0,1.38334 1.13334,1.96667 2.18334,2.33334 1.01667,0.36667 1.71667,0.66667 1.71667,1.35 0,0.5 -0.38333,0.81667 -1.03333,0.81667 -0.78334,0 -1.51667,-0.45 -2.26667,-1.28334 z"
        style="font-size:16.6667px;fill:#000000" id="path4323" />
      <path
        d="m 166.97223,239.32254 v 1.58334 h 1.3 v 6.08334 h 1.76667 v -6.08334 h 1.28334 v -1.58334 h -1.28334 v -2.66667 h -1.76667 v 2.66667 z"
        style="font-size:16.6667px;fill:#000000" id="path4325" />
      <path
        d="m 176.62224,241.23921 0.88334,-1.51667 c -0.35001,-0.4 -0.86667,-0.58333 -1.41667,-0.58333 -0.65001,0 -1.30001,0.41666 -1.75001,1.1 v -0.91667 h -1.78333 v 7.66668 h 1.78333 v -4.31667 c 0,-1.1 0.36667,-1.83334 1.26667,-1.83334 0.43334,0 0.68334,0.13333 1.01667,0.4 z"
        style="font-size:16.6667px;fill:#000000" id="path4327" />
      <path
        d="m 180.58892,243.98922 v -4.66668 h -1.85 v 4.86668 c 0,1.83333 0.95,2.96667 2.66667,2.96667 1.06667,0 1.81667,-0.46667 2.31667,-1.35 v 1.18333 h 1.8 v -7.66668 h -1.8 v 4.66668 c 0,1.03333 -0.68334,1.71667 -1.7,1.71667 -0.96667,0 -1.43334,-0.61667 -1.43334,-1.71667 z"
        style="font-size:16.6667px;fill:#000000" id="path4329" />
      <path
        d="m 189.02228,243.15588 c 0,-1.41667 1.03333,-2.45 2.38333,-2.45 1.06667,0 2.11668,0.55 2.50001,1.3 v -2 c -0.53333,-0.51667 -1.48334,-0.85001 -2.58334,-0.85001 -2.36667,0 -4.15001,1.63334 -4.15001,4.00001 0,2.35001 1.78334,4.00001 4.15001,4.00001 1.1,0 2.05001,-0.31667 2.58334,-0.86667 v -1.98334 c -0.38333,0.73334 -1.38334,1.30001 -2.50001,1.30001 -1.35,0 -2.38333,-1.00001 -2.38333,-2.45001 z"
        style="font-size:16.6667px;fill:#000000" id="path4331" />
      <path
        d="m 194.82227,239.32254 v 1.58334 h 1.3 v 6.08334 h 1.76667 v -6.08334 h 1.28334 v -1.58334 h -1.28334 v -2.66667 h -1.76667 v 2.66667 z"
        style="font-size:16.6667px;fill:#000000" id="path4333" />
      <path
        d="m 202.25562,243.98922 v -4.66668 h -1.85 v 4.86668 c 0,1.83333 0.95,2.96667 2.66667,2.96667 1.06667,0 1.81667,-0.46667 2.31667,-1.35 v 1.18333 h 1.8 v -7.66668 h -1.8 v 4.66668 c 0,1.03333 -0.68333,1.71667 -1.7,1.71667 -0.96667,0 -1.43334,-0.61667 -1.43334,-1.71667 z"
        style="font-size:16.6667px;fill:#000000" id="path4335" />
      <path
        d="m 213.55564,241.23921 0.88333,-1.51667 c -0.35,-0.4 -0.86667,-0.58333 -1.41667,-0.58333 -0.65,0 -1.3,0.41666 -1.75,1.1 v -0.91667 h -1.78334 v 7.66668 h 1.78334 v -4.31667 c 0,-1.1 0.36667,-1.83334 1.26667,-1.83334 0.43333,0 0.68333,0.13333 1.01667,0.4 z"
        style="font-size:16.6667px;fill:#000000" id="path4337" />
      <path
        d="m 218.75567,247.15589 c 1.76667,0 3.03334,-0.68333 3.85,-2.08334 l -1.56667,-0.61667 c -0.48333,0.81667 -1.21667,1.21667 -2.2,1.21667 -1.25,0 -2.03334,-0.75 -2.15,-2.1 h 5.96667 c 0,-0.0833 0.0167,-0.3 0.0167,-0.5 0,-2.45001 -1.41667,-3.91668 -3.83334,-3.91668 -2.43334,0 -4.00001,1.58334 -4.00001,4.00001 0,2.40001 1.55,4.00001 3.91668,4.00001 z m 0.0667,-6.63335 c 1.08334,0 1.80001,0.71667 1.88334,1.80001 H 216.739 c 0.21666,-1.16667 0.93333,-1.78334 2.08333,-1.80001 z"
        style="font-size:16.6667px;fill:#000000" id="path4339" />
      <path
        d="m 228.77233,239.32254 v 1.58334 h 0.83333 v 6.08334 h 1.78334 v -6.08334 h 1.78334 v -1.58334 H 231.389 v -2.48334 c 0,-0.96667 0.3,-1.35 0.8,-1.35 0.26667,0 0.56667,0.0833 0.8,0.43333 l 0.83334,-1.4 c -0.28333,-0.33333 -0.83334,-0.75 -1.71667,-0.75 -1.61667,0 -2.50001,0.93333 -2.50001,2.71667 v 2.83334 z"
        style="font-size:16.6667px;fill:#000000" id="path4341" />
      <path
        d="m 233.97234,243.15588 c 0,2.35001 1.78333,4.00001 4.13334,4.00001 2.35,0 4.13334,-1.65 4.13334,-4.00001 0,-2.36667 -1.78334,-4.00001 -4.13334,-4.00001 -2.35001,0 -4.13334,1.63334 -4.13334,4.00001 z m 1.85,0 c 0,-1.43333 0.98334,-2.41667 2.28334,-2.41667 1.28334,0 2.28334,0.98334 2.28334,2.41667 0,1.43334 -1,2.41667 -2.28334,2.41667 -1.3,0 -2.28334,-0.98333 -2.28334,-2.41667 z"
        style="font-size:16.6667px;fill:#000000" id="path4343" />
      <path
        d="m 248.02236,241.23921 0.88333,-1.51667 c -0.35,-0.4 -0.86667,-0.58333 -1.41667,-0.58333 -0.65,0 -1.3,0.41666 -1.75,1.1 v -0.91667 h -1.78334 v 7.66668 h 1.78334 v -4.31667 c 0,-1.1 0.36667,-1.83334 1.26667,-1.83334 0.43333,0 0.68333,0.13333 1.01667,0.4 z"
        style="font-size:16.6667px;fill:#000000" id="path4345" />
      <path d="m 255.13903,233.9892 v 13.00002 h 1.81667 V 233.9892 Z" style="font-size:16.6667px;fill:#000000"
        id="path4347" />
      <path
        d="m 259.80572,241.32254 c 0.33333,-0.25 1.25,-0.71666 2.33334,-0.71666 0.95,0 1.63334,0.33333 1.63334,1.26667 v 0.93333 c -0.48334,-0.26667 -1.21667,-0.53333 -2.21668,-0.53333 -1.9,0 -3,0.95 -3,2.43333 0,1.56667 1.23333,2.45001 2.68334,2.45001 0.98333,0 2.05,-0.4 2.53334,-1.21667 v 1.05 h 1.76667 v -5.46667 c 0,-1.51667 -1.35001,-2.38334 -3.21668,-2.38334 -1.43333,0 -2.55,0.5 -3.25,0.91667 z m 0.56667,3.28334 c 0,-0.71666 0.48333,-1.15 1.61667,-1.15 0.65,0 1.23333,0.11667 1.78334,0.36667 v 0.11667 c 0,1.16667 -0.90001,1.86667 -1.96668,1.86667 -0.83333,0 -1.43333,-0.43334 -1.43333,-1.20001 z"
        style="font-size:16.6667px;fill:#000000" id="path4349" />
      <path
        d="m 272.57241,242.32255 v 4.66667 h 1.85 v -4.88334 c 0,-1.83334 -0.93334,-2.95001 -2.66667,-2.95001 -1.05001,0 -1.81667,0.45 -2.30001,1.35001 v -1.18334 h -1.81667 v 7.66668 h 1.81667 v -4.66667 c 0,-1.05001 0.66667,-1.71667 1.70001,-1.71667 0.96666,0 1.41667,0.6 1.41667,1.71667 z"
        style="font-size:16.6667px;fill:#000000" id="path4351" />
      <path
        d="m 276.28907,247.50589 c 0.0833,2 1.5,3.38334 4.00001,3.38334 2.08334,0 3.96667,-1.3 3.96667,-4.06667 v -7.50002 h -1.76667 v 1.25 c -0.56666,-0.91667 -1.5,-1.41667 -2.61667,-1.41667 -2,0 -3.73334,1.43334 -3.73334,3.95001 0,2.53334 1.73334,3.96668 3.73334,3.96668 1.11667,0 2.05001,-0.5 2.61667,-1.41667 v 1.16667 c 0,1.71667 -1.11667,2.5 -2.23333,2.5 -1.30001,0 -2.13334,-0.78333 -2.16668,-1.81667 z m 1.71667,-4.40001 c 0,-1.53333 1.05,-2.38334 2.30001,-2.38334 1.05,0 2.18333,0.83334 2.18333,2.38334 0,1.56667 -1.13333,2.40001 -2.18333,2.40001 -1.25001,0 -2.30001,-0.85001 -2.30001,-2.40001 z"
        style="font-size:16.6667px;fill:#000000" id="path4353" />
      <path
        d="m 288.3391,243.98922 v -4.66668 h -1.85 v 4.86668 c 0,1.83333 0.95,2.96667 2.66667,2.96667 1.06667,0 1.81667,-0.46667 2.31667,-1.35 v 1.18333 h 1.80001 v -7.66668 h -1.80001 v 4.66668 c 0,1.03333 -0.68333,1.71667 -1.7,1.71667 -0.96667,0 -1.43334,-0.61667 -1.43334,-1.71667 z"
        style="font-size:16.6667px;fill:#000000" id="path4355" />
      <path
        d="m 296.13912,241.32254 c 0.33334,-0.25 1.25001,-0.71666 2.33334,-0.71666 0.95,0 1.63334,0.33333 1.63334,1.26667 v 0.93333 c -0.48333,-0.26667 -1.21667,-0.53333 -2.21667,-0.53333 -1.90001,0 -3.00001,0.95 -3.00001,2.43333 0,1.56667 1.23334,2.45001 2.68334,2.45001 0.98334,0 2.05001,-0.4 2.53334,-1.21667 v 1.05 h 1.76667 v -5.46667 c 0,-1.51667 -1.35,-2.38334 -3.21667,-2.38334 -1.43334,0 -2.55001,0.5 -3.25001,0.91667 z m 0.56667,3.28334 c 0,-0.71666 0.48334,-1.15 1.61667,-1.15 0.65,0 1.23334,0.11667 1.78334,0.36667 v 0.11667 c 0,1.16667 -0.9,1.86667 -1.96667,1.86667 -0.83334,0 -1.43334,-0.43334 -1.43334,-1.20001 z"
        style="font-size:16.6667px;fill:#000000" id="path4357" />
      <path
        d="m 303.53915,247.50589 c 0.0833,2 1.5,3.38334 4.00001,3.38334 2.08333,0 3.96667,-1.3 3.96667,-4.06667 v -7.50002 h -1.76667 v 1.25 c -0.56667,-0.91667 -1.5,-1.41667 -2.61667,-1.41667 -2.00001,0 -3.73334,1.43334 -3.73334,3.95001 0,2.53334 1.73333,3.96668 3.73334,3.96668 1.11667,0 2.05,-0.5 2.61667,-1.41667 v 1.16667 c 0,1.71667 -1.11667,2.5 -2.23334,2.5 -1.3,0 -2.13334,-0.78333 -2.16667,-1.81667 z m 1.71667,-4.40001 c 0,-1.53333 1.05,-2.38334 2.3,-2.38334 1.05,0 2.18334,0.83334 2.18334,2.38334 0,1.56667 -1.13334,2.40001 -2.18334,2.40001 -1.25,0 -2.3,-0.85001 -2.3,-2.40001 z"
        style="font-size:16.6667px;fill:#000000" id="path4359" />
      <path
        d="m 317.07251,247.15589 c 1.76667,0 3.03334,-0.68333 3.85001,-2.08334 l -1.56667,-0.61667 c -0.48333,0.81667 -1.21667,1.21667 -2.2,1.21667 -1.25,0 -2.03334,-0.75 -2.15001,-2.1 h 5.96668 c 0,-0.0833 0.0167,-0.3 0.0167,-0.5 0,-2.45001 -1.41667,-3.91668 -3.83334,-3.91668 -2.43334,0 -4.00001,1.58334 -4.00001,4.00001 0,2.40001 1.55,4.00001 3.91667,4.00001 z m 0.0667,-6.63335 c 1.08334,0 1.80001,0.71667 1.88334,1.80001 h -3.96668 c 0.21667,-1.16667 0.93334,-1.78334 2.08334,-1.80001 z"
        style="font-size:16.6667px;fill:#000000" id="path4361" />
      <path
        d="m 327.13918,243.15588 c 0,2.51667 1.73333,4.00001 3.73334,4.00001 1.11667,0 2.05,-0.51667 2.61667,-1.45 v 1.28333 h 1.81667 V 233.9892 h -1.81667 v 6.61668 c -0.56667,-0.93334 -1.5,-1.45001 -2.61667,-1.45001 -2.00001,0 -3.73334,1.46667 -3.73334,4.00001 z m 1.86667,0 c 0,-1.53333 1.05,-2.43334 2.3,-2.43334 1.05,0 2.18334,0.86667 2.18334,2.43334 0,1.55 -1.13334,2.43334 -2.18334,2.43334 -1.25,0 -2.3,-0.9 -2.3,-2.43334 z"
        style="font-size:16.6667px;fill:#000000" id="path4363" />
      <path
        d="m 338.10586,241.32254 c 0.33333,-0.25 1.25,-0.71666 2.33334,-0.71666 0.95,0 1.63334,0.33333 1.63334,1.26667 v 0.93333 c -0.48334,-0.26667 -1.21667,-0.53333 -2.21668,-0.53333 -1.9,0 -3,0.95 -3,2.43333 0,1.56667 1.23333,2.45001 2.68334,2.45001 0.98333,0 2.05,-0.4 2.53334,-1.21667 v 1.05 h 1.76667 v -5.46667 c 0,-1.51667 -1.35001,-2.38334 -3.21668,-2.38334 -1.43333,0 -2.55,0.5 -3.25,0.91667 z m 0.56667,3.28334 c 0,-0.71666 0.48333,-1.15 1.61667,-1.15 0.65,0 1.23333,0.11667 1.78334,0.36667 v 0.11667 c 0,1.16667 -0.90001,1.86667 -1.96668,1.86667 -0.83333,0 -1.43333,-0.43334 -1.43333,-1.20001 z"
        style="font-size:16.6667px;fill:#000000" id="path4365" />
      <path
        d="m 344.87255,239.32254 v 1.58334 h 1.3 v 6.08334 h 1.76667 v -6.08334 h 1.28334 v -1.58334 h -1.28334 v -2.66667 h -1.76667 v 2.66667 z"
        style="font-size:16.6667px;fill:#000000" id="path4367" />
      <path
        d="m 351.02255,241.32254 c 0.33333,-0.25 1.25,-0.71666 2.33334,-0.71666 0.95,0 1.63333,0.33333 1.63333,1.26667 v 0.93333 c -0.48333,-0.26667 -1.21667,-0.53333 -2.21667,-0.53333 -1.9,0 -3,0.95 -3,2.43333 0,1.56667 1.23333,2.45001 2.68333,2.45001 0.98334,0 2.05001,-0.4 2.53334,-1.21667 v 1.05 h 1.76667 v -5.46667 c 0,-1.51667 -1.35,-2.38334 -3.21667,-2.38334 -1.43334,0 -2.55001,0.5 -3.25001,0.91667 z m 0.56667,3.28334 c 0,-0.71666 0.48333,-1.15 1.61667,-1.15 0.65,0 1.23333,0.11667 1.78333,0.36667 v 0.11667 c 0,1.16667 -0.9,1.86667 -1.96667,1.86667 -0.83333,0 -1.43333,-0.43334 -1.43333,-1.20001 z"
        style="font-size:16.6667px;fill:#000000" id="path4369" />
    </g>
  </g>
</svg>