<?xml version="1.0" encoding="UTF-8"?>
<!-- Created with Inkscape (http://www.inkscape.org/) -->
<svg width="112.41mm" height="12.454mm" version="1.1" viewBox="0 0 112.41 12.454" xml:space="preserve"
  xmlns="http://www.w3.org/2000/svg">
  <g transform="translate(-10.597 -10.398)">
    <g transform="matrix(.26458 0 0 .26458 .90416 -38.748)" style="shape-inside:url(#rect1143);white-space:pre"
      aria-label="SPRÅKBANKENTEXT">
      <g fill="#1a1a1a">
        <path
          d="m38.916 221.22-2.28 1.4187c1.672 4.9653 5.624 9.272 11.755 9.272 5.776 0 10.285-3.9013 10.285-9.6773 0-6.232-4.864-8.9173-8.816-10.336-5.7253-2.0267-8.6133-4.2053-8.6133-8.1067 0-3.192 2.28-5.5733 6.4347-5.5733 4.6107 0 6.8907 3.0907 8.1067 5.776l2.432-1.368c-1.4187-3.3947-4.7627-7.0933-10.387-7.0933-5.5733 0-9.5253 3.496-9.5253 8.6133 0 6.0293 5.32 8.4107 9.424 9.9307 4.0533 1.52 8.056 3.344 8.056 8.4613 0 3.9013-2.7867 6.7387-7.3467 6.7387-5.1173 0-7.8533-3.5973-9.5253-8.056z" />
        <path
          d="m65.212 195.98v35.467h2.7867v-14.491h5.5227c6.6373 0 11.603-3.952 11.603-10.488 0-6.536-4.9653-10.488-11.603-10.488zm8.3093 2.6347c5.168 0 8.7653 2.736 8.7653 7.8533 0 5.1173-3.5973 7.8533-8.7653 7.8533h-5.5227v-15.707z" />
        <path
          d="m91.609 195.98v35.467h2.7867v-14.896h4.6613l10.336 14.896h3.4453l-10.741-15.048c5.624-0.76 9.6267-4.3573 9.6267-10.133 0-6.536-5.168-10.285-12.008-10.285zm8.1067 2.4827c5.3707 0 9.2213 2.6853 9.2213 7.8027s-3.8 7.8027-9.2213 7.8027h-5.32v-15.605z" />
        <path
          d="m124.8 190.82c0 2.8373 2.2293 4.8133 4.6613 5.016l-15.149 35.619h3.1413l4.864-11.907h15.301l4.864 11.907h3.1413l-15.149-35.619c2.432-0.20267 4.6613-2.1787 4.6613-5.016 0-3.04-2.5333-5.0667-5.168-5.0667s-5.168 2.0267-5.168 5.0667zm1.7733 0c0-2.0773 1.672-3.4453 3.3947-3.4453s3.3947 1.368 3.3947 3.4453c0 2.0773-1.672 3.4453-3.3947 3.4453s-3.3947-1.368-3.3947-3.4453zm3.3947 10.235 6.5867 15.859h-13.123z" />
        <path
          d="m150.23 195.98v35.467h2.7867v-17.835l15.453 17.835h3.5467l-16.365-18.848 15.605-16.619h-3.5467l-14.693 15.808v-15.808z" />
        <path
          d="m196.74 221.17c0-5.32-3.8-8.2587-8.36-9.1707 3.9013-0.96267 6.384-3.3947 6.384-7.448 0-5.624-4.0027-8.5627-10.336-8.5627h-7.7013v35.467h8.208c6.84 0 11.805-3.2427 11.805-10.285zm-12.312-22.699c4.56 0 7.5493 2.3307 7.5493 6.232 0 4.1547-3.3947 6.08-7.5493 6.08h-4.9147v-12.312zm-4.9147 30.501v-15.707h5.4213c4.7627 0 8.968 2.7867 8.968 7.752 0 5.2693-3.5973 7.9547-8.968 7.9547z" />
        <path
          d="m227.35 231.45h3.1413l-15.656-36.835-15.656 36.835h3.1413l4.864-11.907h15.301zm-12.515-30.4 6.5867 15.859h-13.123z" />
        <path d="m262.15 195.98v29.691l-26.955-31.059v36.835h2.7867v-29.589l26.955 30.957v-36.835z" />
        <path
          d="m273.35 195.98v35.467h2.7867v-17.835l15.453 17.835h3.5467l-16.365-18.848 15.605-16.619h-3.5467l-14.693 15.808v-15.808z" />
        <path d="m299.85 195.98v35.467h19.051v-2.6347h-16.264v-15.504h15.251v-2.6347h-15.251v-12.059h16.264v-2.6347z" />
        <path d="m353.86 195.98v29.691l-26.955-31.059v36.835h2.7867v-29.589l26.955 30.957v-36.835z" />
      </g>
      <g fill="#f0581a">
        <path d="m361.61 198.62h9.3227v32.832h2.7867v-32.832h9.3227v-2.6347h-21.432z" />
        <path d="m388.01 195.98v35.467h19.051v-2.6347h-16.264v-15.504h15.251v-2.6347h-15.251v-12.059h16.264v-2.6347z" />
        <path
          d="m433 195.98-8.512 14.44-8.36-14.44h-3.344l10.235 16.872-11.501 18.595h3.344l9.576-16.112 9.3227 16.112h3.344l-11.248-18.595 10.488-16.872z" />
        <path d="m440.04 198.62h9.3227v32.832h2.7867v-32.832h9.3227v-2.6347h-21.432z" />
      </g>
    </g>
  </g>
</svg>